<?xml version="1.0" standalone="no"?>
<!DOCTYPE svg PUBLIC "-//W3C//DTD SVG 1.1//EN" "http://www.w3.org/Graphics/SVG/1.1/DTD/svg11.dtd" >
<svg xmlns="http://www.w3.org/2000/svg">
<metadata></metadata>
<defs>
<font id="sofia_pro_softlight" horiz-adv-x="1136" >
<font-face units-per-em="2048" ascent="1536" descent="-512" />
<missing-glyph horiz-adv-x="544" />
<glyph unicode="&#xfb01;" horiz-adv-x="1105" d="M37 895q0 27 17 44t44 17h138v111q0 408 331 408h21q28 0 46.5 -18.5t18.5 -47.5q0 -28 -18.5 -45.5t-46.5 -17.5h-21q-52 0 -90 -17.5t-58.5 -43.5t-31.5 -66t-14 -73.5t-2 -78.5v-111h506q29 0 48 -20t19 -49v-828q0 -29 -19 -49t-48 -20t-48.5 20t-19.5 49v775h-438 v-775q0 -29 -19.5 -49t-48.5 -20t-48 20t-19 49v775h-138q-27 0 -44 17t-17 44zM774 1313q0 42 31 70t74 28t73.5 -28t30.5 -70t-30.5 -70.5t-73.5 -28.5t-74 28.5t-31 70.5z" />
<glyph unicode="&#xfb02;" horiz-adv-x="1114" d="M37 895q0 27 17 44t44 17h138v136q0 93 15 157.5t54.5 118.5t114.5 80.5t188 26.5q91 0 156.5 -13.5t100.5 -33t54.5 -51.5t24 -57.5t4.5 -62.5v-1198q0 -29 -19 -49t-48 -20t-48.5 20t-19.5 49v1227q0 16 -18 28t-66 20.5t-121 8.5q-61 0 -104.5 -13t-69 -34t-40 -56 t-19 -69.5t-4.5 -83.5v-131h184q27 0 44 -17t17 -44t-17 -44t-44 -17h-184v-775q0 -29 -19.5 -49t-48.5 -20t-48 20t-19 49v775h-138q-27 0 -44 17t-17 44z" />
<glyph unicode="&#xfb03;" horiz-adv-x="1753" d="M37 895q0 27 17 44t44 17h138v111q0 408 331 408h68q28 0 46.5 -18.5t18.5 -47.5q0 -28 -18.5 -45.5t-46.5 -17.5h-68q-52 0 -90 -17.5t-58.5 -43.5t-31.5 -66t-14 -73.5t-2 -78.5v-111h454v111q0 408 332 408h25q28 0 46.5 -18.5t18.5 -47.5q0 -28 -18.5 -45.5 t-46.5 -17.5h-25q-52 0 -90 -17.5t-58.5 -43.5t-31.5 -66t-14 -73.5t-2 -78.5v-111h565q29 0 48 -20t19 -49v-828q0 -29 -19 -49t-48 -20t-48.5 20t-19.5 49v775h-497v-775q0 -29 -19.5 -49t-48.5 -20t-48.5 20t-19.5 49v775h-454v-775q0 -29 -19.5 -49t-48.5 -20t-48 20 t-19 49v775h-138q-27 0 -44 17t-17 44zM1423 1313q0 42 31 70t74 28t73.5 -28t30.5 -70t-30.5 -70.5t-73.5 -28.5t-74 28.5t-31 70.5z" />
<glyph unicode="&#xfb04;" horiz-adv-x="1761" d="M37 895q0 27 17 44t44 17h138v111q0 408 331 408h47q28 0 47 -18.5t19 -47.5q0 -27 -19 -45t-47 -18h-47q-52 0 -90 -17.5t-58.5 -43.5t-31.5 -66t-14 -73.5t-2 -78.5v-111h512v136q0 93 15 157.5t54.5 118.5t114.5 80.5t188 26.5q91 0 156.5 -13.5t100.5 -33t54.5 -51.5 t24 -57.5t4.5 -62.5v-1198q0 -29 -19 -49t-48 -20t-48.5 20t-19.5 49v1227q0 16 -18 28t-66 20.5t-121 8.5q-61 0 -104.5 -13t-69 -34t-40 -56t-19 -69.5t-4.5 -83.5v-131h184q27 0 44.5 -17t17.5 -44t-17.5 -44t-44.5 -17h-184v-775q0 -29 -19.5 -49t-48.5 -20t-48 20 t-19 49v775h-512v-775q0 -29 -19.5 -49t-48.5 -20t-48 20t-19 49v775h-138q-27 0 -44 17t-17 44z" />
<glyph horiz-adv-x="0" />
<glyph horiz-adv-x="682" />
<glyph unicode=" "  horiz-adv-x="544" />
<glyph unicode="&#x09;" horiz-adv-x="544" />
<glyph unicode="&#xa0;" horiz-adv-x="544" />
<glyph unicode="!" horiz-adv-x="491" d="M133 86q0 45 33.5 76t79.5 31t79 -31t33 -76t-33 -75.5t-79 -30.5t-79.5 30.5t-33.5 75.5zM178 1352q0 29 19.5 49t48.5 20t48 -20t19 -49l-12 -926q0 -25 -15 -41t-40 -16t-40.5 16t-15.5 41z" />
<glyph unicode="&#x22;" horiz-adv-x="677" d="M154 905v453q0 27 18 45t47 18q26 0 44 -18.5t18 -44.5v-453q0 -26 -18 -44.5t-44 -18.5q-29 0 -47 18t-18 45zM397 905v453q0 27 17.5 45t46.5 18q27 0 45 -18t18 -45v-453q0 -27 -18 -45t-45 -18q-29 0 -46.5 18t-17.5 45z" />
<glyph unicode="#" horiz-adv-x="1464" d="M78 424q0 25 16 41t41 16h242l127 457h-244q-25 0 -41 15t-16 40t16 41.5t41 16.5h275l92 329q6 23 25 34t44 5q21 -4 32.5 -24.5t6.5 -42.5l-84 -301h336l92 329q6 23 25.5 34t44.5 5q21 -4 32.5 -24.5t6.5 -42.5l-84 -301h225q25 0 41 -16.5t16 -41.5t-16 -40t-41 -15 h-258l-127 -457h260q25 0 41.5 -16t16.5 -41q0 -24 -16.5 -39.5t-41.5 -15.5h-291l-94 -338q-6 -23 -26 -35t-43 -6q-25 7 -35 26.5t-2 44.5l84 308h-336l-94 -338q-6 -23 -26.5 -35t-43.5 -6q-25 7 -35 26.5t-2 44.5l84 308h-209q-25 0 -41 15t-16 40zM492 481h337l127 457 h-338z" />
<glyph unicode="$" horiz-adv-x="1122" d="M100 342q-4 29 12.5 52t43.5 26q29 3 49.5 -14.5t25.5 -47.5q18 -100 105.5 -171.5t214.5 -71.5q148 0 237.5 68.5t108.5 162.5q19 121 -57.5 194.5t-210.5 104.5l-191 43q-332 75 -332 354q0 78 32.5 146.5t87 117.5t126.5 80t150 39v148q0 26 17 41.5t40 15.5t40 -15.5 t17 -41.5v-150q147 -19 246.5 -106t122.5 -223q5 -29 -11 -52.5t-44 -27.5q-30 -5 -52 11t-26 48q-17 100 -101 159.5t-202 59.5q-122 0 -214.5 -70.5t-92.5 -179.5q0 -33 8 -61t29.5 -60.5t69 -59t118.5 -42.5l192 -43q89 -20 159.5 -55t125 -89t78 -133t8.5 -177 q-12 -59 -43.5 -114t-81.5 -103t-125 -80.5t-164 -40.5v-187q0 -26 -17 -41.5t-40 -15.5t-40 15.5t-17 41.5v185q-108 10 -196.5 63.5t-140 131t-65.5 165.5z" />
<glyph unicode="%" horiz-adv-x="1335" d="M78 1098q0 115 78.5 194.5t193.5 79.5q114 0 194.5 -80t80.5 -194q0 -115 -80 -194t-195 -79t-193.5 78.5t-78.5 194.5zM199 1098q0 -65 43.5 -108.5t107.5 -43.5t109 44t45 108q0 63 -45.5 108t-108.5 45q-64 0 -107.5 -44.5t-43.5 -108.5zM305.5 25q-6.5 20 3.5 43 l627 1290q10 20 31.5 27.5t40.5 -1.5q21 -9 27.5 -29.5t-3.5 -43.5l-629 -1291q-11 -20 -31 -27t-40 3q-20 9 -26.5 29zM713 262q0 115 78.5 195t193.5 80q114 0 194.5 -80.5t80.5 -194.5q0 -115 -80 -193.5t-195 -78.5t-193.5 78t-78.5 194zM834 262q0 -64 43 -107.5 t108 -43.5q64 0 109 43.5t45 107.5q0 63 -45.5 108.5t-108.5 45.5q-64 0 -107.5 -45t-43.5 -109z" />
<glyph unicode="&#x26;" horiz-adv-x="1361" d="M115 430q0 122 64.5 226t172.5 163q-58 47 -90.5 115t-32.5 149q0 143 104 243.5t257 100.5q93 0 170.5 -38.5t128.5 -104.5q15 -23 8.5 -47t-31.5 -41q-46 -35 -90 16q-70 80 -186 80q-98 0 -161.5 -59.5t-63.5 -149.5t60.5 -151.5t154.5 -61.5h319v123q0 30 19 49 t49 19q29 0 47 -19t18 -49v-125h137q27 0 44.5 -17t17.5 -44q0 -26 -17.5 -42.5t-44.5 -16.5h-137v-318q0 -55 4 -96.5t16 -83t33 -69.5t56.5 -47t83.5 -23q26 -1 42 -24t11 -52q-9 -54 -76 -51q-93 4 -161.5 56.5t-94.5 129.5q-47 -85 -151 -137.5t-222 -52.5 q-200 0 -329 129.5t-129 320.5zM250 430q0 -135 89.5 -225t233.5 -90q139 0 230 86t96 215v332h-324q-137 0 -231 -95t-94 -223z" />
<glyph unicode="'" horiz-adv-x="434" d="M154 905v453q0 27 18 45t47 18q26 0 44 -18.5t18 -44.5v-453q0 -26 -18 -44.5t-44 -18.5q-29 0 -47 18t-18 45z" />
<glyph unicode="(" horiz-adv-x="581" d="M115 475q0 239 63 481t191 430q14 25 38.5 32.5t49.5 -5.5q26 -15 32.5 -42t-8.5 -52q-117 -173 -176 -398.5t-59 -445.5t59 -445.5t176 -398.5q15 -25 8.5 -52t-32.5 -42q-25 -13 -49.5 -5.5t-38.5 32.5q-128 188 -191 430t-63 481z" />
<glyph unicode=")" horiz-adv-x="581" d="M92 -421q-7 27 8 52q117 173 176.5 399t59.5 445t-59.5 445t-176.5 399q-15 25 -8 52t33 42q25 13 49.5 5.5t38.5 -32.5q128 -188 191 -430t63 -481t-63 -481t-191 -430q-14 -25 -38.5 -32.5t-49.5 5.5q-26 15 -33 42z" />
<glyph unicode="*" horiz-adv-x="940" d="M123 1169q10 25 35.5 32t52.5 -5l217 -82l-14 234q-3 29 14 48t45 19q24 0 41.5 -20t15.5 -45l-14 -236l211 82q27 12 53.5 5t36.5 -32q9 -23 -4 -47t-37 -30l-233 -64l157 -190q17 -20 15.5 -46.5t-21.5 -43.5q-22 -14 -49.5 -7.5t-42.5 29.5l-129 201l-131 -201 q-15 -23 -42 -30t-50 8q-20 17 -21.5 43.5t15.5 46.5l162 188l-242 66q-24 8 -37 31t-4 46z" />
<glyph unicode="+" horiz-adv-x="1048" d="M96 539q0 28 19.5 46.5t48.5 18.5h295v295q0 29 18.5 48.5t46.5 19.5t47 -19.5t19 -48.5v-295h295q29 0 48 -18.5t19 -46.5t-19 -47t-48 -19h-295v-295q0 -29 -19 -48t-47 -19t-46.5 19t-18.5 48v295h-295q-29 0 -48.5 19t-19.5 47z" />
<glyph unicode="," horiz-adv-x="458" d="M27 -233q0 11 14 34q3 5 23 37t27 44.5t22.5 44.5t22 55.5t12.5 59.5t6 73q0 40 22.5 64t54.5 24q35 0 58.5 -22.5t23.5 -55.5v-10q-13 -99 -60 -191.5t-97 -142t-82 -49.5q-17 0 -32 11t-15 24z" />
<glyph unicode="-" horiz-adv-x="1013" d="M147 479q0 28 19 46t47 18h588q28 0 46.5 -18t18.5 -46t-18.5 -46.5t-46.5 -18.5h-588q-28 0 -47 18.5t-19 46.5z" />
<glyph unicode="." horiz-adv-x="499" d="M137 86q0 45 33.5 76t79.5 31t79 -31t33 -76t-33 -75.5t-79 -30.5t-79.5 30.5t-33.5 75.5z" />
<glyph unicode="/" horiz-adv-x="913" d="M79 32q-8 26 3 50l637 1304q12 24 35.5 32t48.5 -3q24 -10 31.5 -36t-3.5 -50l-636 -1304q-12 -24 -35.5 -32t-48.5 3q-24 10 -32 36z" />
<glyph unicode="0" horiz-adv-x="1234" d="M133 678q0 123 13 222.5t46.5 190.5t87.5 152.5t139.5 98t198.5 36.5t198.5 -36.5t139 -98t87 -153t46.5 -190.5t13 -222q0 -122 -13 -221t-46.5 -190.5t-87 -152.5t-139 -97.5t-198.5 -36.5t-199 36.5t-139.5 98t-87 152.5t-46.5 190t-13 221zM268 678q0 -99 9 -178.5 t33.5 -153.5t63 -123t100.5 -78.5t144 -29.5t144 29.5t100.5 78.5t62.5 123t33 153.5t9 178.5q0 100 -9 180t-33 153.5t-62.5 123t-100.5 79t-144 29.5t-144 -29.5t-100.5 -79t-63 -123t-33.5 -154t-9 -179.5z" />
<glyph unicode="1" horiz-adv-x="645" d="M70 1202q-6 26 6 46t37 28l227 82q35 14 53 14h2q22 0 35.5 -13.5t13.5 -33.5v-1266q0 -29 -19 -49t-48 -20t-48.5 20t-19.5 49v1162l-168 -58q-22 -6 -43.5 5t-27.5 34z" />
<glyph unicode="2" horiz-adv-x="1062" d="M115 1064.5q-11 25.5 0 51.5q41 122 148.5 192t248.5 70q176 0 297 -109.5t121 -279.5q0 -179 -148 -348l-428 -506h518q30 0 50 -19t20 -48t-20.5 -48.5t-49.5 -19.5h-710q-21 0 -32 10.5t-11 26.5q0 18 24 47l541 653q111 131 111 252q0 114 -81.5 184t-201.5 70 q-98 0 -174 -46t-102 -126q-8 -25 -33 -37t-51 -2q-26 7 -37 32.5z" />
<glyph unicode="3" horiz-adv-x="1071" d="M101 225q5 30 30 45q25 14 50 6.5t44 -32.5q37 -53 102 -87t144 -40h-2q135 -8 235.5 64.5t106.5 195.5q3 128 -86 207.5t-219 79.5h-84q-28 0 -47 18t-19 45q0 29 19 47.5t47 18.5h84q102 0 173.5 64t76.5 157q5 96 -56 159t-180 70q-69 3 -131 -19t-102 -63 q-49 -52 -92 -20q-25 17 -29 45t16 53q60 74 150 110.5t196 30.5q125 -9 212.5 -65t125 -139.5t27.5 -182.5q-6 -82 -59 -153.5t-134 -106.5q76 -18 136 -78.5t89 -140.5t23 -158q-9 -119 -78.5 -208t-177 -131.5t-231.5 -34.5q-110 9 -200.5 59.5t-147.5 130.5 q-17 23 -12 53z" />
<glyph unicode="4" horiz-adv-x="1142" d="M59 338q0 27 21 55l657 942q25 35 60 35q25 0 42 -17t17 -40v-897h152q26 0 44.5 -18t18.5 -46q0 -26 -18.5 -43.5t-44.5 -17.5h-152v-232q0 -29 -19.5 -49t-48.5 -20t-48 20t-19 49v232h-608q-24 0 -39 12t-15 35zM238 416h483v692z" />
<glyph unicode="5" d="M107 271.5q5 28.5 30 45.5q23 17 51 10.5t45 -32.5q50 -77 137 -125.5t177 -48.5q159 0 250.5 86.5t91.5 220.5q0 68 -27.5 125t-72 92.5t-98 54.5t-109.5 19q-91 0 -161 -18.5t-171 -67.5q-28 -16 -70 10q-31 22 -22 68l106 602q4 23 20.5 36t37.5 13h559q29 0 49 -20 t20 -50q0 -29 -20 -48t-49 -19h-492l-82 -451q168 84 275 84q122 0 222.5 -49t163 -148.5t62.5 -232.5q0 -205 -131.5 -326.5t-351.5 -121.5q-132 0 -250 64t-180 175q-15 24 -10 52.5z" />
<glyph unicode="6" horiz-adv-x="1126" d="M141 438q-15 311 23 533q30 185 154.5 299t304.5 108q112 -5 193.5 -44.5t137.5 -137.5q14 -26 7 -49.5t-33 -36.5q-25 -12 -50 -4.5t-40 29.5q-39 56 -94 79.5t-128 28.5q-76 3 -135.5 -25t-98 -77.5t-63.5 -119t-34.5 -146t-8.5 -162.5v-43q38 86 134 138.5t190 49.5 q120 -5 216.5 -68.5t148.5 -166.5t47 -222q-8 -184 -136.5 -306t-310.5 -115q-179 8 -293 129.5t-131 328.5zM279 432q-1 -132 83 -221t209 -94q125 -4 212.5 79.5t93.5 211.5q5 129 -75 219t-206 94q-127 5 -220 -78t-97 -211z" />
<glyph unicode="7" horiz-adv-x="1017" d="M98 1294q0 29 20.5 48.5t49.5 19.5h752q24 0 38.5 -13t14.5 -36q0 -19 -15 -49l-682 -1237q-13 -26 -40.5 -34.5t-53.5 3.5t-33 42t7 56l624 1133h-612q-30 0 -50 19t-20 48z" />
<glyph unicode="8" horiz-adv-x="1153" d="M117 414q0 119 62 219t167 158q-119 95 -119 253q0 139 100 236.5t248 97.5q150 0 252.5 -97.5t102.5 -236.5q0 -76 -33.5 -142t-91.5 -111q106 -58 168.5 -158.5t62.5 -218.5q0 -182 -133.5 -308t-327.5 -126t-326 126t-132 308zM252 414q0 -125 93 -212t230 -87 t231.5 87t94.5 212q0 124 -94.5 214.5t-231.5 90.5h-14q-131 -4 -220 -94t-89 -211zM362 1044q0 -82 58 -140.5t145 -61.5h19q90 3 150.5 61.5t60.5 140.5q0 84 -63.5 141.5t-156.5 57.5q-90 0 -151.5 -57.5t-61.5 -141.5z" />
<glyph unicode="9" horiz-adv-x="1122" d="M113 954q8 184 136 306.5t310 115.5q178 -8 291.5 -129t130.5 -329q16 -325 -20 -533q-30 -185 -154.5 -299.5t-304.5 -108.5q-112 5 -194 45t-138 138q-14 26 -6.5 49.5t33.5 36.5q25 12 50 4.5t40 -29.5q39 -57 93.5 -80t127.5 -28q76 -3 135.5 25t98 77.5t63.5 119 t34.5 146t8.5 162.5v43q-39 -88 -129.5 -138t-202.5 -50q-119 0 -214 64t-144.5 168t-44.5 224zM248 948q-5 -130 74.5 -219.5t205.5 -93.5q127 -5 219.5 78t96.5 211q1 132 -83 221t-208 94q-125 4 -212 -79.5t-93 -211.5z" />
<glyph unicode=":" horiz-adv-x="520" d="M147 86q0 45 33.5 76t79.5 31t79.5 -31t33.5 -76t-33.5 -75.5t-79.5 -30.5t-79.5 30.5t-33.5 75.5zM147 870q0 45 33.5 76t79.5 31t79.5 -31t33.5 -76t-33.5 -75.5t-79.5 -30.5t-79.5 30.5t-33.5 75.5z" />
<glyph unicode=";" horiz-adv-x="542" d="M74 -233q0 11 14 34q3 5 23 37t27 44.5t22.5 44.5t22 55.5t12.5 59.5t6 73q0 40 23 64t55 24q35 0 58 -22.5t23 -55.5v-10q-13 -99 -60 -191.5t-97 -142t-82 -49.5q-17 0 -32 11t-15 24zM168 870q0 45 33.5 76t79.5 31t79 -31t33 -76t-33 -75.5t-79 -30.5t-79.5 30.5 t-33.5 75.5z" />
<glyph unicode="&#x3c;" horiz-adv-x="1304" d="M90 551v6q0 66 55 86l926 354q26 11 53 -1t37 -40q10 -27 -2.5 -52t-40.5 -36l-852 -313v-2l852 -313q28 -11 40.5 -36t2.5 -52q-10 -28 -37 -40t-53 -1l-926 354q-55 20 -55 86z" />
<glyph unicode="=" horiz-adv-x="1271" d="M156 305q0 28 18.5 46t46.5 18h830q28 0 46.5 -18t18.5 -46t-18.5 -46.5t-46.5 -18.5h-830q-28 0 -46.5 18.5t-18.5 46.5zM156 725q0 28 18.5 45.5t46.5 17.5h830q28 0 46.5 -17.5t18.5 -45.5t-18.5 -47t-46.5 -19h-830q-28 0 -46.5 19t-18.5 47z" />
<glyph unicode="&#x3e;" horiz-adv-x="1304" d="M143 152q-10 27 2.5 52t40.5 36l852 313v2l-852 313q-28 11 -40.5 36t-2.5 52q10 28 37 40t53 1l926 -354q55 -20 55 -86v-6q0 -66 -55 -86l-926 -354q-26 -11 -53 1t-37 40z" />
<glyph unicode="?" horiz-adv-x="978" d="M88 1100q24 149 133.5 237t259.5 88q110 0 204 -47.5t153 -139t59 -208.5q0 -142 -83.5 -244t-209.5 -139q-45 -14 -71.5 -25.5t-53.5 -32.5t-39 -53t-12 -77v-21q0 -29 -19.5 -49t-48.5 -20t-48 20t-19 49v21q0 70 19.5 123.5t57.5 90t84 60.5t109 43q84 27 141.5 94.5 t57.5 159.5q0 115 -84 187.5t-197 72.5q-99 0 -172 -57.5t-88 -153.5q-5 -29 -27 -46t-51 -13q-28 4 -44 27.5t-11 52.5zM248 86q0 45 33 76t79 31t79.5 -31t33.5 -76t-33.5 -75.5t-79.5 -30.5t-79 30.5t-33 75.5z" />
<glyph unicode="@" horiz-adv-x="2064" d="M113 516q0 186 69.5 354.5t188.5 290.5t285 194t352 72q187 0 358.5 -66.5t299 -181t203 -278t75.5 -348.5q0 -77 -12 -154t-41 -155.5t-71.5 -138.5t-110 -98t-150.5 -38q-59 0 -108 14.5t-91 46t-66 89t-24 137.5v270v2q0 118 -83 200.5t-200 82.5t-199.5 -82.5 t-82.5 -200.5q0 -117 82.5 -199.5t199.5 -82.5q61 0 125 33q27 12 48 5t34 -30q12 -22 3 -44t-34 -36q-87 -53 -176 -53q-169 0 -288 119t-119 288t119 288.5t288 119.5q164 0 283 -113q119 -116 125 -276v-305q0 -152 164 -152q60 0 107.5 32t75 80.5t45 113t24 122 t6.5 115.5q0 159 -65.5 299.5t-176 238.5t-258.5 155t-309 57q-160 0 -303 -62.5t-245 -168t-162 -251t-60 -305.5t60 -304t162 -248t245 -165t303 -61h6q28 0 45.5 -18t17.5 -46q0 -26 -17.5 -43.5t-45.5 -17.5h-6q-186 0 -352 70.5t-285 191.5t-188.5 288t-69.5 353z" />
<glyph unicode="A" horiz-adv-x="1251" d="M43 82l489 1276q23 63 89 63h10q65 0 88 -63l489 -1276q5 -13 5 -26q1 -12 -5 -26q-12 -26 -39 -36q-12 -5 -24 -5q-14 0 -29 7q-26 12 -35 39l-129 336h-653l-129 -336q-9 -27 -35 -39q-14 -7 -29 -7q-12 0 -24 5q-26 10 -38 36q-6 13 -6 26t5 26zM348 498h557l-278 725 z" />
<glyph unicode="B" horiz-adv-x="1269" d="M201 70v1271q0 28 20.5 49t48.5 21h445q170 0 268 -94t98 -256q0 -71 -15.5 -129.5t-55 -108t-101.5 -71.5q104 -20 176 -128t72 -229q0 -167 -106.5 -281t-288.5 -114h-492q-28 0 -48.5 21t-20.5 49zM338 135h422q116 0 189 76.5t73 183.5q0 66 -32.5 131.5t-96 111.5 t-141.5 46h-414v-549zM338 811h393q104 0 159.5 72.5t55.5 177.5q0 103 -67.5 160t-178.5 57h-362v-467z" />
<glyph unicode="C" horiz-adv-x="1349" d="M113 702q0 199 87 364.5t244.5 263t352.5 97.5q248 0 452 -163q23 -19 25 -49q0 -3 1 -7q0 -26 -18 -45q-20 -22 -47 -22t-49 20q-157 131 -364 131q-159 0 -285.5 -79.5t-195 -214t-68.5 -296.5t68.5 -296t195 -212.5t285.5 -78.5q207 0 364 131q22 20 49 20t47 -22 q18 -20 18 -45q-1 -3 -1 -7q-2 -30 -25 -49q-204 -163 -452 -163q-195 0 -352.5 96.5t-244.5 261.5t-87 364z" />
<glyph unicode="D" horiz-adv-x="1474" d="M201 70v1271q0 28 20.5 49t48.5 21h461q194 0 337.5 -94t215.5 -253.5t72 -361.5q0 -201 -72 -358.5t-215 -250.5t-338 -93h-461q-28 0 -48.5 21t-20.5 49zM336 135h395q159 0 271 74.5t165.5 200.5t53.5 292q0 124 -31 227.5t-91 181.5t-154.5 121.5t-213.5 43.5h-395 v-1141z" />
<glyph unicode="E" horiz-adv-x="1128" d="M201 70v1271q0 28 20.5 49t48.5 21h676q29 0 49.5 -19.5t20.5 -48.5t-20 -48t-50 -19h-610v-516h526q29 0 49.5 -19.5t20.5 -48.5t-20 -48t-50 -19h-526v-490h633q29 0 49 -19t20 -48t-20 -48.5t-49 -19.5h-699q-28 0 -48.5 21t-20.5 49z" />
<glyph unicode="F" horiz-adv-x="1071" d="M201 59v1282q0 28 20.5 49t48.5 21h664q29 0 49.5 -19.5t20.5 -48.5t-20 -48t-50 -19h-598v-516h463q29 0 49 -19.5t20 -48.5t-20 -48t-49 -19h-463v-566q0 -29 -19.5 -49t-48.5 -20t-48 20t-19 49z" />
<glyph unicode="G" horiz-adv-x="1538" d="M111 702q0 148 55 282t149 231t225.5 154.5t278.5 57.5q221 0 398 -122q23 -19 25.5 -49t-17.5 -52q-21 -21 -47.5 -20.5t-49.5 18.5q-139 90 -309 90q-160 0 -292 -79t-206.5 -214.5t-74.5 -296.5t74.5 -295.5t206.5 -213t292 -78.5q216 0 348.5 113.5t161.5 336.5h-362 q-28 0 -47 18t-19 46q0 27 19 45t47 18h438q37 0 51 -19.5t14 -64.5q-21 -311 -191.5 -469.5t-459.5 -158.5q-147 0 -278.5 57t-225.5 154t-149 230.5t-55 280.5z" />
<glyph unicode="H" horiz-adv-x="1445" d="M201 59v1293q0 29 19 49t48 20t48.5 -20t19.5 -49v-588h774v588q0 29 19.5 49t48.5 20t48 -20t19 -49v-1293q0 -29 -19 -49t-48 -20t-48.5 20t-19.5 49v578h-774v-578q0 -29 -19.5 -49t-48.5 -20t-48 20t-19 49z" />
<glyph unicode="I" horiz-adv-x="536" d="M201 59v1293q0 29 19 49t48 20t48.5 -20t19.5 -49v-1293q0 -29 -19.5 -49t-48.5 -20t-48 20t-19 49z" />
<glyph unicode="J" horiz-adv-x="540" d="M-213 -387q6 28 29 42.5t51 8.5q20 -4 51 -4q76 0 132.5 25t89 69.5t48 99.5t15.5 121v1377q0 29 19 49t48 20t48.5 -20t19.5 -49v-1377q0 -75 -14 -140.5t-45.5 -122.5t-79.5 -97.5t-119.5 -64t-161.5 -23.5q-34 0 -72 6q-29 5 -47 29q-13 17 -13 37q0 7 1 14z" />
<glyph unicode="K" horiz-adv-x="1095" d="M199 59v1293q0 29 19 49t48 20t48.5 -20t19.5 -49v-627l518 668q18 21 42 27q6 1 13 2l35 -11q22 -14 25.5 -41.5t-13.5 -50.5l-477 -614l567 -599q22 -20 23 -49q0 -27 -20 -47t-48.5 -20t-48.5 22l-616 650v-603q0 -29 -19.5 -49t-48.5 -20t-48 20t-19 49z" />
<glyph unicode="L" horiz-adv-x="980" d="M201 70v1282q0 29 19 49t48 20t48.5 -20t19.5 -49v-1217h538q30 0 50 -19t20 -48t-20.5 -48.5t-49.5 -19.5h-604q-28 0 -48.5 21t-20.5 49z" />
<glyph unicode="M" horiz-adv-x="1955" d="M143 66l156 1282q3 30 23.5 51.5t50.5 21.5h14q50 0 70 -41l522 -1069l520 1069q20 41 70 41h14q30 0 50.5 -21.5t23.5 -51.5l155 -1282v-9q0 -23 -13 -42q-16 -22 -44 -25h-9q-24 0 -41 14q-21 17 -24 45l-137 1120l-475 -966q-33 -72 -90 -72t-90 72l-477 966 l-138 -1120q-4 -28 -24 -45q-17 -14 -40 -14h-9q-29 3 -45 25q-14 19 -13 42v9z" />
<glyph unicode="N" horiz-adv-x="1394" d="M201 59v1293q0 29 21 49t50 20h21q48 0 72 -41l694 -1142v1114q0 29 19 49t48 20t48.5 -20t19.5 -49v-1295q0 -29 -21 -48t-49 -19h-18q-46 0 -70 39l-700 1153v-1123q0 -29 -19.5 -49t-48.5 -20t-48 20t-19 49z" />
<glyph unicode="O" horiz-adv-x="1640" d="M111 702q0 148 55 282t149 231t225.5 154.5t278.5 57.5q197 0 360.5 -97t257 -263.5t93.5 -364.5q0 -147 -55 -280.5t-149.5 -230.5t-226.5 -154t-280 -57q-147 0 -278.5 57t-225.5 154t-149 230.5t-55 280.5zM246 702q0 -161 74.5 -295.5t206.5 -213t292 -78.5 t292.5 78.5t208 213t75.5 295.5t-75.5 296.5t-208 214.5t-292.5 79t-292 -79t-206.5 -214.5t-74.5 -296.5z" />
<glyph unicode="P" horiz-adv-x="1230" d="M201 59v1282q0 28 20.5 49t48.5 21h484q104 0 182.5 -36.5t124 -99t68 -137t22.5 -159.5t-22.5 -159t-68 -135.5t-124 -97.5t-182.5 -36h-418v-492q0 -29 -19.5 -49t-48.5 -20t-48 20t-19 49zM336 686h407q72 0 126 24.5t85.5 66.5t46.5 92.5t15 109.5q0 58 -15 110 t-45 94.5t-82 67.5t-120 25h-418v-590z" />
<glyph unicode="Q" horiz-adv-x="1640" d="M111 702q0 148 55 282t149 231t225.5 154.5t278.5 57.5q197 0 360.5 -97t257 -263.5t93.5 -364.5t-95 -364.5t-257 -261.5l127 -199q14 -21 9 -47t-28 -41q-14 -8 -30 -8q-8 0 -17 2q-26 6 -39 29l-135 211q-121 -43 -246 -43q-147 0 -278.5 57t-225.5 154t-149 230.5 t-55 280.5zM246 702q0 -161 74.5 -295.5t206.5 -213t292 -78.5q91 0 170 24l-137 217q-14 22 -9 47.5t27 38.5q23 13 48 7.5t40 -27.5l148 -234q132 76 210.5 213t78.5 301q0 161 -75.5 296.5t-208 214.5t-292.5 79t-292 -79t-206.5 -214.5t-74.5 -296.5z" />
<glyph unicode="R" horiz-adv-x="1234" d="M201 59v1282q0 28 20.5 49t48.5 21h455q103 0 181 -36.5t122.5 -99t66 -137t21.5 -159.5q0 -66 -12.5 -125.5t-41 -114.5t-71 -95.5t-106.5 -65.5t-144 -27l318 -451q18 -23 15.5 -51t-25.5 -45q-21 -15 -44 -15q-5 0 -10 1q-28 4 -43 28l-377 533h-239v-492 q0 -29 -19.5 -49t-48.5 -20t-48 20t-19 49zM336 686h379q72 0 125 24t83 66.5t44 93t14 109.5t-14 110t-43 94t-80 68t-119 25h-389v-590z" />
<glyph unicode="S" horiz-adv-x="1157" d="M119 342q-1 6 -1 11q0 22 14 41q16 23 42 26q29 3 50 -14.5t26 -47.5q18 -100 105 -171.5t214 -71.5q148 0 237.5 68.5t108.5 162.5q4 24 4 46q1 88 -61 148q-76 74 -211 105l-190 43q-332 75 -332 354q0 111 64 200.5t164.5 137t213.5 47.5q171 0 292 -90.5t145 -242.5 q4 -29 -12 -52t-44 -28q-30 -5 -52 11t-26 48q-17 100 -101 159.5t-202 59.5q-122 0 -214.5 -70.5t-92.5 -179.5q0 -33 8 -61t29.5 -60.5t69 -59t118.5 -42.5l193 -43q89 -20 159.5 -55t124.5 -89t78 -133q14 -48 15 -104q0 -35 -6 -73q-13 -64 -49 -123t-93.5 -109 t-145 -80t-192.5 -30q-179 0 -303 107t-147 255z" />
<glyph unicode="T" horiz-adv-x="1138" d="M39 1343q0 29 20.5 48.5t49.5 19.5h921q29 0 49.5 -19.5t20.5 -48.5t-20 -48t-50 -19h-393v-1217q0 -29 -19.5 -49t-48.5 -20t-48 20t-19 49v1217h-393q-30 0 -50 19t-20 48z" />
<glyph unicode="U" horiz-adv-x="1376" d="M188 477v875q0 29 19.5 49t48.5 20t48.5 -20t19.5 -49v-875q0 -162 105.5 -262t258.5 -100q154 0 259.5 100t105.5 262v875q0 29 19 49t48 20t48.5 -20t19.5 -49v-875q0 -147 -68.5 -262t-182 -175t-249.5 -60t-249.5 60t-182 175t-68.5 262z" />
<glyph unicode="V" horiz-adv-x="1089" d="M74 1339q-3 9 -3 19q0 18 10 34q15 26 42 29q8 1 15 1q49 0 65 -54l342 -1147l342 1147q17 54 65 54q7 0 15 -1q27 -3 42 -29q10 -17 10 -34q0 -9 -3 -19l-385 -1292q-8 -26 -29.5 -41.5t-52.5 -15.5h-6q-66 0 -82 57z" />
<glyph unicode="W" horiz-adv-x="1859" d="M72 1335q-3 10 -3 20q1 17 9 33q14 24 41 31q10 2 20 2q18 0 33 -8q23 -13 31 -41l383 -1159l284 979q10 41 58 41h4q47 0 57 -41l285 -979l383 1159q8 28 31 41q15 8 33 8q10 0 20 -2q27 -7 41 -31q8 -15 9 -33q0 -10 -3 -20l-434 -1282q-19 -63 -78 -63h-6 q-29 0 -50.5 17.5t-29.5 45.5l-260 893l-260 -893q-8 -28 -29.5 -45.5t-50.5 -17.5h-6q-59 0 -78 63z" />
<glyph unicode="X" horiz-adv-x="1163" d="M60 42q-1 8 -1 15q0 21 11 39l430 664l-373 555q-15 25 -9.5 53t29.5 43q17 10 34 10q9 -1 19 -3q28 -8 42 -32l340 -509l340 509q15 24 42 32q9 2 18 3q18 0 34 -10q24 -15 29.5 -43t-9.5 -53l-372 -555l430 -664q11 -18 11 -38q0 -8 -2 -17q-6 -30 -30 -43 q-16 -8 -33 -8q-10 0 -19 2q-27 8 -42 33l-397 620l-398 -620q-15 -25 -42 -33q-10 -3 -19 -2q-17 0 -33 8q-24 14 -30 44z" />
<glyph unicode="Y" horiz-adv-x="1193" d="M50 1368q5 26 30 41q18 13 38 13q7 0 14 -2q27 -6 42 -31l422 -586l426 586q15 25 42 31q7 2 14 2q20 0 38 -13q25 -15 30 -41v-11q0 -20 -13 -40l-469 -662v-596q0 -29 -19.5 -49t-48.5 -20t-48.5 20t-19.5 49v596l-465 662q-13 20 -13 40v11z" />
<glyph unicode="Z" horiz-adv-x="1144" d="M68 70v6q0 14 5 29.5t8.5 22t15 24t12.5 18.5l774 1106h-705q-29 0 -49 19t-20 48t20 48.5t49 19.5h813q33 0 51.5 -19t18.5 -46v-7q0 -40 -37 -98l-776 -1106h739q30 0 50 -19t20 -48t-20.5 -48.5t-49.5 -19.5h-846q-33 0 -53 21.5t-20 48.5z" />
<glyph unicode="[" horiz-adv-x="606" d="M184 -393v1734q0 28 21 49t49 21h205q30 0 50.5 -20t20.5 -50q0 -29 -20.5 -48t-50.5 -19h-137v-1600h137q30 0 50.5 -19.5t20.5 -49.5q0 -29 -20.5 -48.5t-50.5 -19.5h-205q-28 0 -49 21t-21 49z" />
<glyph unicode="\" horiz-adv-x="913" d="M79 1379q8 26 32 36q25 11 48.5 3t35.5 -32l636 -1304q11 -24 3.5 -50t-31.5 -36q-25 -11 -48.5 -3t-35.5 32l-637 1304q-11 24 -3 50z" />
<glyph unicode="]" horiz-adv-x="606" d="M74 -395q0 30 20.5 49.5t50.5 19.5h138v1600h-138q-30 0 -50.5 19t-20.5 48q0 30 20.5 50t50.5 20h205q28 0 49 -21t21 -49v-1734q0 -28 -21 -49t-49 -21h-205q-30 0 -50.5 19.5t-20.5 48.5z" />
<glyph unicode="_" horiz-adv-x="1429" d="M135 -184q0 27 19 45t47 18h1030q28 0 46.5 -17.5t18.5 -45.5t-18.5 -47t-46.5 -19h-1030q-28 0 -47 19t-19 47z" />
<glyph unicode="`" horiz-adv-x="937" d="M295 1366q0 19 30.5 32t65.5 13q42 0 62 -41l104 -194q10 -20 10 -31q0 -33 -39 -33q-57 0 -88 43l-125 160q-20 27 -20 51z" />
<glyph unicode="a" horiz-adv-x="1247" d="M100 481q0 222 140.5 359t349.5 137q111 0 209.5 -45.5t150.5 -132.5v98q0 29 19.5 49.5t48.5 20.5t48 -20t19 -50v-838q0 -29 -19 -49t-48 -20t-48.5 20t-19.5 49v105q-52 -87 -151.5 -135.5t-208.5 -48.5q-208 0 -349 139t-141 362zM238 481q0 -158 101 -261t251 -103 q153 0 256.5 97t103.5 267q0 85 -32 155t-84 113.5t-115 67t-129 23.5q-152 0 -252 -99t-100 -260z" />
<glyph unicode="b" horiz-adv-x="1249" d="M164 59v1356q0 30 19 50t48 20t48.5 -20.5t19.5 -49.5v-616q52 87 150.5 132.5t209.5 45.5q209 0 349.5 -137t140.5 -359q0 -223 -141 -362t-349 -139q-109 0 -208.5 48.5t-151.5 135.5v-105q0 -29 -19.5 -49t-48.5 -20t-48 20t-19 49zM299 481q0 -170 103.5 -267 t256.5 -97q151 0 252 103t101 261q0 161 -100.5 260t-252.5 99q-66 0 -129 -23.5t-115 -67t-84 -113.5t-32 -155z" />
<glyph unicode="c" horiz-adv-x="1009" d="M100 479q0 147 68.5 262t182 175.5t249.5 60.5q160 0 291 -88q25 -15 31 -42q2 -7 2 -14q0 -20 -13 -38q-17 -24 -44.5 -28.5t-51.5 9.5q-112 66 -215 66q-153 0 -258.5 -100.5t-105.5 -262.5t105.5 -263t258.5 -101q104 0 215 65q24 14 51.5 10t44.5 -28q13 -18 13 -38 q0 -7 -2 -14q-6 -27 -31 -42q-131 -88 -291 -88q-136 0 -249.5 60.5t-182 176t-68.5 262.5z" />
<glyph unicode="d" horiz-adv-x="1249" d="M100 481q0 222 140.5 359t349.5 137q111 0 209.5 -45.5t150.5 -132.5v616q0 29 19.5 49.5t48.5 20.5t48 -20t19 -50v-1356q0 -29 -19 -49t-48 -20t-48.5 20t-19.5 49v105q-52 -87 -151.5 -135.5t-208.5 -48.5q-208 0 -349 139t-141 362zM238 481q0 -158 101 -261 t251 -103q153 0 256.5 97t103.5 267q0 85 -32 155t-84 113.5t-115 67t-129 23.5q-152 0 -252 -99t-100 -260z" />
<glyph unicode="e" d="M102 481q0 223 138 359.5t346 136.5q207 0 338 -135.5t131 -360.5q0 -27 -19 -45t-45 -18h-749q19 -138 114 -220.5t230 -82.5q94 0 158.5 33t119.5 98q20 25 44 32.5t50 -8.5q25 -15 30.5 -42t-9.5 -52q-64 -93 -167.5 -144.5t-225.5 -51.5q-136 0 -245.5 61.5 t-174 176.5t-64.5 263zM242 545h673q-20 137 -108.5 217t-220.5 80q-135 0 -229.5 -81t-114.5 -216z" />
<glyph unicode="f" horiz-adv-x="647" d="M37 895q0 27 17 44t44 17h138v111q0 408 331 408h47q28 0 47 -18.5t19 -47.5q0 -27 -19 -45t-47 -18h-47q-52 0 -90 -17.5t-58.5 -43.5t-31.5 -66t-14 -73q-2 -26 -2 -57v-22v-111h184q27 0 44 -17t17 -44t-17 -44t-44 -17h-184v-775q0 -29 -19.5 -49t-48.5 -20t-48 20 t-19 49v775h-138q-27 0 -44 17t-17 44z" />
<glyph unicode="g" horiz-adv-x="1249" d="M100 475q0 223 141 362.5t349 139.5q109 0 208.5 -48.5t151.5 -135.5v104q0 29 19.5 49.5t48.5 20.5t48 -20t19 -50v-741q0 -172 -36.5 -295.5t-106 -195.5t-160 -105t-207.5 -33q-112 0 -212 45.5t-164 140.5q-17 25 -11 52t31 42q26 16 51 9t43 -31q100 -123 262 -123 q69 0 124.5 16t103.5 53.5t80 96t50 146.5q17 84 17 192v12q-46 -90 -148.5 -144t-211.5 -54q-209 0 -349.5 136.5t-140.5 358.5zM238 475q0 -161 100 -259.5t252 -98.5q66 0 129 23.5t115 66.5t84 113t32 155q0 170 -103.5 267.5t-256.5 97.5q-150 0 -251 -103t-101 -262z " />
<glyph unicode="h" horiz-adv-x="1140" d="M166 59v1356q0 30 19 50t48 20t48.5 -20.5t19.5 -49.5v-616q41 87 132.5 132.5t184.5 45.5q174 0 272 -112q97 -110 97 -300v-8v-498q0 -29 -19 -49t-48 -20t-48.5 20t-19.5 49v498q0 133 -62 209t-172 76q-60 0 -114 -18t-101 -54t-74.5 -100t-27.5 -148v-463 q0 -29 -19.5 -49t-48.5 -20t-48 20t-19 49z" />
<glyph unicode="i" horiz-adv-x="458" d="M127 1313q0 42 30.5 70t73.5 28t74 -28t31 -70t-31 -70.5t-74 -28.5t-73.5 28.5t-30.5 70.5zM162 59q0 -29 19 -49t48 -20t48.5 20t19.5 49v838q0 29 -19.5 49.5t-48.5 20.5t-48 -20t-19 -50v-838z" />
<glyph unicode="j" horiz-adv-x="462" d="M-145 -397q0 27 19 46t46 19h47q52 0 90 17.5t58.5 43t32 65t14.5 73.5q2 25 2 57v21v952q0 30 19 50t48 20t48.5 -20.5t19.5 -49.5v-952q0 -408 -332 -408h-47q-26 0 -45.5 19.5t-19.5 46.5zM129 1313q0 42 30.5 70t73.5 28t74 -28t31 -70t-31 -70.5t-74 -28.5 t-73.5 28.5t-30.5 70.5z" />
<glyph unicode="k" horiz-adv-x="940" d="M166 59v1356q0 30 19 50t48 20t48.5 -20.5t19.5 -49.5v-837l371 368q26 28 53 28q21 0 43 -18q23 -19 25.5 -46.5t-17.5 -49.5l-313 -313l418 -441q19 -19 19 -48.5t-21 -47.5q-22 -21 -49 -19.5t-48 23.5l-481 508v-463q0 -29 -19.5 -49t-48.5 -20t-48 20t-19 49z" />
<glyph unicode="l" horiz-adv-x="466" d="M166 59v1356q0 30 19 50t48 20t48.5 -20.5t19.5 -49.5v-1356q0 -29 -19.5 -49t-48.5 -20t-48 20t-19 49z" />
<glyph unicode="m" horiz-adv-x="1822" d="M164 59v838q0 30 18 50t47 20t48.5 -20.5t19.5 -49.5v-98q27 58 88.5 100.5t120.5 60t108 17.5q120 0 205 -54t127 -155q30 64 76.5 108t98 64.5t94 28.5t85.5 8q174 0 272 -112q97 -110 97 -300v-8v-498q0 -29 -19 -49t-48 -20t-48.5 20t-19.5 49v498q0 133 -62 209 t-172 76q-60 0 -114 -18t-101 -54t-74.5 -100t-27.5 -148v-463q0 -29 -19.5 -49t-48.5 -20t-48 20t-19 49v498q0 133 -62 209t-172 76q-60 0 -114 -18t-101 -54t-74.5 -100t-27.5 -148v-463q0 -29 -19.5 -49t-48.5 -20t-47 19.5t-18 49.5z" />
<glyph unicode="n" horiz-adv-x="1138" d="M164 59v838q0 30 19 50t48 20t48.5 -20.5t19.5 -49.5v-98q41 87 132.5 132.5t184.5 45.5q174 0 272 -112q97 -110 97 -300v-8v-498q0 -29 -19 -49t-48 -20t-48.5 20t-19.5 49v498q0 133 -62 209t-172 76q-60 0 -114 -18t-101 -54t-74.5 -100t-27.5 -148v-463 q0 -29 -19.5 -49t-48.5 -20t-48 20t-19 49z" />
<glyph unicode="o" horiz-adv-x="1200" d="M100 481q0 147 68.5 261.5t181.5 174.5t250 60t250 -60t181.5 -174.5t68.5 -261.5t-68.5 -263t-182 -177t-249.5 -61t-249.5 61t-182 177t-68.5 263zM236 481q0 -162 105.5 -264t258.5 -102t259 102t106 264t-105.5 261.5t-259.5 99.5t-259 -99.5t-105 -261.5z" />
<glyph unicode="p" horiz-adv-x="1251" d="M166 -403v1300q0 30 19 50t48 20t48.5 -20.5t19.5 -49.5v-106q52 88 152 137t209 49q208 0 348.5 -140.5t140.5 -363.5q0 -222 -140 -357.5t-349 -135.5q-111 0 -210.5 45t-150.5 131v-559q0 -29 -19.5 -49.5t-48.5 -20.5t-48 20t-19 50zM301 473q0 -85 32 -154.5 t84.5 -112.5t115.5 -66t129 -23q152 0 252 97.5t100 258.5q0 159 -101 263t-251 104q-153 0 -257 -98t-104 -269z" />
<glyph unicode="q" horiz-adv-x="1251" d="M100 473q0 223 141 363.5t349 140.5q109 0 208.5 -49t151.5 -137v106q0 29 19.5 49.5t48.5 20.5t48 -20t19 -50v-1300q0 -30 -19 -50t-48 -20t-48.5 20.5t-19.5 49.5v559q-51 -86 -150 -131t-210 -45q-209 0 -349.5 135.5t-140.5 357.5zM238 473q0 -161 100 -258.5 t252 -97.5q66 0 129 23t115 66t84 112.5t32 154.5q0 171 -103.5 269t-256.5 98q-150 0 -251 -104t-101 -263z" />
<glyph unicode="r" horiz-adv-x="761" d="M164 59v838q0 30 19 50t48 20t48.5 -20.5t19.5 -49.5v-158q35 122 102 180t172 58q62 0 117 -19q28 -10 40 -34q7 -14 7 -29q0 -11 -4 -23q-8 -26 -33 -36t-55 -5q-61 9 -72 9q-71 0 -125 -39.5t-85.5 -108t-47.5 -153.5t-16 -183v-297q0 -29 -19.5 -49t-48.5 -20t-48 20 t-19 49z" />
<glyph unicode="s" horiz-adv-x="860" d="M98 203q-2 10 -2 19q0 17 8 32q13 23 39 29q27 6 48 -9t30 -43q50 -122 211 -122q92 0 147.5 41.5t55.5 109.5q0 51 -33 90.5t-104 57.5l-133 30q-42 10 -74 22t-69 36t-59.5 56t-34.5 83q-8 32 -8 70q0 22 3 45q15 101 103.5 164t207.5 63q98 0 173.5 -42.5 t109.5 -129.5q9 -26 -4 -51.5t-41 -32.5q-31 -8 -49.5 5t-34.5 42q-44 78 -154 78q-69 0 -120 -33t-58 -84q-6 -32 1 -58t20 -42t35.5 -29t41.5 -19t43 -12l131 -30q242 -58 242 -279q0 -123 -99.5 -201.5t-250.5 -78.5q-108 0 -199.5 60.5t-122.5 162.5z" />
<glyph unicode="t" horiz-adv-x="608" d="M41 895q0 26 18.5 43.5t44.5 17.5h121v299q0 29 19.5 49.5t48.5 20.5t48 -20t19 -50v-299h150q26 0 44.5 -17.5t18.5 -43.5t-18.5 -43.5t-44.5 -17.5h-150v-775q0 -29 -19 -49t-48 -20t-48.5 20t-19.5 49v775h-121q-26 0 -44.5 17.5t-18.5 43.5z" />
<glyph unicode="u" d="M154 399v498q0 30 19 50t48 20t48.5 -20.5t19.5 -49.5v-498q0 -133 61.5 -208.5t171.5 -75.5q60 0 114.5 17.5t101 54t74.5 100t28 147.5v463q0 30 19 50t48 20t48.5 -20.5t19.5 -49.5v-838q0 -29 -19.5 -49t-48.5 -20t-48 20t-19 49v99q-41 -87 -132.5 -132.5 t-185.5 -45.5q-174 0 -272 112q-96 109 -96 299v8z" />
<glyph unicode="v" horiz-adv-x="1011" d="M70 926q10 28 36 37q13 4 25 4q15 1 29 -5q26 -10 35 -38l311 -764l311 764q10 28 35 38q13 6 28 5q12 0 25 -4q26 -9 36 -37q5 -13 5 -26q0 -14 -6 -28l-336 -809q-29 -73 -94 -73h-8q-65 0 -94 73l-336 809q-6 14 -6 28q0 13 4 26z" />
<glyph unicode="w" horiz-adv-x="1626" d="M72 879q-4 12 -4 23q0 16 8 31q12 26 39 32q29 6 52 -6.5t32 -40.5l264 -701l252 680q27 70 92 70h10q63 0 90 -70l254 -680l262 701q9 28 32 40.5t52 6.5q27 -6 39 -32q7 -15 8 -31q0 -11 -4 -23l-309 -830q-21 -59 -76 -59h-4q-53 0 -74 59l-276 719l-268 -719 q-21 -59 -74 -59h-4q-55 0 -76 59z" />
<glyph unicode="x" horiz-adv-x="931" d="M58 44q-1 5 -1 10q0 23 15 42l311 430l-240 332q-18 25 -13.5 53t28.5 43q18 12 39 12q7 0 13 -1q28 -5 44 -29l211 -295l213 295q16 24 44 29q7 1 13 1q20 0 39 -12q24 -15 28 -43.5t-14 -52.5l-239 -332l311 -430q15 -20 15 -42q0 -4 -1 -10q-4 -28 -28 -44 q-17 -10 -36 -10q-6 0 -14 1q-28 5 -46 29l-285 392l-285 -392q-17 -24 -44 -29q-7 -1 -14 -1q-19 0 -36 10q-24 16 -28 44z" />
<glyph unicode="y" horiz-adv-x="1013" d="M72 877q-4 12 -4 24q0 15 8 31q13 27 41 33q10 2 19 2q45 0 67 -56l303 -733l307 733q22 56 67 56q9 0 19 -2q27 -6 41 -33q8 -16 8 -33q0 -11 -4 -22l-545 -1303q-10 -28 -34 -40q-15 -8 -31 -8q-10 0 -21 3q-27 7 -38.5 34.5t-0.5 55.5l158 383z" />
<glyph unicode="z" horiz-adv-x="1017" d="M74 68v2q0 39 35 77l614 674h-541q-29 0 -49 19.5t-20 48.5t20 48t49 19h666q34 0 57 -19.5t23 -47.5v-2q0 -40 -35 -78l-621 -674h586q30 0 50 -19t20 -48t-20.5 -48.5t-49.5 -19.5h-704q-33 0 -56.5 20t-23.5 48z" />
<glyph unicode="{" horiz-adv-x="751" d="M78 481q0 61 65 64q35 0 55.5 32t20.5 68v387q-1 177 115 286t284 109h7q27 0 45 -18t18 -45q0 -26 -18.5 -43.5t-44.5 -17.5h-7q-110 0 -187 -76.5t-77 -194.5v-387q0 -52 -36 -102.5t-111 -61.5q73 -11 110 -63.5t37 -102.5v-383q0 -118 77 -194t187 -76h7q27 0 45 -18 t18 -45q0 -26 -18.5 -44t-44.5 -18h-7q-168 0 -283.5 109t-115.5 286v383q0 36 -20.5 68.5t-55.5 32.5q-65 5 -65 65z" />
<glyph unicode="|" horiz-adv-x="487" d="M186 -203v1776q0 26 17.5 41.5t40.5 15.5t40 -15.5t17 -41.5v-1776q0 -26 -17 -41.5t-40 -15.5t-40.5 15.5t-17.5 41.5z" />
<glyph unicode="}" horiz-adv-x="753" d="M63 -401q0 27 18.5 45t45.5 18h6q110 0 187 76t77 194v383q0 50 37.5 102.5t110.5 63.5q-75 11 -111.5 61.5t-36.5 102.5v387q0 118 -77 194.5t-187 76.5h-6q-27 0 -45.5 17.5t-18.5 43.5q0 27 18.5 45t45.5 18h6q168 0 284 -109t115 -286v-387q0 -36 20.5 -68t55.5 -32 q66 -3 66 -64q0 -60 -66 -65q-35 0 -55.5 -32.5t-20.5 -68.5v-383q0 -177 -115.5 -286t-283.5 -109h-6q-26 0 -45 18t-19 44z" />
<glyph unicode="&#xa1;" horiz-adv-x="466" d="M121 860q0 45 33 76t79 31t79.5 -31t33.5 -76t-33.5 -75.5t-79.5 -30.5t-79 30.5t-33 75.5zM166 -403q0 -30 19 -50t48 -20t48.5 20.5t19.5 49.5l-12 925q0 25 -15.5 41.5t-40.5 16.5q-24 0 -39.5 -16.5t-15.5 -41.5z" />
<glyph unicode="&#xa2;" horiz-adv-x="1042" d="M96 479q0 200 120 333t304 159v166q0 26 17.5 41.5t40.5 15.5t40 -15.5t17 -41.5v-162q134 -9 252 -86q25 -15 31 -42t-11 -52q-17 -24 -44.5 -28.5t-51.5 9.5q-112 66 -215 66q-153 0 -259 -100.5t-106 -262.5t106 -263t259 -101q104 0 215 65q24 14 51.5 10t44.5 -28 q17 -25 11 -52t-31 -42q-113 -77 -252 -86v-185q0 -26 -17 -41.5t-40 -15.5t-40.5 15.5t-17.5 41.5v189q-183 24 -303.5 158t-120.5 335z" />
<glyph unicode="&#xa3;" horiz-adv-x="1294" d="M86 68q0 29 20 48t48 19h143v430h-115q-26 0 -43.5 17.5t-17.5 44.5t17 44t44 17h115v354q0 117 59 209t153.5 139.5t203.5 47.5q149 0 259.5 -89t133.5 -237q5 -29 -11.5 -52.5t-47.5 -29.5q-26 -5 -47 11.5t-27 50.5q-15 96 -88 153.5t-172 57.5q-113 0 -197 -73 t-84 -188v-354h281q27 0 44 -17t17 -44t-17 -44.5t-44 -17.5h-281v-430h584q19 0 31 14.5t12 36.5v64q0 29 19 48t48 19t48.5 -19t19.5 -48v-64q0 -79 -52 -132.5t-126 -53.5h-862q-28 0 -48 19.5t-20 48.5z" />
<glyph unicode="&#xa4;" horiz-adv-x="1224" d="M159 1111.5q2 20.5 17 37.5q16 14 37 15t39 -15l123 -125q107 80 237 80q131 0 238 -80l123 125q18 16 39 15t37 -15q15 -17 17 -37.5t-15 -42.5l-123 -125q80 -108 80 -235q0 -134 -80 -238l121 -123q18 -23 16 -43t-18 -37q-16 -14 -37 -15t-39 15l-123 123 q-105 -78 -236 -78q-130 0 -235 78l-123 -123q-18 -16 -39 -15t-37 15q-16 17 -18 37t16 43l121 123q-80 104 -80 238q0 127 80 235l-123 125q-17 22 -15 42.5zM342 709q0 -113 79 -192t191 -79t191.5 79t79.5 192q0 112 -79 191t-192 79q-112 0 -191 -78.5t-79 -191.5z" />
<glyph unicode="&#xa5;" horiz-adv-x="1243" d="M75 1368q4 26 29 41q25 17 52.5 11t42.5 -31l422 -586l426 586q15 25 42 31t52 -11q25 -15 29 -41t-13 -51l-469 -662v-92h273q24 0 39.5 -15.5t15.5 -39.5q0 -23 -16 -38t-39 -15h-273v-129h273q23 0 39 -16t16 -40q0 -23 -16 -38t-39 -15h-273v-158q0 -29 -19 -49 t-48 -20t-48.5 20t-19.5 49v158h-274q-24 0 -40 15t-16 38q0 24 16 40t40 16h274v129h-274q-24 0 -40 15t-16 38q0 24 16 39.5t40 15.5h274v92l-465 662q-17 25 -13 51z" />
<glyph unicode="&#xa6;" horiz-adv-x="479" d="M182 -205v678q0 26 17.5 41.5t40.5 15.5t40 -15.5t17 -41.5v-678q0 -26 -17 -41.5t-40 -15.5t-40.5 15.5t-17.5 41.5zM182 895v678q0 26 17.5 41.5t40.5 15.5t40 -15.5t17 -41.5v-678q0 -26 -17 -41.5t-40 -15.5t-40.5 15.5t-17.5 41.5z" />
<glyph unicode="&#xa7;" horiz-adv-x="1048" d="M125 760v272q0 177 115.5 286t283.5 109q112 0 205 -48.5t139 -137.5q14 -26 6 -52.5t-34 -39.5q-27 -13 -50.5 -4.5t-41.5 35.5q-35 53 -94.5 82.5t-129.5 29.5q-111 0 -187.5 -71.5t-76.5 -188.5v-272q0 -117 76.5 -187.5t187.5 -70.5q63 0 109 14q28 9 50.5 -2 t31.5 -39q8 -25 -4.5 -51t-38.5 -33q-70 -24 -148 -24q-168 0 -283.5 108t-115.5 285zM174.5 83.5q8.5 26.5 34.5 39.5q27 13 50.5 4.5t41.5 -35.5q35 -53 94 -82.5t129 -29.5q111 0 187.5 71.5t76.5 188.5v272q0 117 -76.5 187.5t-187.5 70.5q-62 0 -108 -14 q-28 -9 -50.5 2t-31.5 39q-8 25 4.5 51t38.5 33q71 24 147 24q109 0 199.5 -47t145.5 -137.5t55 -208.5v-272q0 -177 -116 -286.5t-284 -109.5q-111 0 -204.5 49t-139.5 138q-14 26 -5.5 52.5z" />
<glyph unicode="&#xa8;" horiz-adv-x="1062" d="M246 1251q0 42 30.5 70.5t73.5 28.5t74 -28.5t31 -70.5t-31 -70t-74 -28t-73.5 28t-30.5 70zM608 1251q0 42 31 70.5t74 28.5t73.5 -28.5t30.5 -70.5t-30.5 -70t-73.5 -28t-74 28t-31 70z" />
<glyph unicode="&#xa9;" horiz-adv-x="1665" d="M117 702q0 197 94.5 363.5t259 264t360.5 97.5q147 0 280 -57.5t228.5 -155t152 -231.5t56.5 -281q0 -196 -95.5 -362.5t-260.5 -263t-361 -96.5q-147 0 -279.5 57t-227.5 154t-151 230.5t-56 280.5zM231 702q0 -166 79.5 -305t217.5 -220t303 -81t303.5 81t218 220 t79.5 305q0 124 -47 236.5t-127 194.5t-191.5 130t-235.5 48q-165 0 -303 -81.5t-217.5 -221.5t-79.5 -306zM498 696q0 -154 98.5 -259t247.5 -105q137 0 231 82q14 12 15.5 33t-11.5 36q-11 13 -32.5 13.5t-34.5 -9.5q-79 -59 -168 -59q-108 0 -179 77.5t-71 190.5 q0 114 71 191.5t179 77.5q87 0 168 -60q14 -11 34.5 -11t32.5 13q13 15 12 36.5t-16 35.5q-101 82 -231 82q-149 0 -247.5 -106t-98.5 -259z" />
<glyph unicode="&#xaa;" horiz-adv-x="960" d="M147 1030q0 146 92 236t230 90q160 0 225 -101v41q0 23 13.5 38.5t33.5 15.5q23 0 37.5 -15.5t14.5 -38.5v-536q0 -23 -14.5 -37t-37.5 -14q-21 0 -34 14t-13 37v45q-37 -48 -98.5 -75.5t-126.5 -27.5q-138 0 -230 90.5t-92 237.5zM170 535q0 22 14.5 35.5t36.5 13.5h520 q22 0 37 -14t15 -35q0 -23 -15 -38.5t-37 -15.5h-520q-22 0 -36.5 15.5t-14.5 38.5zM250 1030q0 -99 62.5 -163t156.5 -64t159.5 61t65.5 166q0 104 -68 163.5t-157 59.5q-95 0 -157 -61t-62 -162z" />
<glyph unicode="&#xab;" horiz-adv-x="923" d="M104 479q0 9 3 18t6 14t10 16.5t10 15.5l227 338q12 22 37.5 28t48.5 -6q22 -14 30 -39t-5 -49l-231 -336l231 -336q13 -24 5 -49t-30 -39q-23 -12 -48.5 -5.5t-37.5 28.5l-227 338q-3 5 -10 15.5t-10 16t-6 14t-3 17.5zM424 479q0 9 3 18t6 14t10 16.5t10 15.5l227 338 q12 22 37.5 28t48.5 -6q22 -14 30 -39t-5 -49l-232 -336l232 -336q13 -24 5 -49t-30 -39q-23 -12 -48.5 -5.5t-37.5 28.5l-227 338q-3 5 -10 15.5t-10 16t-6 14t-3 17.5z" />
<glyph unicode="&#xac;" horiz-adv-x="1329" d="M156 657q0 28 18.5 46t46.5 18h885q27 0 45 -19t18 -47v-342q0 -28 -17.5 -46.5t-45.5 -18.5t-47 18.5t-19 46.5v279h-819q-28 0 -46.5 18.5t-18.5 46.5z" />
<glyph unicode="&#xad;" horiz-adv-x="1013" d="M147 479q0 28 19 46t47 18h588q28 0 46.5 -18t18.5 -46t-18.5 -46.5t-46.5 -18.5h-588q-28 0 -47 18.5t-19 46.5z" />
<glyph unicode="&#xae;" horiz-adv-x="1665" d="M117 702q0 197 94.5 363.5t259 264t360.5 97.5q147 0 280 -57.5t228.5 -155t152 -231.5t56.5 -281q0 -196 -95.5 -362.5t-260.5 -263t-361 -96.5q-147 0 -279.5 57t-227.5 154t-151 230.5t-56 280.5zM231 702q0 -166 79.5 -305t217.5 -220t303 -81t303.5 81t218 220 t79.5 305q0 124 -47 236.5t-127 194.5t-191.5 130t-235.5 48q-165 0 -303 -81.5t-217.5 -221.5t-79.5 -306zM612 385q0 -21 13.5 -36t33.5 -15q23 0 37.5 15t14.5 36v221h88l178 -252q11 -15 30 -18.5t40 8.5q18 10 20.5 32.5t-10.5 37.5l-137 194q165 18 165 221 q0 96 -49 161t-153 65h-221q-19 0 -34.5 -15.5t-15.5 -35.5v-619zM711 702v254h172q54 0 80 -37t26 -90q0 -55 -26.5 -91t-85.5 -36h-166z" />
<glyph unicode="&#xaf;" horiz-adv-x="978" d="M236 1253q0 28 19.5 47t47.5 19h373q28 0 47.5 -19t19.5 -47q0 -29 -19.5 -47t-47.5 -18h-373q-28 0 -47.5 18t-19.5 47z" />
<glyph unicode="&#xb0;" horiz-adv-x="741" d="M115 1171q0 106 75 181t181 75t181 -75t75 -181t-75 -181t-181 -75t-181 75t-75 181zM219 1171q0 -63 44.5 -107t107.5 -44t107 44t44 107t-44 107.5t-107 44.5t-107.5 -44.5t-44.5 -107.5z" />
<glyph unicode="&#xb1;" horiz-adv-x="1124" d="M133 625q0 28 19.5 46.5t48.5 18.5h295v254q0 29 18.5 48.5t46.5 19.5t47 -19.5t19 -48.5v-254h295q29 0 48 -18.5t19 -46.5t-19 -47t-48 -19h-295v-254q0 -29 -19 -48t-47 -19t-46.5 19t-18.5 48v254h-295q-29 0 -48.5 19t-19.5 47zM135 66q0 27 19 45t47 18h723 q28 0 46.5 -17.5t18.5 -45.5t-18.5 -47t-46.5 -19h-723q-28 0 -47 19t-19 47z" />
<glyph unicode="&#xb2;" horiz-adv-x="653" d="M76 1571q26 75 90 117.5t149 42.5q106 0 179 -67t73 -171q0 -103 -88 -205q-36 -41 -105 -124t-108 -128h252q23 0 40 -17t17 -40q0 -24 -16.5 -39.5t-40.5 -15.5h-397q-20 0 -30.5 11.5t-10.5 27.5q0 17 14 34l305 369q58 68 58 127q0 57 -41 91t-101 34 q-47 0 -85 -22.5t-50 -61.5q-6 -22 -26 -31t-45 -2q-21 6 -31 27t-2 43z" />
<glyph unicode="&#xb3;" horiz-adv-x="651" d="M66 1074.5q4 25.5 24 35.5q48 28 78 -18q17 -26 50 -43.5t73 -20.5q67 -5 117 31.5t51 97.5q3 63 -41.5 102t-110.5 39h-47q-22 0 -37.5 15t-15.5 39q0 23 15.5 38t37.5 15h47q51 0 85.5 31t37.5 77q2 45 -29.5 76.5t-87.5 32.5q-74 0 -116 -39q-41 -36 -72 -14 q-20 14 -24 36.5t12 43.5q77 92 206 86q113 -7 172.5 -75.5t51.5 -162.5q-3 -40 -31 -79t-72 -60q60 -18 98 -84t33 -131q-6 -106 -91.5 -169.5t-198.5 -55.5q-129 9 -205 112q-14 19 -10 44.5z" />
<glyph unicode="&#xb4;" horiz-adv-x="937" d="M295 1145q0 11 10 31l105 194q20 41 61 41q35 0 65.5 -13t30.5 -32q0 -24 -20 -51l-125 -160q-31 -43 -88 -43q-39 0 -39 33z" />
<glyph unicode="&#xb5;" horiz-adv-x="1181" d="M182 -274v653v518q0 29 19.5 49.5t48.5 20.5t48 -20t19 -50v-512q3 -126 65 -198t169 -72q60 0 114 17.5t101 54t74.5 100t27.5 147.5v463q0 29 19.5 49.5t48.5 20.5t48.5 -20.5t19.5 -49.5v-838q0 -29 -19.5 -49t-48.5 -20t-48.5 20t-19.5 49v99q-41 -87 -132.5 -132.5 t-184.5 -45.5q-142 0 -234 73v-327q0 -30 -19 -50t-48 -20t-48.5 20.5t-19.5 49.5z" />
<glyph unicode="&#xb6;" horiz-adv-x="1251" d="M78 969q0 183 129 312.5t313 129.5h94q17 0 29 -12t12 -29v-1431q0 -30 -19 -50t-48 -20t-48.5 20.5t-19.5 49.5v587q-184 0 -313 129t-129 314zM510 -301q0 26 18.5 43.5t44.5 17.5h60q59 0 98 37.5t39 126.5v1446q0 17 12 29t29 12h94q113 0 193 -80t80 -192v-103 q0 -29 -19.5 -49t-48.5 -20t-48.5 20t-19.5 49v103q0 57 -40 97t-97 40v-1364q0 -77 -23 -132t-63.5 -84t-85.5 -42.5t-100 -15.5h-60q-26 0 -44.5 17.5t-18.5 43.5z" />
<glyph unicode="&#xb7;" horiz-adv-x="520" d="M147 539q0 45 33.5 75.5t79.5 30.5t79.5 -30.5t33.5 -75.5t-33.5 -76t-79.5 -31t-79.5 31t-33.5 76z" />
<glyph unicode="&#xb8;" horiz-adv-x="1054" d="M333 -234q10 22 36 31q24 9 44 -1.5t31 -37.5q16 -34 48.5 -51t66.5 -4q33 15 45.5 48t1.5 67l-71 241h94l82 -194q16 -43 16 -86q0 -60 -33 -110.5t-92 -74.5q-35 -14 -76 -14q-58 0 -106.5 33.5t-79.5 93.5l-6 12q-11 25 -1 47z" />
<glyph unicode="&#xb9;" horiz-adv-x="409" d="M53 1589q-6 20 3.5 38t27.5 24l141 51q10 4 27 4q20 0 32.5 -12.5t12.5 -32.5v-686q0 -24 -15.5 -40.5t-39.5 -16.5q-23 0 -40.5 17t-17.5 40v606l-67 -25q-21 -8 -40.5 2t-23.5 31z" />
<glyph unicode="&#xba;" horiz-adv-x="948" d="M150 1030q0 146 91.5 236t229.5 90t230 -90t92 -236q0 -147 -92 -237.5t-230 -90.5t-229.5 90.5t-91.5 237.5zM166 535q0 -23 14.5 -38.5t36.5 -15.5h520q22 0 36.5 15.5t14.5 38.5q0 22 -14.5 35.5t-36.5 13.5h-520q-22 0 -36.5 -13.5t-14.5 -35.5zM252 1030 q0 -99 62.5 -163t156.5 -64t156.5 64t62.5 163q0 101 -62 162t-157 61t-157 -61t-62 -162z" />
<glyph unicode="&#xbb;" horiz-adv-x="921" d="M126 94q-8 25 5 49l231 336l-231 336q-13 24 -5 49t30 39q23 12 48.5 6t37.5 -28l227 -338q3 -4 10 -15.5t10 -16.5t6 -14t3 -18t-3 -17.5t-6 -14t-10 -16t-10 -15.5l-227 -338q-12 -22 -37.5 -28.5t-48.5 5.5q-22 14 -30 39zM445.5 94q-7.5 25 5.5 49l231 336l-231 336 q-13 24 -5.5 49t29.5 39q23 12 48.5 6t37.5 -28l227 -338q3 -4 10 -15.5t10 -16.5t6 -14t3 -18t-3 -17.5t-6 -14t-10 -16t-10 -15.5l-227 -338q-12 -22 -37.5 -28.5t-48.5 5.5q-22 14 -29.5 39z" />
<glyph unicode="&#xbc;" horiz-adv-x="1519" d="M90 1235q-6 20 3.5 37.5t27.5 23.5l141 52q10 4 27 4q20 0 32.5 -12.5t12.5 -32.5v-686q0 -24 -15.5 -41t-39.5 -17q-23 0 -40.5 17.5t-17.5 40.5v606l-67 -25q-21 -8 -40.5 2t-23.5 31zM207 15q-4 22 10 44l856 1303q13 21 36.5 26t41.5 -8q21 -13 24.5 -36t-10.5 -44 l-856 -1302q-13 -21 -35.5 -26t-42.5 8t-24 35zM844 205q0 19 16 43l367 524q19 27 47 27q21 0 35 -14t14 -35v-484h68q22 0 37.5 -15t15.5 -38t-15.5 -37t-37.5 -14h-68v-113q0 -24 -15.5 -39.5t-39.5 -15.5q-23 0 -39.5 16t-16.5 39v113h-321q-21 0 -34 11t-13 32z M991 266h221v314z" />
<glyph unicode="&#xbd;" horiz-adv-x="1525" d="M88 1235q-6 20 3.5 37.5t27.5 23.5l141 52q10 4 27 4q20 0 32.5 -12.5t12.5 -32.5v-686q0 -24 -16 -41t-40 -17q-23 0 -40 17.5t-17 40.5v606l-67 -25q-21 -8 -40.5 2t-23.5 31zM205 15q-4 22 10 44l856 1303q13 21 36.5 26t41.5 -8q21 -13 24.5 -36t-10.5 -44 l-856 -1302q-13 -21 -35.5 -26t-42.5 8t-24 35zM926 647q26 75 90 117.5t149 42.5q106 0 179 -67t73 -171q0 -102 -88 -204q-36 -41 -105 -123.5t-108 -128.5h252q23 0 40 -17.5t17 -40.5q0 -24 -16.5 -39.5t-40.5 -15.5h-397q-20 0 -30.5 11.5t-10.5 27.5q0 17 14 35 l305 368q58 68 58 127q0 57 -41 91t-101 34q-47 0 -85 -22.5t-50 -61.5q-6 -22 -26.5 -31t-45.5 -1q-21 6 -30.5 26.5t-1.5 42.5z" />
<glyph unicode="&#xbe;" horiz-adv-x="1705" d="M99 720.5q4 25.5 24 35.5q20 13 41.5 8.5t36.5 -27.5q17 -26 50 -43t73 -20q67 -5 117 31.5t51 97.5q3 63 -41.5 102t-110.5 39h-47q-22 0 -37.5 14.5t-15.5 38.5q0 23 15.5 38.5t37.5 15.5h47q51 0 85.5 31t37.5 77q2 45 -29.5 76.5t-87.5 32.5q-75 0 -117 -39 q-42 -36 -71 -15q-20 14 -24.5 36.5t11.5 43.5q77 92 207 86q113 -7 172 -75t51 -162q-3 -41 -31 -79.5t-71 -59.5q60 -18 98 -84.5t33 -131.5q-6 -106 -92 -169.5t-199 -55.5q-127 8 -204 113q-14 19 -10 44.5zM393.5 15q-4.5 22 9.5 44l857 1303q13 21 36 26t41 -8 q21 -13 25 -36t-10 -44l-856 -1302q-13 -21 -35.5 -26t-42.5 8t-24.5 35zM1030 205q0 18 17 43l366 524q19 27 47 27q21 0 35 -14t14 -35v-484h68q22 0 37.5 -15t15.5 -38t-15.5 -37t-37.5 -14h-68v-113q0 -24 -15.5 -39.5t-39.5 -15.5q-23 0 -39 16t-16 39v113h-322 q-21 0 -34 11t-13 32zM1178 266h221v314z" />
<glyph unicode="&#xbf;" horiz-adv-x="952" d="M70 -78q0 142 83 244t209 139q45 14 72 26t54 33t39 53t12 77v20q0 30 19 50t48 20t48.5 -20.5t19.5 -49.5v-20q0 -70 -19.5 -124t-58 -90.5t-84.5 -60.5t-109 -43q-84 -27 -141 -94.5t-57 -159.5q0 -115 83.5 -187.5t196.5 -72.5q99 0 172 57.5t88 153.5q5 29 27 46 t51 13q28 -5 44 -27.5t12 -51.5q-24 -149 -134 -237.5t-260 -88.5q-169 0 -292 110t-123 285zM494 860q0 45 33 76t79 31t79.5 -31t33.5 -76t-33.5 -75.5t-79.5 -30.5t-79 30.5t-33 75.5z" />
<glyph unicode="&#xc0;" horiz-adv-x="1251" d="M43 82q-11 -27 0.5 -52.5t38.5 -35.5t53 2t35 39l129 336h653l129 -336q9 -27 35 -39t53 -2t38.5 35.5t0.5 52.5l-489 1276q-23 63 -88 63h-10q-66 0 -89 -63zM348 498l279 725l278 -725h-557zM389 1782q0 19 30.5 32t65.5 13q42 0 62 -41l104 -195q11 -22 11 -30 q0 -33 -39 -33q-57 0 -88 43l-125 160q-21 28 -21 51z" />
<glyph unicode="&#xc1;" horiz-adv-x="1251" d="M43 82l489 1276q23 63 89 63h10q65 0 88 -63l489 -1276q11 -27 -0.5 -52.5t-38.5 -35.5t-53 2t-35 39l-129 336h-653l-129 -336q-9 -27 -35 -39t-53 -2t-38.5 35.5t-0.5 52.5zM348 498h557l-278 725zM578 1561q0 10 10 30l104 195q20 41 62 41q35 0 65.5 -13t30.5 -32 q0 -23 -21 -51l-124 -160q-31 -43 -89 -43q-38 0 -38 33z" />
<glyph unicode="&#xc2;" horiz-adv-x="1251" d="M43 82q-11 -27 0.5 -52.5t38.5 -35.5t53 2t35 39l129 336h653l129 -336q9 -27 35 -39t53 -2t38.5 35.5t0.5 52.5l-489 1276q-23 63 -88 63h-10q-66 0 -89 -63zM348 498l279 725l278 -725h-557zM371 1556q0 15 14 35l141 193q40 43 82 43h37q25 0 42.5 -10.5t37.5 -32.5 l143 -193q15 -17 15 -35q0 -28 -39 -28q-57 0 -92 37l-127 137l-129 -137q-21 -22 -39.5 -29.5t-48.5 -7.5q-17 0 -27 8t-10 20z" />
<glyph unicode="&#xc3;" horiz-adv-x="1251" d="M43 82l489 1276q23 63 89 63h10q65 0 88 -63l489 -1276q11 -27 -0.5 -52.5t-38.5 -35.5t-53 2t-35 39l-129 336h-653l-129 -336q-9 -27 -35 -39t-53 -2t-38.5 35.5t-0.5 52.5zM348 498h557l-278 725zM365 1604q17 88 62.5 125.5t104.5 37.5q39 0 73 -21.5t61.5 -43 t52.5 -21.5q18 0 36.5 12t26.5 36q14 43 58 40q24 -2 37 -16t10 -37q-17 -88 -63 -126t-105 -38q-38 0 -72 21.5t-62 43t-53 21.5q-18 0 -36.5 -11.5t-26.5 -35.5q-14 -44 -57 -41q-24 2 -37 16.5t-10 37.5z" />
<glyph unicode="&#xc4;" horiz-adv-x="1251" d="M43 82q-11 -27 0.5 -52.5t38.5 -35.5t53 2t35 39l129 336h653l129 -336q9 -27 35 -39t53 -2t38.5 35.5t0.5 52.5l-489 1276q-23 63 -88 63h-10q-66 0 -89 -63zM342 1640q0 42 30.5 70.5t73.5 28.5t74 -28.5t31 -70.5t-31 -70t-74 -28t-73.5 28t-30.5 70zM348 498l279 725 l278 -725h-557zM705 1640q0 42 30.5 70.5t73.5 28.5t73.5 -28.5t30.5 -70.5t-30.5 -70t-73.5 -28t-73.5 28t-30.5 70z" />
<glyph unicode="&#xc5;" horiz-adv-x="1251" d="M43 82q-11 -27 0.5 -52.5t38.5 -35.5t53 2t35 39l129 336h653l129 -336q9 -27 35 -39t53 -2t38.5 35.5t0.5 52.5l-489 1276q-23 63 -88 63h-10q-66 0 -89 -63zM348 498l279 725l278 -725h-557zM430 1724q0 85 57 143t140 58q85 0 142.5 -58t57.5 -143q0 -83 -57.5 -139.5 t-142.5 -56.5q-83 0 -140 56.5t-57 139.5zM537 1726q0 -40 26 -66t66 -26q39 0 65.5 26.5t26.5 65.5q0 38 -27 65.5t-65 27.5q-39 0 -65.5 -27t-26.5 -66z" />
<glyph unicode="&#xc6;" horiz-adv-x="1851" d="M4.5 39.5q-6.5 28.5 7.5 52.5l795 1260q34 59 108 59h754q29 0 49.5 -19.5t20.5 -48.5t-20 -48t-50 -19h-610v-516h526q29 0 49.5 -19.5t20.5 -48.5t-20 -48t-50 -19h-526v-490h633q29 0 49 -19t20 -48t-20 -48.5t-49 -19.5h-699q-28 0 -48.5 21t-20.5 49v301h-574 l-221 -346q-15 -25 -41.5 -32.5t-52.5 5.5q-24 13 -30.5 41.5zM430 498h494v778z" />
<glyph unicode="&#xc7;" horiz-adv-x="1349" d="M113 702q0 199 87 364.5t244.5 263t352.5 97.5q248 0 452 -163q23 -19 25.5 -49t-17.5 -52t-47 -22t-49 20q-157 131 -364 131q-159 0 -285.5 -79.5t-195 -214t-68.5 -296.5t68.5 -296t195 -212.5t285.5 -78.5q207 0 364 131q22 20 49 20t47 -22t17.5 -52t-25.5 -49 q-184 -147 -405 -161l49 -117q16 -43 16 -86q0 -60 -33 -110.5t-92 -74.5q-35 -14 -75 -14q-58 0 -107 33.5t-80 93.5l-6 12q-11 25 -1 47t36 31q25 9 45 -1.5t31 -37.5q16 -34 48 -51t66 -4q33 15 45.5 48t1.5 67l-49 164q-181 14 -324.5 113t-222.5 258t-79 349z" />
<glyph unicode="&#xc8;" horiz-adv-x="1128" d="M201 70q0 -28 20.5 -49t48.5 -21h699q29 0 49 19.5t20 48.5t-20 48t-49 19h-633v490h526q30 0 50 19t20 48t-20.5 48.5t-49.5 19.5h-526v516h610q30 0 50 19t20 48t-20.5 48.5t-49.5 19.5h-676q-28 0 -48.5 -21t-20.5 -49v-1271zM383 1782q0 19 30.5 32t65.5 13 q42 0 62 -41l104 -195q10 -20 10 -30q0 -33 -39 -33q-57 0 -88 43l-125 160q-20 27 -20 51z" />
<glyph unicode="&#xc9;" horiz-adv-x="1128" d="M201 70v1271q0 28 20.5 49t48.5 21h676q29 0 49.5 -19.5t20.5 -48.5t-20 -48t-50 -19h-610v-516h526q29 0 49.5 -19.5t20.5 -48.5t-20 -48t-50 -19h-526v-490h633q29 0 49 -19t20 -48t-20 -48.5t-49 -19.5h-699q-28 0 -48.5 21t-20.5 49zM526 1561q0 8 11 30l104 195 q20 41 61 41q35 0 66 -13t31 -32q0 -23 -21 -51l-125 -160q-31 -43 -88 -43q-39 0 -39 33z" />
<glyph unicode="&#xca;" horiz-adv-x="1128" d="M201 70q0 -28 20.5 -49t48.5 -21h699q29 0 49 19.5t20 48.5t-20 48t-49 19h-633v490h526q30 0 50 19t20 48t-20.5 48.5t-49.5 19.5h-526v516h610q30 0 50 19t20 48t-20.5 48.5t-49.5 19.5h-676q-28 0 -48.5 -21t-20.5 -49v-1271zM352 1556q0 14 15 35l141 193 q40 43 82 43h37q25 0 42.5 -10.5t37.5 -32.5l143 -193q14 -16 14 -35q0 -28 -39 -28q-57 0 -92 37l-127 137l-129 -137q-21 -22 -39.5 -29.5t-48.5 -7.5q-17 0 -27 8t-10 20z" />
<glyph unicode="&#xcb;" horiz-adv-x="1128" d="M201 70q0 -28 20.5 -49t48.5 -21h699q29 0 49 19.5t20 48.5t-20 48t-49 19h-633v490h526q30 0 50 19t20 48t-20.5 48.5t-49.5 19.5h-526v516h610q30 0 50 19t20 48t-20.5 48.5t-49.5 19.5h-676q-28 0 -48.5 -21t-20.5 -49v-1271zM297 1640q0 42 30.5 70.5t73.5 28.5 t74 -28.5t31 -70.5t-31 -70t-74 -28t-73.5 28t-30.5 70zM659 1640q0 42 31 70.5t74 28.5t73.5 -28.5t30.5 -70.5t-30.5 -70t-73.5 -28t-74 28t-31 70z" />
<glyph unicode="&#xcc;" horiz-adv-x="536" d="M63 1782q0 19 31 32t66 13q41 0 61 -41l105 -195q10 -20 10 -30q0 -33 -39 -33q-57 0 -88 43l-125 160q-21 28 -21 51zM201 59q0 -29 19 -49t48 -20t48.5 20t19.5 49v1293q0 29 -19.5 49t-48.5 20t-48 -20t-19 -49v-1293z" />
<glyph unicode="&#xcd;" horiz-adv-x="536" d="M201 59v1293q0 29 19 49t48 20t48.5 -20t19.5 -49v-1293q0 -29 -19.5 -49t-48.5 -20t-48 20t-19 49zM201 1561q0 10 10 30l104 195q20 41 62 41q35 0 65.5 -13t30.5 -32q0 -24 -20 -51l-125 -160q-31 -43 -88 -43q-39 0 -39 33z" />
<glyph unicode="&#xce;" horiz-adv-x="536" d="M16 1556q0 14 15 35l141 193q40 43 82 43h37q25 0 42.5 -10.5t37.5 -32.5l143 -193q14 -16 14 -35q0 -28 -39 -28q-57 0 -92 37l-127 137l-129 -137q-21 -22 -39.5 -29.5t-48.5 -7.5q-17 0 -27 8t-10 20zM201 59q0 -29 19 -49t48 -20t48.5 20t19.5 49v1293q0 29 -19.5 49 t-48.5 20t-48 -20t-19 -49v-1293z" />
<glyph unicode="&#xcf;" horiz-adv-x="536" d="M-16 1640q0 42 30.5 70.5t73.5 28.5t74 -28.5t31 -70.5t-31 -70t-74 -28t-73.5 28t-30.5 70zM201 59q0 -29 19 -49t48 -20t48.5 20t19.5 49v1293q0 29 -19.5 49t-48.5 20t-48 -20t-19 -49v-1293zM346 1640q0 42 31 70.5t74 28.5t73.5 -28.5t30.5 -70.5t-30.5 -70 t-73.5 -28t-74 28t-31 70z" />
<glyph unicode="&#xd0;" horiz-adv-x="1486" d="M2 705q0 27 19 45t47 18h145v573q0 28 21 49t49 21h460q194 0 337.5 -94t215.5 -253.5t72 -361.5q0 -201 -72 -358.5t-215 -250.5t-338 -93h-460q-28 0 -49 21t-21 49v571h-145q-28 0 -47 18t-19 46zM348 135h395q159 0 271 74.5t165.5 200.5t53.5 292q0 124 -31 227.5 t-91 181.5t-154.5 121.5t-213.5 43.5h-395v-508h297q28 0 47 -18t19 -45q0 -28 -19 -46t-47 -18h-297v-506z" />
<glyph unicode="&#xd1;" horiz-adv-x="1394" d="M201 59v1293q0 29 21 49t50 20h21q48 0 72 -41l694 -1142v1114q0 29 19 49t48 20t48.5 -20t19.5 -49v-1295q0 -29 -21 -48t-49 -19h-18q-46 0 -70 39l-700 1153v-1123q0 -29 -19.5 -49t-48.5 -20t-48 20t-19 49zM428 1604q17 88 63 125.5t105 37.5q39 0 72.5 -21.5 t61 -43t52.5 -21.5q18 0 37 12t27 36q14 43 57 40q24 -2 37 -16t10 -37q-17 -88 -63 -126t-105 -38q-38 0 -71.5 21.5t-61.5 43t-53 21.5q-18 0 -37 -11.5t-27 -35.5q-14 -44 -57 -41q-24 2 -37 16.5t-10 37.5z" />
<glyph unicode="&#xd2;" horiz-adv-x="1640" d="M111 702q0 -147 55 -280.5t149 -230.5t225.5 -154t278.5 -57q148 0 280 57t226.5 154t149.5 230.5t55 280.5q0 198 -93.5 364.5t-257 263.5t-360.5 97q-147 0 -278.5 -57.5t-225.5 -154.5t-149 -231t-55 -282zM246 702q0 161 74.5 296.5t206.5 214.5t292 79t292.5 -79 t208 -214.5t75.5 -296.5t-75.5 -295.5t-208 -213t-292.5 -78.5t-292 78.5t-206.5 213t-74.5 295.5zM635 1782q0 19 30.5 32t65.5 13q42 0 62 -41l104 -195q10 -20 10 -30q0 -33 -39 -33q-57 0 -88 43l-125 160q-20 27 -20 51z" />
<glyph unicode="&#xd3;" horiz-adv-x="1640" d="M111 702q0 148 55 282t149 231t225.5 154.5t278.5 57.5q197 0 360.5 -97t257 -263.5t93.5 -364.5q0 -147 -55 -280.5t-149.5 -230.5t-226.5 -154t-280 -57q-147 0 -278.5 57t-225.5 154t-149 230.5t-55 280.5zM246 702q0 -161 74.5 -295.5t206.5 -213t292 -78.5 t292.5 78.5t208 213t75.5 295.5t-75.5 296.5t-208 214.5t-292.5 79t-292 -79t-206.5 -214.5t-74.5 -296.5zM715 1561q0 10 10 30l104 195q20 41 62 41q35 0 65.5 -13t30.5 -32q0 -24 -20 -51l-125 -160q-31 -43 -88 -43q-39 0 -39 33z" />
<glyph unicode="&#xd4;" horiz-adv-x="1640" d="M111 702q0 -147 55 -280.5t149 -230.5t225.5 -154t278.5 -57q148 0 280 57t226.5 154t149.5 230.5t55 280.5q0 198 -93.5 364.5t-257 263.5t-360.5 97q-147 0 -278.5 -57.5t-225.5 -154.5t-149 -231t-55 -282zM246 702q0 161 74.5 296.5t206.5 214.5t292 79t292.5 -79 t208 -214.5t75.5 -296.5t-75.5 -295.5t-208 -213t-292.5 -78.5t-292 78.5t-206.5 213t-74.5 295.5zM565 1556q0 14 15 35l141 193q40 43 82 43h37q25 0 42.5 -10.5t37.5 -32.5l143 -193q14 -16 14 -35q0 -28 -39 -28q-57 0 -92 37l-127 137l-129 -137q-21 -22 -39.5 -29.5 t-48.5 -7.5q-17 0 -27 8t-10 20z" />
<glyph unicode="&#xd5;" horiz-adv-x="1640" d="M111 702q0 148 55 282t149 231t225.5 154.5t278.5 57.5q197 0 360.5 -97t257 -263.5t93.5 -364.5q0 -147 -55 -280.5t-149.5 -230.5t-226.5 -154t-280 -57q-147 0 -278.5 57t-225.5 154t-149 230.5t-55 280.5zM246 702q0 -161 74.5 -295.5t206.5 -213t292 -78.5 t292.5 78.5t208 213t75.5 295.5t-75.5 296.5t-208 214.5t-292.5 79t-292 -79t-206.5 -214.5t-74.5 -296.5zM555 1604q17 88 63 125.5t105 37.5q39 0 72.5 -21.5t61 -43t52.5 -21.5q18 0 37 12t27 36q14 43 57 40q24 -2 37 -16t10 -37q-17 -88 -63 -126t-105 -38 q-38 0 -71.5 21.5t-61.5 43t-53 21.5q-18 0 -37 -11.5t-27 -35.5q-14 -44 -57 -41q-24 2 -37 16.5t-10 37.5z" />
<glyph unicode="&#xd6;" horiz-adv-x="1640" d="M111 702q0 -147 55 -280.5t149 -230.5t225.5 -154t278.5 -57q148 0 280 57t226.5 154t149.5 230.5t55 280.5q0 198 -93.5 364.5t-257 263.5t-360.5 97q-147 0 -278.5 -57.5t-225.5 -154.5t-149 -231t-55 -282zM246 702q0 161 74.5 296.5t206.5 214.5t292 79t292.5 -79 t208 -214.5t75.5 -296.5t-75.5 -295.5t-208 -213t-292.5 -78.5t-292 78.5t-206.5 213t-74.5 295.5zM537 1640q0 42 30.5 70.5t73.5 28.5t73.5 -28.5t30.5 -70.5t-30.5 -70t-73.5 -28t-73.5 28t-30.5 70zM899 1640q0 42 31 70.5t74 28.5t73.5 -28.5t30.5 -70.5t-30.5 -70 t-73.5 -28t-74 28t-31 70z" />
<glyph unicode="&#xd7;" horiz-adv-x="962" d="M150 301q0 27 22 47l217 217l-217 217q-22 20 -22 47.5t20 47.5t47 19.5t47 -22.5l217 -217l217 217q20 22 47.5 22.5t47.5 -19.5t20 -47.5t-22 -47.5l-218 -217l218 -217q22 -20 22 -47t-20 -47t-47.5 -20t-47.5 22l-217 217l-217 -217q-20 -22 -47 -22t-47 20t-20 47z " />
<glyph unicode="&#xd8;" horiz-adv-x="1638" d="M109 702q0 148 55 282t149 231t225.5 154.5t278.5 57.5q133 0 253 -46.5t214 -129.5l148 152q17 19 39.5 19t39.5 -17t16 -39t-20 -39l-147 -153q168 -205 168 -472q0 -147 -55 -280.5t-149.5 -230.5t-226.5 -154t-280 -57q-264 0 -459 165l-139 -145q-17 -19 -40 -19 t-40 17t-16 39t20 39l140 147q-174 203 -174 479zM244 702q0 -222 133 -383l813 834q-162 139 -373 139q-160 0 -292 -79t-206.5 -214.5t-74.5 -296.5zM453 244q158 -129 364 -129q160 0 292.5 78.5t208 213t75.5 295.5q0 215 -129 375z" />
<glyph unicode="&#xd9;" horiz-adv-x="1376" d="M188 477v875q0 29 19.5 49t48.5 20t48.5 -20t19.5 -49v-875q0 -162 105.5 -262t258.5 -100q154 0 259.5 100t105.5 262v875q0 29 19 49t48 20t48.5 -20t19.5 -49v-875q0 -147 -68.5 -262t-182 -175t-249.5 -60t-249.5 60t-182 175t-68.5 262zM487 1782q0 19 31 32t66 13 q41 0 61 -41l105 -195q10 -20 10 -30q0 -33 -39 -33q-57 0 -88 43l-125 160q-21 28 -21 51z" />
<glyph unicode="&#xda;" horiz-adv-x="1376" d="M188 477v875q0 29 19.5 49t48.5 20t48.5 -20t19.5 -49v-875q0 -162 105.5 -262t258.5 -100q154 0 259.5 100t105.5 262v875q0 29 19 49t48 20t48.5 -20t19.5 -49v-875q0 -147 -68.5 -262t-182 -175t-249.5 -60t-249.5 60t-182 175t-68.5 262zM590 1561q0 10 10 30 l105 195q20 41 61 41q35 0 65.5 -13t30.5 -32q0 -24 -20 -51l-125 -160q-31 -43 -88 -43q-39 0 -39 33z" />
<glyph unicode="&#xdb;" horiz-adv-x="1376" d="M188 477v875q0 29 19.5 49t48.5 20t48.5 -20t19.5 -49v-875q0 -162 105.5 -262t258.5 -100q154 0 259.5 100t105.5 262v875q0 29 19 49t48 20t48.5 -20t19.5 -49v-875q0 -147 -68.5 -262t-182 -175t-249.5 -60t-249.5 60t-182 175t-68.5 262zM432 1556q0 15 14 35 l142 193q40 43 82 43h37q25 0 41.5 -10.5t37.5 -32.5l144 -193q14 -16 14 -35q0 -28 -39 -28q-57 0 -92 37l-127 137l-129 -137q-21 -22 -39.5 -29.5t-48.5 -7.5q-17 0 -27 8t-10 20z" />
<glyph unicode="&#xdc;" horiz-adv-x="1376" d="M188 477v875q0 29 19.5 49t48.5 20t48.5 -20t19.5 -49v-875q0 -162 105.5 -262t258.5 -100q154 0 259.5 100t105.5 262v875q0 29 19 49t48 20t48.5 -20t19.5 -49v-875q0 -147 -68.5 -262t-182 -175t-249.5 -60t-249.5 60t-182 175t-68.5 262zM403 1640q0 42 31 70.5 t74 28.5t73.5 -28.5t30.5 -70.5t-30.5 -70t-73.5 -28t-74 28t-31 70zM766 1640q0 42 30.5 70.5t73.5 28.5t74 -28.5t31 -70.5t-31 -70t-74 -28t-73.5 28t-30.5 70z" />
<glyph unicode="&#xdd;" horiz-adv-x="1193" d="M50.5 1368q4.5 26 29.5 41q25 17 52 11t42 -31l422 -586l426 586q15 25 42 31t52 -11q25 -15 29.5 -41t-12.5 -51l-469 -662v-596q0 -29 -19.5 -49t-48.5 -20t-48.5 20t-19.5 49v596l-465 662q-17 25 -12.5 51zM510 1561q0 10 10 30l105 195q20 41 61 41q35 0 65.5 -13 t30.5 -32q0 -24 -20 -51l-125 -160q-31 -43 -88 -43q-39 0 -39 33z" />
<glyph unicode="&#xde;" horiz-adv-x="1165" d="M201 59v1293q0 29 19 49t48 20t48.5 -20t19.5 -49v-203h332q179 0 299 -117t120 -307q0 -191 -120.5 -310.5t-298.5 -119.5h-332v-236q0 -29 -19.5 -49t-48.5 -20t-48 20t-19 49zM336 430h332q121 0 202.5 82t81.5 213q0 129 -81.5 209t-202.5 80h-332v-584z" />
<glyph unicode="&#xdf;" horiz-adv-x="1159" d="M164 59v971q0 197 111 309.5t290 112.5h21q153 0 256.5 -100t103.5 -244q0 -83 -42 -155.5t-116 -108.5q120 -28 196.5 -148.5t76.5 -251.5q0 -125 -58 -229t-163.5 -165.5t-237.5 -61.5q-73 -3 -174 28q-27 8 -41 28t-8 46t28.5 39.5t47.5 5.5q55 -18 143 -18 q143 0 235.5 96t92.5 231q0 129 -95 228.5t-231 99.5h-37q-26 0 -44.5 18t-18.5 44t18.5 43.5t44.5 17.5h33q94 0 154.5 61.5t60.5 151.5q0 89 -63.5 150t-161.5 65h-21q-114 0 -190 -79.5t-76 -213.5v-971q0 -29 -19.5 -49t-48.5 -20t-48 20t-19 49z" />
<glyph unicode="&#xe0;" horiz-adv-x="1247" d="M100 481q0 -223 141 -362t349 -139q109 0 208.5 48.5t151.5 135.5v-105q0 -29 19.5 -49t48.5 -20t48 20t19 49v838q0 30 -19 50t-48 20t-48.5 -20.5t-19.5 -49.5v-98q-52 87 -150.5 132.5t-209.5 45.5q-209 0 -349.5 -137t-140.5 -359zM238 481q0 161 100 260t252 99 q66 0 129 -23.5t115 -67t84 -113.5t32 -155q0 -170 -103.5 -267t-256.5 -97q-150 0 -251 103t-101 261zM406 1366q0 19 30.5 32t65.5 13q41 0 61 -41l105 -194q10 -20 10 -31q0 -33 -39 -33q-57 0 -88 43l-125 160q-20 27 -20 51z" />
<glyph unicode="&#xe1;" horiz-adv-x="1247" d="M100 481q0 222 140.5 359t349.5 137q111 0 209.5 -45.5t150.5 -132.5v98q0 29 19.5 49.5t48.5 20.5t48 -20t19 -50v-838q0 -29 -19 -49t-48 -20t-48.5 20t-19.5 49v105q-52 -87 -151.5 -135.5t-208.5 -48.5q-208 0 -349 139t-141 362zM238 481q0 -158 101 -261t251 -103 q153 0 256.5 97t103.5 267q0 85 -32 155t-84 113.5t-115 67t-129 23.5q-152 0 -252 -99t-100 -260zM510 1145q0 11 10 31l105 194q20 41 61 41q35 0 65.5 -13t30.5 -32q0 -24 -20 -51l-125 -160q-31 -43 -88 -43q-39 0 -39 33z" />
<glyph unicode="&#xe2;" horiz-adv-x="1247" d="M100 481q0 -223 141 -362t349 -139q109 0 208.5 48.5t151.5 135.5v-105q0 -29 19.5 -49t48.5 -20t48 20t19 49v838q0 30 -19 50t-48 20t-48.5 -20.5t-19.5 -49.5v-98q-52 87 -150.5 132.5t-209.5 45.5q-209 0 -349.5 -137t-140.5 -359zM238 481q0 161 100 260t252 99 q66 0 129 -23.5t115 -67t84 -113.5t32 -155q0 -170 -103.5 -267t-256.5 -97q-150 0 -251 103t-101 261zM330 1141q0 15 14 35l141 192q40 43 82 43h37q25 0 42.5 -10.5t37.5 -32.5l143 -192q15 -18 15 -35q0 -12 -10.5 -20.5t-28.5 -8.5q-57 0 -92 37l-127 137l-129 -137 q-21 -22 -39.5 -29.5t-48.5 -7.5q-17 0 -27 8.5t-10 20.5z" />
<glyph unicode="&#xe3;" horiz-adv-x="1247" d="M100 481q0 222 140.5 359t349.5 137q111 0 209.5 -45.5t150.5 -132.5v98q0 29 19.5 49.5t48.5 20.5t48 -20t19 -50v-838q0 -29 -19 -49t-48 -20t-48.5 20t-19.5 49v105q-52 -87 -151.5 -135.5t-208.5 -48.5q-208 0 -349 139t-141 362zM238 481q0 -158 101 -261t251 -103 q153 0 256.5 97t103.5 267q0 85 -32 155t-84 113.5t-115 67t-129 23.5q-152 0 -252 -99t-100 -260zM342 1210q17 88 63 126t105 38q39 0 72.5 -21.5t61 -43t52.5 -21.5q18 0 37 11.5t27 35.5q14 44 57 41q24 -2 37 -16t10 -37q-17 -88 -63 -126t-105 -38q-38 0 -71.5 21.5 t-61.5 43t-53 21.5q-18 0 -37 -11.5t-27 -35.5q-14 -44 -57 -41q-24 2 -37 16t-10 37z" />
<glyph unicode="&#xe4;" horiz-adv-x="1247" d="M100 481q0 -223 141 -362t349 -139q109 0 208.5 48.5t151.5 135.5v-105q0 -29 19.5 -49t48.5 -20t48 20t19 49v838q0 30 -19 50t-48 20t-48.5 -20.5t-19.5 -49.5v-98q-52 87 -150.5 132.5t-209.5 45.5q-209 0 -349.5 -137t-140.5 -359zM238 481q0 161 100 260t252 99 q66 0 129 -23.5t115 -67t84 -113.5t32 -155q0 -170 -103.5 -267t-256.5 -97q-150 0 -251 103t-101 261zM297 1251q0 42 30.5 70.5t73.5 28.5t74 -28.5t31 -70.5t-31 -70t-74 -28t-73.5 28t-30.5 70zM659 1251q0 42 31 70.5t74 28.5t73.5 -28.5t30.5 -70.5t-30.5 -70 t-73.5 -28t-74 28t-31 70z" />
<glyph unicode="&#xe5;" horiz-adv-x="1247" d="M100 481q0 -223 141 -362t349 -139q109 0 208.5 48.5t151.5 135.5v-105q0 -29 19.5 -49t48.5 -20t48 20t19 49v838q0 30 -19 50t-48 20t-48.5 -20.5t-19.5 -49.5v-98q-52 87 -150.5 132.5t-209.5 45.5q-209 0 -349.5 -137t-140.5 -359zM238 481q0 161 100 260t252 99 q66 0 129 -23.5t115 -67t84 -113.5t32 -155q0 -170 -103.5 -267t-256.5 -97q-150 0 -251 103t-101 261zM389 1292q0 85 57 143t140 58q85 0 142.5 -58t57.5 -143q0 -83 -57.5 -139.5t-142.5 -56.5q-83 0 -140 56.5t-57 139.5zM496 1294q0 -40 26 -66t66 -26q39 0 65.5 26.5 t26.5 65.5q0 38 -27 65t-65 27q-39 0 -65.5 -26.5t-26.5 -65.5z" />
<glyph unicode="&#xe6;" horiz-adv-x="1843" d="M86 268q0 62 22.5 113.5t69 92.5t126.5 64t188 23q123 0 321 -63v82q0 120 -79 191t-220 71q-131 0 -244 -86q-23 -20 -50 -19t-46 21q-20 24 -18 50.5t24 47.5q129 121 348 121q287 0 373 -203q62 97 163.5 150t227.5 53q207 0 338 -135.5t131 -360.5q0 -27 -19 -45 t-44 -18h-750q19 -138 114 -220.5t230 -82.5q94 0 159 33t120 98q20 25 44 32.5t50 -8.5q25 -15 30.5 -42t-9.5 -52q-64 -93 -168 -144.5t-226 -51.5q-133 0 -239 60t-166 169q-50 -72 -108 -120.5t-119 -70.5t-111 -30t-109 -8q-162 0 -258 76.5t-96 211.5zM227 268 q0 -69 55 -112t162 -43q46 0 92.5 9t101 30.5t102 66.5t77.5 109l-6 47q-82 28 -172 43.5t-147 15.5q-79 0 -134 -15t-82 -41t-38 -52.5t-11 -57.5zM948 545h674q-20 137 -109 217t-221 80q-135 0 -229.5 -81t-114.5 -216z" />
<glyph unicode="&#xe7;" horiz-adv-x="1009" d="M100 479q0 147 68.5 262t182 175.5t249.5 60.5q160 0 291 -88q25 -15 31 -42t-11 -52q-17 -24 -44.5 -28.5t-51.5 9.5q-112 66 -215 66q-153 0 -258.5 -100.5t-105.5 -262.5t105.5 -263t258.5 -101q104 0 215 65q24 14 51.5 10t44.5 -28q17 -25 11 -52t-31 -42 q-117 -77 -258 -86l49 -117q16 -43 16 -86q0 -60 -33 -110.5t-92 -74.5q-35 -14 -75 -14q-58 0 -107 33.5t-80 93.5l-6 12q-11 25 -1 47t36 31q25 9 45 -1.5t31 -37.5q16 -34 48 -51t66 -4q33 15 46 48.5t2 66.5l-50 168q-185 24 -306.5 157.5t-121.5 335.5z" />
<glyph unicode="&#xe8;" d="M102 481q0 -148 64.5 -263t174 -176.5t245.5 -61.5q122 0 225.5 51.5t167.5 144.5q15 25 9.5 52t-30.5 42q-26 16 -50 8.5t-44 -32.5q-55 -65 -119.5 -98t-158.5 -33q-135 0 -230 82.5t-114 220.5h749q26 0 45 18t19 45q0 225 -131 360.5t-338 135.5q-208 0 -346 -136.5 t-138 -359.5zM242 545q20 135 114.5 216t229.5 81q132 0 220.5 -80t108.5 -217h-673zM365 1366q0 19 30.5 32t65.5 13q41 0 61 -41l105 -194q10 -20 10 -31q0 -33 -39 -33q-57 0 -88 43l-125 160q-20 27 -20 51z" />
<glyph unicode="&#xe9;" d="M102 481q0 223 138 359.5t346 136.5q207 0 338 -135.5t131 -360.5q0 -27 -19 -45t-45 -18h-749q19 -138 114 -220.5t230 -82.5q94 0 158.5 33t119.5 98q20 25 44 32.5t50 -8.5q25 -15 30.5 -42t-9.5 -52q-64 -93 -167.5 -144.5t-225.5 -51.5q-136 0 -245.5 61.5 t-174 176.5t-64.5 263zM242 545h673q-20 137 -108.5 217t-220.5 80q-135 0 -229.5 -81t-114.5 -216zM522 1145q0 11 10 31l105 194q20 41 61 41q35 0 66 -13t31 -32q0 -23 -21 -51l-125 -160q-31 -43 -88 -43q-39 0 -39 33z" />
<glyph unicode="&#xea;" d="M102 481q0 -148 64.5 -263t174 -176.5t245.5 -61.5q122 0 225.5 51.5t167.5 144.5q15 25 9.5 52t-30.5 42q-26 16 -50 8.5t-44 -32.5q-55 -65 -119.5 -98t-158.5 -33q-135 0 -230 82.5t-114 220.5h749q26 0 45 18t19 45q0 225 -131 360.5t-338 135.5q-208 0 -346 -136.5 t-138 -359.5zM242 545q20 135 114.5 216t229.5 81q132 0 220.5 -80t108.5 -217h-673zM315 1141q0 14 15 35l141 192q40 43 82 43h37q25 0 42.5 -10.5t37.5 -32.5l143 -192q14 -16 14 -35q0 -12 -10.5 -20.5t-28.5 -8.5q-57 0 -92 37l-127 137l-129 -137q-21 -22 -39.5 -29.5 t-48.5 -7.5q-17 0 -27 8.5t-10 20.5z" />
<glyph unicode="&#xeb;" d="M102 481q0 -148 64.5 -263t174 -176.5t245.5 -61.5q122 0 225.5 51.5t167.5 144.5q15 25 9.5 52t-30.5 42q-26 16 -50 8.5t-44 -32.5q-55 -65 -119.5 -98t-158.5 -33q-135 0 -230 82.5t-114 220.5h749q26 0 45 18t19 45q0 225 -131 360.5t-338 135.5q-208 0 -346 -136.5 t-138 -359.5zM242 545q20 135 114.5 216t229.5 81q132 0 220.5 -80t108.5 -217h-673zM287 1251q0 42 30.5 70.5t73.5 28.5t74 -28.5t31 -70.5t-31 -70t-74 -28t-73.5 28t-30.5 70zM649 1251q0 42 31 70.5t74 28.5t73.5 -28.5t30.5 -70.5t-30.5 -70t-73.5 -28t-74 28t-31 70z " />
<glyph unicode="&#xec;" horiz-adv-x="458" d="M23 1366q0 19 30.5 32t65.5 13q41 0 61 -41l105 -194q10 -20 10 -31q0 -33 -39 -33q-57 0 -88 43l-125 160q-20 27 -20 51zM162 59q0 -29 19 -49t48 -20t48.5 20t19.5 49v838q0 29 -19.5 49.5t-48.5 20.5t-48 -20t-19 -50v-838z" />
<glyph unicode="&#xed;" horiz-adv-x="458" d="M162 59v838q0 30 19 50t48 20t48.5 -20.5t19.5 -49.5v-838q0 -29 -19.5 -49t-48.5 -20t-48 20t-19 49zM162 1145q0 11 10 31l104 194q20 41 62 41q35 0 65.5 -13t30.5 -32q0 -24 -20 -51l-125 -160q-31 -43 -88 -43q-39 0 -39 33z" />
<glyph unicode="&#xee;" horiz-adv-x="458" d="M-27 1141q0 14 15 35l141 192q40 43 82 43h37q25 0 42.5 -10.5t37.5 -32.5l143 -192q14 -16 14 -35q0 -12 -10.5 -20.5t-28.5 -8.5q-57 0 -92 37l-127 137l-129 -137q-21 -22 -39.5 -29.5t-48.5 -7.5q-17 0 -27 8.5t-10 20.5zM162 59q0 -29 19 -49t48 -20t48.5 20 t19.5 49v838q0 29 -19.5 49.5t-48.5 20.5t-48 -20t-19 -50v-838z" />
<glyph unicode="&#xef;" horiz-adv-x="458" d="M-55 1251q0 42 30.5 70.5t73.5 28.5t74 -28.5t31 -70.5t-31 -70t-74 -28t-73.5 28t-30.5 70zM162 59q0 -29 19 -49t48 -20t48.5 20t19.5 49v838q0 29 -19.5 49.5t-48.5 20.5t-48 -20t-19 -50v-838zM307 1251q0 42 31 70.5t74 28.5t73.5 -28.5t30.5 -70.5t-30.5 -70 t-73.5 -28t-74 28t-31 70z" />
<glyph unicode="&#xf0;" horiz-adv-x="1202" d="M100 481q0 111 39.5 205t106.5 157t154.5 98.5t183.5 35.5q20 0 57 -7t57 -14l-180 222l-129 -103q-18 -14 -39 -12t-33 18q-12 14 -10.5 36t19.5 38l129 102l-97 121q-19 22 -17 47.5t24 44.5q24 17 50 12.5t44 -26.5l94 -119l102 82q19 14 39 12t33 -18q12 -14 11 -36 t-19 -38l-101 -82l388 -475q94 -127 94 -301q0 -147 -68.5 -263t-182 -177t-249.5 -61t-249.5 61t-182 177t-68.5 263zM236 481q0 -162 105.5 -264t258.5 -102t259 102t106 264t-105.5 261.5t-259.5 99.5t-259 -99.5t-105 -261.5z" />
<glyph unicode="&#xf1;" horiz-adv-x="1138" d="M164 59v838q0 30 19 50t48 20t48.5 -20.5t19.5 -49.5v-98q41 87 132.5 132.5t184.5 45.5q174 0 272.5 -112t96.5 -308v-498q0 -29 -19 -49t-48 -20t-48.5 20t-19.5 49v498q0 133 -62 209t-172 76q-60 0 -114 -18t-101 -54t-74.5 -100t-27.5 -148v-463q0 -29 -19.5 -49 t-48.5 -20t-48 20t-19 49zM305 1210q17 88 63 126t105 38q39 0 72.5 -21.5t61 -43t52.5 -21.5q18 0 37 11.5t27 35.5q14 44 57 41q24 -2 37 -16t10 -37q-17 -88 -63 -126t-105 -38q-38 0 -71.5 21.5t-61.5 43t-53 21.5q-18 0 -36.5 -11.5t-26.5 -35.5q-14 -44 -58 -41 q-24 2 -37 16t-10 37z" />
<glyph unicode="&#xf2;" horiz-adv-x="1200" d="M100 481q0 -147 68.5 -263t182 -177t249.5 -61t249.5 61t182 177t68.5 263t-68.5 261.5t-181.5 174.5t-250 60t-250 -60t-181.5 -174.5t-68.5 -261.5zM236 481q0 162 105 261.5t259 99.5t259.5 -99.5t105.5 -261.5t-106 -264t-259 -102t-258.5 102t-105.5 264zM401 1366 q0 19 31 32t66 13q41 0 61 -41l105 -194q10 -20 10 -31q0 -33 -39 -33q-57 0 -88 43l-125 160q-21 28 -21 51z" />
<glyph unicode="&#xf3;" horiz-adv-x="1200" d="M100 481q0 147 68.5 261.5t181.5 174.5t250 60t250 -60t181.5 -174.5t68.5 -261.5t-68.5 -263t-182 -177t-249.5 -61t-249.5 61t-182 177t-68.5 263zM236 481q0 -162 105.5 -264t258.5 -102t259 102t106 264t-105.5 261.5t-259.5 99.5t-259 -99.5t-105 -261.5zM549 1145 q0 11 10 31l105 194q20 41 61 41q35 0 65.5 -13t30.5 -32q0 -24 -20 -51l-125 -160q-31 -43 -88 -43q-39 0 -39 33z" />
<glyph unicode="&#xf4;" horiz-adv-x="1200" d="M100 481q0 -147 68.5 -263t182 -177t249.5 -61t249.5 61t182 177t68.5 263t-68.5 261.5t-181.5 174.5t-250 60t-250 -60t-181.5 -174.5t-68.5 -261.5zM236 481q0 162 105 261.5t259 99.5t259.5 -99.5t105.5 -261.5t-106 -264t-259 -102t-258.5 102t-105.5 264zM344 1141 q0 15 14 35l142 192q40 43 82 43h36q25 0 42.5 -10.5t37.5 -32.5l144 -192q14 -16 14 -35q0 -12 -10.5 -20.5t-28.5 -8.5q-57 0 -92 37l-127 137l-129 -137q-21 -22 -39.5 -29.5t-48.5 -7.5q-17 0 -27 8.5t-10 20.5z" />
<glyph unicode="&#xf5;" horiz-adv-x="1200" d="M100 481q0 147 68.5 261.5t181.5 174.5t250 60t250 -60t181.5 -174.5t68.5 -261.5t-68.5 -263t-182 -177t-249.5 -61t-249.5 61t-182 177t-68.5 263zM236 481q0 -162 105.5 -264t258.5 -102t259 102t106 264t-105.5 261.5t-259.5 99.5t-259 -99.5t-105 -261.5zM338 1210 q17 88 63 126t105 38q39 0 72.5 -21.5t61 -43t52.5 -21.5q18 0 37 11.5t27 35.5q14 44 57 41q24 -2 37 -16t10 -37q-17 -88 -63 -126t-105 -38q-38 0 -71.5 21.5t-61.5 43t-53 21.5q-18 0 -37 -11.5t-27 -35.5q-14 -44 -57 -41q-24 2 -37 16t-10 37z" />
<glyph unicode="&#xf6;" horiz-adv-x="1200" d="M100 481q0 -147 68.5 -263t182 -177t249.5 -61t249.5 61t182 177t68.5 263t-68.5 261.5t-181.5 174.5t-250 60t-250 -60t-181.5 -174.5t-68.5 -261.5zM236 481q0 162 105 261.5t259 99.5t259.5 -99.5t105.5 -261.5t-106 -264t-259 -102t-258.5 102t-105.5 264zM313 1251 q0 42 31 70.5t74 28.5t73.5 -28.5t30.5 -70.5t-30.5 -70t-73.5 -28t-74 28t-31 70zM676 1251q0 42 30.5 70.5t73.5 28.5t74 -28.5t31 -70.5t-31 -70t-74 -28t-73.5 28t-30.5 70z" />
<glyph unicode="&#xf7;" horiz-adv-x="1159" d="M133 543q0 -28 19 -47t47 -19h762q28 0 46.5 19t18.5 47t-18.5 45.5t-46.5 17.5h-762q-28 0 -47 -18t-19 -45zM467 213q0 45 33.5 75.5t79.5 30.5t79 -30.5t33 -75.5t-33 -76t-79 -31t-79.5 31t-33.5 76zM467 870q0 45 33.5 76t79.5 31t79 -31t33 -76t-33 -75.5 t-79 -30.5t-79.5 30.5t-33.5 75.5z" />
<glyph unicode="&#xf8;" horiz-adv-x="1198" d="M100 481q0 147 68.5 261.5t181.5 174.5t250 60q173 0 307 -98l70 73q20 18 41 17t37 -17t16 -37.5t-18 -40.5l-68 -67q115 -134 115 -326q0 -147 -68.5 -263t-182 -177t-249.5 -61q-184 0 -317 106l-70 -74q-20 -18 -41 -17t-37 17t-16 37.5t18 40.5l70 72 q-107 136 -107 319zM236 481q0 -129 67 -221l508 520q-89 62 -211 62q-154 0 -259 -99.5t-105 -261.5zM379 184q94 -69 221 -69q153 0 259 102t106 264q0 133 -76 228z" />
<glyph unicode="&#xf9;" d="M154 399v498q0 30 19 50t48 20t48.5 -20.5t19.5 -49.5v-498q0 -133 61.5 -208.5t171.5 -75.5q60 0 114.5 17.5t101 54t74.5 100t28 147.5v463q0 30 19 50t48 20t48.5 -20.5t19.5 -49.5v-838q0 -29 -19.5 -49t-48.5 -20t-48 20t-19 49v99q-41 -87 -132.5 -132.5 t-185.5 -45.5q-174 0 -272 111.5t-96 307.5zM350 1366q0 19 30.5 32t65.5 13q42 0 62 -41l104 -194q11 -22 11 -31q0 -33 -39 -33q-57 0 -88 43l-125 160q-21 28 -21 51z" />
<glyph unicode="&#xfa;" d="M154 399v498q0 30 19 50t48 20t48.5 -20.5t19.5 -49.5v-498q0 -133 61.5 -208.5t171.5 -75.5q60 0 114.5 17.5t101 54t74.5 100t28 147.5v463q0 30 19 50t48 20t48.5 -20.5t19.5 -49.5v-838q0 -29 -19.5 -49t-48.5 -20t-48 20t-19 49v99q-41 -87 -132.5 -132.5 t-185.5 -45.5q-174 0 -272 111.5t-96 307.5zM481 1145q0 9 11 31l104 194q20 41 61 41q35 0 66 -13t31 -32q0 -23 -21 -51l-125 -160q-31 -43 -88 -43q-39 0 -39 33z" />
<glyph unicode="&#xfb;" d="M154 399v498q0 30 19 50t48 20t48.5 -20.5t19.5 -49.5v-498q0 -133 61.5 -208.5t171.5 -75.5q60 0 114.5 17.5t101 54t74.5 100t28 147.5v463q0 30 19 50t48 20t48.5 -20.5t19.5 -49.5v-838q0 -29 -19.5 -49t-48.5 -20t-48 20t-19 49v99q-41 -87 -132.5 -132.5 t-185.5 -45.5q-174 0 -272 111.5t-96 307.5zM315 1141q0 14 15 35l141 192q40 43 82 43h37q25 0 42.5 -10.5t37.5 -32.5l143 -192q14 -16 14 -35q0 -12 -10.5 -20.5t-28.5 -8.5q-57 0 -92 37l-127 137l-129 -137q-21 -22 -39.5 -29.5t-48.5 -7.5q-17 0 -27 8.5t-10 20.5z " />
<glyph unicode="&#xfc;" d="M154 399v498q0 30 19 50t48 20t48.5 -20.5t19.5 -49.5v-498q0 -133 61.5 -208.5t171.5 -75.5q60 0 114.5 17.5t101 54t74.5 100t28 147.5v463q0 30 19 50t48 20t48.5 -20.5t19.5 -49.5v-838q0 -29 -19.5 -49t-48.5 -20t-48 20t-19 49v99q-41 -87 -132.5 -132.5 t-185.5 -45.5q-174 0 -272 111.5t-96 307.5zM285 1251q0 42 30.5 70.5t73.5 28.5t74 -28.5t31 -70.5t-31 -70t-74 -28t-73.5 28t-30.5 70zM647 1251q0 42 31 70.5t74 28.5t73.5 -28.5t30.5 -70.5t-30.5 -70t-73.5 -28t-74 28t-31 70z" />
<glyph unicode="&#xfd;" horiz-adv-x="1013" d="M72 877q-10 28 3.5 55t41.5 33q59 14 86 -54l303 -733l307 733q27 68 86 54q27 -6 40.5 -33t4.5 -55l-545 -1303q-10 -28 -34 -40.5t-52 -4.5q-27 7 -38.5 34.5t-0.5 55.5l158 383zM424 1145q0 11 10 31l105 194q20 41 61 41q35 0 65.5 -13t30.5 -32q0 -24 -20 -51 l-125 -160q-31 -43 -88 -43q-39 0 -39 33z" />
<glyph unicode="&#xfe;" horiz-adv-x="1251" d="M166 -403v1818q0 30 19 50t48 20t48.5 -20.5t19.5 -49.5v-616q52 87 151 132.5t210 45.5q136 0 247 -60t176.5 -174t65.5 -262q0 -223 -140.5 -362t-348.5 -139q-109 0 -209 48.5t-152 135.5v-567q0 -29 -19.5 -49.5t-48.5 -20.5t-48 20t-19 50zM301 481q0 -170 104 -267 t257 -97q150 0 251 103t101 261q0 161 -100 260t-252 99q-66 0 -129.5 -23.5t-115.5 -67t-84 -113.5t-32 -155z" />
<glyph unicode="&#xff;" horiz-adv-x="1013" d="M72 877l360 -875l-158 -383q-11 -28 0.5 -55.5t38.5 -34.5q28 -8 52 4.5t34 40.5l545 1303q9 28 -4.5 55t-40.5 33q-59 14 -86 -54l-307 -733l-303 733q-27 68 -86 54q-28 -6 -41.5 -33t-3.5 -55zM221 1251q0 42 31 70.5t74 28.5t73.5 -28.5t30.5 -70.5t-30.5 -70 t-73.5 -28t-74 28t-31 70zM584 1251q0 42 30.5 70.5t73.5 28.5t74 -28.5t31 -70.5t-31 -70t-74 -28t-73.5 28t-30.5 70z" />
<glyph unicode="&#x152;" horiz-adv-x="2324" d="M111 702q0 148 55 282t149 231t225.5 154.5t278.5 57.5q178 0 329.5 -80t248.5 -219v213q0 28 20.5 49t48.5 21h676q29 0 49.5 -19.5t20.5 -48.5t-20 -48t-50 -19h-610v-516h526q29 0 49.5 -19.5t20.5 -48.5t-20 -48t-50 -19h-526v-490h633q29 0 49 -19t20 -48t-20 -48.5 t-49 -19.5h-699q-28 0 -48.5 21t-20.5 49v206q-99 -138 -249.5 -217t-328.5 -79q-147 0 -278.5 57t-225.5 154t-149 230.5t-55 280.5zM246 702q0 -161 74.5 -295.5t206.5 -213t292 -78.5t292.5 78.5t208 213t75.5 295.5t-75.5 296.5t-208 214.5t-292.5 79t-292 -79 t-206.5 -214.5t-74.5 -296.5z" />
<glyph unicode="&#x153;" horiz-adv-x="2000" d="M100 481q0 147 68.5 261.5t181.5 174.5t250 60q136 0 251 -62t179 -172q63 111 173.5 172.5t246.5 61.5q207 0 338 -135.5t131 -360.5q0 -27 -19 -45t-45 -18h-749q19 -138 114 -220.5t230 -82.5q94 0 159 33t120 98q20 25 44 32.5t50 -8.5q24 -15 29.5 -42t-9.5 -52 q-64 -93 -167.5 -144.5t-225.5 -51.5q-136 0 -246.5 62t-173.5 175q-64 -112 -179 -174.5t-251 -62.5t-249.5 61t-182 177t-68.5 263zM236 481q0 -162 105.5 -264t258.5 -102t259 102t106 264t-105.5 261.5t-259.5 99.5t-259 -99.5t-105 -261.5zM1106 545h674 q-20 137 -109 217t-221 80q-135 0 -229.5 -81t-114.5 -216z" />
<glyph unicode="&#x178;" horiz-adv-x="1193" d="M50.5 1368q4.5 26 29.5 41q25 17 52 11t42 -31l422 -586l426 586q15 25 42 31t52 -11q25 -15 29.5 -41t-12.5 -51l-469 -662v-596q0 -29 -19.5 -49t-48.5 -20t-48.5 20t-19.5 49v596l-465 662q-17 25 -12.5 51zM311 1640q0 42 31 70.5t74 28.5t73.5 -28.5t30.5 -70.5 t-30.5 -70t-73.5 -28t-74 28t-31 70zM674 1640q0 42 30.5 70.5t73.5 28.5t74 -28.5t31 -70.5t-31 -70t-74 -28t-73.5 28t-30.5 70z" />
<glyph unicode="&#x2c6;" horiz-adv-x="921" d="M205 1141q0 15 14 35l141 192q40 43 82 43h37q25 0 42.5 -10.5t37.5 -32.5l143 -192q15 -18 15 -35q0 -12 -10.5 -20.5t-28.5 -8.5q-57 0 -92 37l-127 137l-129 -137q-21 -22 -39.5 -29.5t-48.5 -7.5q-17 0 -27 8.5t-10 20.5z" />
<glyph unicode="&#x2dc;" horiz-adv-x="862" d="M170 1210q17 88 63 126t105 38q39 0 72.5 -21.5t61 -43t52.5 -21.5q18 0 37 11.5t27 35.5q14 44 57 41q24 -2 37 -16t10 -37q-17 -88 -63 -126t-105 -38q-38 0 -71.5 21.5t-61.5 43t-53 21.5q-18 0 -37 -11.5t-27 -35.5q-14 -44 -57 -41q-24 2 -37 16t-10 37z" />
<glyph unicode="&#x2000;" horiz-adv-x="962" />
<glyph unicode="&#x2001;" horiz-adv-x="1925" />
<glyph unicode="&#x2002;" horiz-adv-x="962" />
<glyph unicode="&#x2003;" horiz-adv-x="1925" />
<glyph unicode="&#x2004;" horiz-adv-x="641" />
<glyph unicode="&#x2005;" horiz-adv-x="481" />
<glyph unicode="&#x2006;" horiz-adv-x="320" />
<glyph unicode="&#x2007;" horiz-adv-x="320" />
<glyph unicode="&#x2008;" horiz-adv-x="240" />
<glyph unicode="&#x2009;" horiz-adv-x="385" />
<glyph unicode="&#x200a;" horiz-adv-x="106" />
<glyph unicode="&#x2010;" horiz-adv-x="1013" d="M147 479q0 28 19 46t47 18h588q28 0 46.5 -18t18.5 -46t-18.5 -46.5t-46.5 -18.5h-588q-28 0 -47 18.5t-19 46.5z" />
<glyph unicode="&#x2011;" horiz-adv-x="1013" d="M147 479q0 28 19 46t47 18h588q28 0 46.5 -18t18.5 -46t-18.5 -46.5t-46.5 -18.5h-588q-28 0 -47 18.5t-19 46.5z" />
<glyph unicode="&#x2012;" horiz-adv-x="1013" d="M147 479q0 28 19 46t47 18h588q28 0 46.5 -18t18.5 -46t-18.5 -46.5t-46.5 -18.5h-588q-28 0 -47 18.5t-19 46.5z" />
<glyph unicode="&#x2013;" horiz-adv-x="1228" d="M152 471q0 28 18.5 46t46.5 18h795q28 0 46.5 -18t18.5 -46t-18.5 -46.5t-46.5 -18.5h-795q-28 0 -46.5 18.5t-18.5 46.5z" />
<glyph unicode="&#x2014;" horiz-adv-x="1660" d="M141 471q0 28 19 46t47 18h1247q28 0 47 -18t19 -46t-19 -46.5t-47 -18.5h-1247q-28 0 -47 18.5t-19 46.5z" />
<glyph unicode="&#x2018;" horiz-adv-x="475" d="M127 1061q20 151 88.5 264t136.5 113q22 0 28.5 -20.5t-5.5 -39.5q-87 -150 -103 -282q-11 -101 -102 -101q-30 0 -38 16.5t-5 49.5z" />
<glyph unicode="&#x2019;" horiz-adv-x="479" d="M119 1015.5q-6 20.5 6 39.5q86 148 102 282q11 101 103 101q30 0 38 -16.5t5 -49.5q-20 -151 -89 -264t-137 -113q-22 0 -28 20.5z" />
<glyph unicode="&#x201a;" horiz-adv-x="489" d="M86.5 -113q-6.5 20 5.5 39q87 150 103 283q11 100 102 100q30 0 38 -16t5 -49q-20 -151 -88.5 -264t-136.5 -113q-22 0 -28.5 20z" />
<glyph unicode="&#x201c;" horiz-adv-x="735" d="M127 1061q20 151 88.5 264t136.5 113q22 0 28.5 -20.5t-5.5 -39.5q-87 -150 -103 -282q-11 -101 -102 -101q-30 0 -38 16.5t-5 49.5zM387 1061q20 151 88.5 264t136.5 113q22 0 28.5 -20.5t-5.5 -39.5q-87 -150 -103 -282q-11 -101 -102 -101q-30 0 -38 16.5t-5 49.5z " />
<glyph unicode="&#x201d;" horiz-adv-x="737" d="M119 1015.5q-6 20.5 6 39.5q86 148 102 282q11 101 103 101q30 0 38 -16.5t5 -49.5q-20 -151 -89 -264t-137 -113q-22 0 -28 20.5zM377.5 1015.5q-6.5 20.5 5.5 39.5q86 148 102 282q11 101 103 101q30 0 38 -16.5t5 -49.5q-20 -151 -88.5 -264t-136.5 -113 q-22 0 -28.5 20.5z" />
<glyph unicode="&#x201e;" horiz-adv-x="751" d="M86.5 -113q-6.5 20 5.5 39q87 150 103 283q11 100 102 100q54 0 43 -65q-20 -151 -88.5 -264t-136.5 -113q-22 0 -28.5 20zM348.5 -113q-6.5 20 5.5 39q87 150 103 283q11 100 102 100q50 0 43 -65q-20 -151 -88.5 -264t-136.5 -113q-22 0 -28.5 20z" />
<glyph unicode="&#x2022;" horiz-adv-x="929" d="M170 489q0 120 86 200.5t209 80.5t209 -80.5t86 -200.5t-86 -200t-209 -80t-209 80t-86 200z" />
<glyph unicode="&#x2026;" horiz-adv-x="1482" d="M137 86q0 45 33.5 76t79.5 31t79 -31t33 -76t-33 -75.5t-79 -30.5t-79.5 30.5t-33.5 75.5zM629 86q0 45 33 76t79 31t79.5 -31t33.5 -76t-33.5 -75.5t-79.5 -30.5t-79 30.5t-33 75.5zM1120 86q0 45 33.5 76t79.5 31t79.5 -31t33.5 -76t-33.5 -75.5t-79.5 -30.5 t-79.5 30.5t-33.5 75.5z" />
<glyph unicode="&#x202f;" horiz-adv-x="385" />
<glyph unicode="&#x2039;" horiz-adv-x="602" d="M104 479q0 9 3 18t6 14t10 16.5t10 15.5l227 338q12 22 37.5 28t48.5 -6q22 -14 30 -39t-5 -49l-231 -336l231 -336q13 -24 5 -49t-30 -39q-23 -12 -48.5 -5.5t-37.5 28.5l-227 338q-3 5 -10 15.5t-10 16t-6 14t-3 17.5z" />
<glyph unicode="&#x203a;" horiz-adv-x="602" d="M126 94q-8 25 5 49l231 336l-231 336q-13 24 -5 49t30 39q23 12 48.5 6t37.5 -28l227 -338q3 -4 10 -15.5t10 -16.5t6 -14t3 -18t-3 -17.5t-6 -14t-10 -16t-10 -15.5l-227 -338q-12 -22 -37.5 -28.5t-48.5 5.5q-22 14 -30 39z" />
<glyph unicode="&#x205f;" horiz-adv-x="481" />
<glyph unicode="&#x20ac;" horiz-adv-x="1613" d="M94 606q0 22 15 36.5t38 14.5h871q23 0 38 -14.5t15 -36.5t-15 -36.5t-38 -14.5h-559q45 -190 188.5 -310t341.5 -120q211 0 373 139q22 19 49.5 17.5t46.5 -23.5t16.5 -49.5t-24.5 -46.5q-194 -172 -461 -172q-255 0 -437 158.5t-233 406.5h-172q-23 0 -38 14.5 t-15 36.5zM94 811q0 22 15 36.5t38 14.5h172q51 248 233 406.5t437 158.5q267 0 461 -172q22 -19 24.5 -46.5t-16.5 -49.5t-46.5 -23.5t-49.5 17.5q-162 139 -373 139q-198 0 -341.5 -120t-188.5 -310h559q23 0 38 -14.5t15 -36.5t-15 -36.5t-38 -14.5h-871q-23 0 -38 14.5 t-15 36.5z" />
<glyph unicode="&#x2122;" horiz-adv-x="1675" d="M123 1360q0 21 15 36t36 15h594q14 0 28.5 -10t20.5 -23l258 -526l258 526q17 33 51 33h9q20 0 35 -15t18 -36l80 -670v-10q0 -21 -13 -34t-36 -13q-19 0 -34 13t-18 32l-63 530l-225 -456q-23 -45 -62 -45q-35 0 -59 47l-228 456l-63 -532q-3 -20 -16 -32.5t-33 -12.5 q-22 0 -37.5 14.5t-15.5 36.5v6l75 619h-233v-619q0 -22 -13.5 -36.5t-35.5 -14.5q-24 0 -37.5 14.5t-13.5 36.5v619h-191q-22 0 -36.5 14.5t-14.5 36.5z" />
<glyph unicode="&#x25fc;" horiz-adv-x="962" d="M0 0v963h963v-963h-963z" />
</font>
</defs>
</svg>
