<?xml version="1.0" standalone="no"?>
<!DOCTYPE svg PUBLIC "-//W3C//DTD SVG 1.1//EN" "http://www.w3.org/Graphics/SVG/1.1/DTD/svg11.dtd" >
<svg xmlns="http://www.w3.org/2000/svg">
<metadata></metadata>
<defs>
<font id="sofia_pro_soft_regularregular" horiz-adv-x="1247" >
<font-face units-per-em="2048" ascent="1536" descent="-512" />
<missing-glyph horiz-adv-x="528" />
<glyph unicode="&#xfb01;" horiz-adv-x="1165" d="M33 879q0 32 23.5 54.5t56.5 22.5h114v107q0 198 90.5 311t276.5 113h10q37 0 63.5 -26t26.5 -64q0 -37 -26.5 -62.5t-63.5 -25.5h-10q-55 0 -93 -20.5t-56 -57.5t-25 -77t-6 -91v-107h510q39 0 66.5 -27.5t27.5 -66.5v-778q0 -39 -27.5 -66.5t-66.5 -27.5 q-38 0 -65.5 28t-27.5 66v715h-417v-715q0 -38 -28 -66t-67 -28q-38 0 -65 28t-27 66v715h-114q-33 0 -56.5 23.5t-23.5 56.5zM795 1307q0 52 38 86t91 34q55 0 92 -34t37 -86t-37.5 -86.5t-91.5 -34.5q-53 0 -91 34.5t-38 86.5z" />
<glyph unicode="&#xfb02;" horiz-adv-x="1169" d="M33 879q0 32 23.5 54.5t56.5 22.5h114v107q0 196 108 310t320 114q365 0 365 -217v-1186q0 -39 -27.5 -66.5t-66.5 -27.5q-38 0 -65 28t-27 66v1167q0 5 -3 11t-14.5 14.5t-30 15t-52.5 11t-79 4.5q-122 0 -181.5 -65t-59.5 -179v-107h166q33 0 56 -23t23 -56 q0 -32 -23.5 -55t-55.5 -23h-166v-715q0 -38 -28 -66t-67 -28q-38 0 -65 28t-27 66v715h-114q-33 0 -56.5 23.5t-23.5 56.5z" />
<glyph unicode="&#xfb03;" horiz-adv-x="1849" d="M33 879q0 32 23.5 54.5t56.5 22.5h114v107q0 198 90.5 311t276.5 113h65q37 0 64 -26t27 -64q0 -36 -27 -62t-64 -26h-65q-55 0 -93 -20.5t-56 -57.5t-25 -77t-6 -91v-107h452v107q0 198 90.5 311t276.5 113h35q37 0 63.5 -26t26.5 -64q0 -37 -26.5 -62.5t-63.5 -25.5 h-35q-55 0 -93 -20.5t-56 -57.5t-25 -77t-6 -91v-107h555q39 0 66.5 -27.5t27.5 -66.5v-778q0 -39 -27.5 -66.5t-66.5 -27.5q-38 0 -65 28t-27 66v715h-463v-715q0 -38 -27.5 -66t-67.5 -28q-38 0 -65 28t-27 66v715h-452v-715q0 -38 -28 -66t-67 -28q-38 0 -65 28t-27 66 v715h-114q-33 0 -56.5 23.5t-23.5 56.5zM1479 1307q0 52 38 86t91 34q55 0 92 -34t37 -86t-37.5 -86.5t-91.5 -34.5q-53 0 -91 34.5t-38 86.5z" />
<glyph unicode="&#xfb04;" horiz-adv-x="1853" d="M33 879q0 32 23.5 54.5t56.5 22.5h114v107q0 198 90.5 311t276.5 113h27q37 0 63.5 -26t26.5 -64q0 -37 -26.5 -62.5t-63.5 -25.5h-27q-55 0 -93 -20.5t-56 -57.5t-25 -77t-6 -91v-107h458v107q0 200 124 312t343 112q365 0 365 -217v-1186q0 -39 -27.5 -66.5 t-66.5 -27.5q-38 0 -65 28t-27 66v1167q0 5 -3 11t-14.5 14.5t-30 15t-52.5 11t-79 4.5q-129 0 -204.5 -62.5t-75.5 -181.5v-107h166q33 0 56.5 -23t23.5 -56q0 -32 -24 -55t-56 -23h-166v-715q0 -39 -27.5 -66.5t-66.5 -27.5q-38 0 -65.5 28t-27.5 66v715h-458v-715 q0 -38 -28 -66t-67 -28q-38 0 -65 28t-27 66v715h-114q-33 0 -56.5 23.5t-23.5 56.5z" />
<glyph horiz-adv-x="0" />
<glyph horiz-adv-x="682" />
<glyph unicode=" "  horiz-adv-x="528" />
<glyph unicode="&#x09;" horiz-adv-x="528" />
<glyph unicode="&#xa0;" horiz-adv-x="528" />
<glyph unicode="!" horiz-adv-x="518" d="M123 106q0 55 39 92.5t94 37.5q56 0 95.5 -37.5t39.5 -92.5t-39.5 -90.5t-95.5 -35.5q-55 0 -94 35.5t-39 90.5zM166 1325q0 40 26.5 68t65.5 28q41 0 67.5 -28t26.5 -68l-20 -883q0 -31 -21 -52t-53 -21q-31 0 -51.5 21t-20.5 52z" />
<glyph unicode="&#x22;" horiz-adv-x="718" d="M145 889v454q0 32 22.5 55t53.5 23q33 0 55.5 -22.5t22.5 -55.5v-454q0 -33 -22.5 -55.5t-55.5 -22.5q-31 0 -53.5 23t-22.5 55zM420 889v454q0 32 22.5 55t53.5 23q33 0 55 -22.5t22 -55.5v-454q0 -33 -22 -55.5t-55 -22.5q-31 0 -53.5 23t-22.5 55z" />
<glyph unicode="#" horiz-adv-x="1423" d="M76 424q0 32 24 56t54 24h188l117 434h-185q-28 0 -46.5 17.5t-18.5 43.5q0 32 23.5 56t54.5 24h209l75 279q8 28 28.5 45.5t49.5 17.5t46.5 -19.5t17.5 -47.5q0 -13 -2 -19l-72 -256h336l76 279q8 28 28 45.5t49 17.5t46.5 -19.5t17.5 -47.5q0 -13 -2 -19l-70 -256h162 q28 0 47 -18t19 -45q0 -31 -23.5 -54.5t-54.5 -23.5h-187l-116 -434h182q28 0 45.5 -18t17.5 -46q0 -31 -23 -54.5t-54 -23.5h-207l-84 -309q-4 -27 -27 -45t-51 -18q-30 0 -47 19t-17 46q0 12 3 21l79 286h-335l-84 -309q-8 -27 -29 -45t-49 -18q-30 0 -47 18t-17 47 q0 15 2 21l78 286h-164q-26 0 -44.5 18t-18.5 44zM487 504h334l117 434h-334z" />
<glyph unicode="$" horiz-adv-x="1130" d="M96 1030q0 158 116 266.5t284 126.5v152q0 26 21 44.5t48 18.5t48.5 -18.5t21.5 -44.5v-154q136 -19 229 -96t127 -197q6 -21 6 -47q0 -86 -94 -86q-70 0 -88 66q-49 184 -264 184q-107 0 -185.5 -59.5t-78.5 -153.5q0 -148 200 -196l185 -45q183 -45 282 -144.5 t99 -243.5q0 -165 -111 -284t-305 -137v-172q0 -26 -22.5 -45t-49.5 -19t-48 19t-21 45v176q-148 18 -249.5 100.5t-140.5 206.5q-6 21 -6 41q0 41 28 64.5t67 23.5q30 0 53.5 -19t32.5 -49q23 -82 104.5 -139t192.5 -57q132 0 208 67t76 160q1 95 -65.5 149.5t-173.5 81.5 l-183 46q-344 85 -344 368z" />
<glyph unicode="%" horiz-adv-x="1394" d="M76 1104q0 115 78.5 194.5t193.5 79.5q114 0 194.5 -80t80.5 -194q0 -115 -80 -194t-195 -79t-193.5 78.5t-78.5 194.5zM219 1104q0 -56 36.5 -92.5t92.5 -36.5q55 0 93 37t38 92q0 54 -38.5 92.5t-92.5 38.5q-55 0 -92 -38t-37 -93zM330 37q-3 21 6 41l622 1272 q13 29 46 36q26 4 46 -9t25 -38q2 -17 -8 -41l-621 -1271q-14 -31 -45 -37q-26 -4 -46 9t-25 38zM772 252q0 115 78.5 194.5t193.5 79.5q114 0 194.5 -80t80.5 -194q0 -115 -80 -193.5t-195 -78.5q-116 0 -194 78t-78 194zM915 252q0 -56 36.5 -92.5t92.5 -36.5 q55 0 93.5 37t38.5 92q0 54 -39 92.5t-93 38.5q-55 0 -92 -38t-37 -93z" />
<glyph unicode="&#x26;" horiz-adv-x="1345" d="M111 432q0 115 55.5 213t152.5 160q-49 45 -74.5 112t-25.5 142q0 147 106 249.5t261 102.5q169 0 282 -125q22 -24 17 -63t-35 -62q-32 -22 -65.5 -15.5t-61.5 34.5q-56 53 -137 53q-82 0 -135.5 -49.5t-53.5 -124.5q0 -76 52 -135.5t129 -59.5h276v101q0 36 26 62 t62 26t62 -26t26 -62v-103h113q31 0 53.5 -22t22.5 -54q0 -30 -22.5 -51.5t-53.5 -21.5h-113v-281q0 -57 6.5 -99.5t23.5 -81.5t51 -62.5t85 -30.5q34 -6 55 -35.5t17 -67.5q-6 -34 -36.5 -53t-66.5 -14q-85 10 -148 49t-97 96q-53 -72 -147 -111.5t-202 -39.5 q-201 0 -330.5 129t-129.5 321zM289 432q0 -117 78 -194.5t204 -77.5q120 0 199 74t84 186v293h-281q-120 0 -202 -84.5t-82 -196.5z" />
<glyph unicode="'" horiz-adv-x="444" d="M145 889v454q0 32 22.5 55t53.5 23q33 0 55.5 -22.5t22.5 -55.5v-454q0 -33 -22.5 -55.5t-55.5 -22.5q-31 0 -53.5 23t-22.5 55z" />
<glyph unicode="(" horiz-adv-x="610" d="M106 475q0 237 62.5 473.5t191.5 425.5q22 31 52 41.5t61 -2.5q31 -14 41.5 -51.5t-8.5 -69.5q-107 -188 -166 -401.5t-59 -415.5t59 -415.5t166 -401.5q19 -32 8.5 -69.5t-41.5 -51.5q-31 -13 -61 -2.5t-52 41.5q-129 189 -191.5 425.5t-62.5 473.5z" />
<glyph unicode=")" horiz-adv-x="608" d="M95.5 -411.5q-10.5 37.5 8.5 69.5q108 188 167 401.5t59 415.5t-59 415.5t-167 401.5q-19 32 -8.5 69.5t41.5 51.5q31 13 61 2.5t52 -41.5q129 -189 191.5 -425.5t62.5 -473.5t-62.5 -473.5t-191.5 -425.5q-22 -31 -52 -41.5t-61 2.5q-31 14 -41.5 51.5z" />
<glyph unicode="*" horiz-adv-x="935" d="M115 1178q11 29 43.5 37t62.5 -5l189 -69l-13 202q-3 36 18 61.5t54 25.5t53.5 -24.5t18.5 -59.5l-13 -205l185 69q30 13 62.5 5t43.5 -37q12 -30 -4 -59t-49 -38l-205 -55l139 -166q22 -24 20.5 -56.5t-28.5 -53.5q-28 -19 -58.5 -12t-49.5 38l-115 176l-115 -176 q-19 -31 -49.5 -38t-58.5 12q-27 21 -28.5 53.5t20.5 56.5l139 164l-211 57q-32 9 -47.5 37.5t-3.5 59.5z" />
<glyph unicode="+" horiz-adv-x="1034" d="M86 535q0 37 26 60t64 23h258v259q0 38 23 64t59 26q37 0 60.5 -26t23.5 -64v-259h258q38 0 64 -23t26 -60q0 -36 -26 -59t-64 -23h-258v-260q0 -38 -23.5 -64.5t-60.5 -26.5q-36 0 -59 26.5t-23 64.5v260h-258q-38 0 -64 23t-26 59z" />
<glyph unicode="," horiz-adv-x="485" d="M27 -219q0 23 12 41q99 148 113 334q3 38 31 64t65 26q44 0 73 -28.5t29 -70.5v-10q-11 -94 -43 -173t-72 -125.5t-79 -71.5t-70 -25q-23 0 -41 11t-18 28z" />
<glyph unicode="-" horiz-adv-x="1015" d="M141 479q0 37 26.5 62.5t63.5 25.5h553q37 0 63.5 -25.5t26.5 -62.5q0 -38 -26.5 -64t-63.5 -26h-553q-37 0 -63.5 26t-26.5 64z" />
<glyph unicode="." horiz-adv-x="522" d="M127 106q0 55 39 92.5t94 37.5q56 0 95.5 -37.5t39.5 -92.5t-39.5 -90.5t-95.5 -35.5q-55 0 -94 35.5t-39 90.5z" />
<glyph unicode="/" horiz-adv-x="935" d="M72.5 42.5q-9.5 31.5 5.5 59.5l639 1276q14 28 44.5 39t59.5 -4q30 -13 40.5 -45t-3.5 -61l-639 -1274q-15 -29 -46 -39.5t-62 4.5q-29 13 -38.5 44.5z" />
<glyph unicode="0" horiz-adv-x="1224" d="M129 666q0 121 13 218.5t47 187.5t87.5 150.5t139.5 96t198 35.5q113 0 198.5 -35.5t139 -96t87 -150.5t46.5 -187.5t13 -218.5q0 -120 -13 -217t-46.5 -186t-87 -149.5t-139 -96t-198.5 -35.5q-112 0 -198 35.5t-139.5 96t-87.5 149.5t-47 186.5t-13 216.5zM313 666 q0 -88 8 -159t28.5 -136.5t54 -109.5t86.5 -70.5t124 -26.5t124 26.5t86.5 70.5t54 109.5t28.5 136.5t8 159q0 89 -8 160t-28.5 137t-54 110t-86.5 70t-124 26t-124 -26t-86.5 -70t-54 -110t-28.5 -137t-8 -160z" />
<glyph unicode="1" horiz-adv-x="675" d="M63 1163q0 27 16 50t42 32l241 88q47 15 64 15h4q24 0 40.5 -17t16.5 -41v-1208q0 -37 -27 -64.5t-65 -27.5t-65 27.5t-27 64.5v1051l-129 -46q-38 -14 -74.5 10t-36.5 66z" />
<glyph unicode="2" horiz-adv-x="1064" d="M111 1053q0 6 4 22q44 129 153 204t248 75q178 0 299 -111t121 -285q0 -181 -145 -346q-97 -113 -195.5 -230t-167.5 -198h428q37 0 64.5 -27t27.5 -65t-27.5 -65t-64.5 -27h-680q-28 0 -45.5 16.5t-17.5 42.5t30 60l512 620q99 121 99 219q0 95 -68.5 153t-169.5 58 q-73 0 -132.5 -37t-88.5 -102q-29 -72 -94 -72q-39 0 -64.5 28t-25.5 67z" />
<glyph unicode="3" horiz-adv-x="1071" d="M92 262q9 35 41 55q33 18 67 8.5t58 -42.5q43 -59 97 -91t134 -32q124 2 200 58t77 167q0 118 -73 182t-185 64h-72q-37 0 -60.5 22.5t-23.5 59.5q0 38 23.5 61t60.5 23h72q70 0 121 46t63 113q15 86 -22 138q-22 32 -64 53t-92 24q-112 9 -190 -69q-31 -27 -65.5 -28 t-61.5 26q-29 27 -28.5 64t28.5 65q61 65 148 99t185 28q162 -9 268 -118.5t101 -252.5q0 -39 -12 -82q-37 -120 -146 -182q103 -39 162 -138t49 -223q-10 -111 -79.5 -201t-178.5 -137t-231 -38q-111 7 -205.5 63.5t-155.5 147.5q-19 32 -10 67z" />
<glyph unicode="4" horiz-adv-x="1148" d="M53 348q0 34 29 74l616 881q17 24 34 35.5t46 11.5q34 0 57 -23t23 -55v-823h137q35 0 61.5 -26.5t26.5 -62.5q0 -35 -26.5 -60.5t-61.5 -25.5h-137v-192q0 -37 -27 -64.5t-65 -27.5q-37 0 -63.5 27.5t-26.5 64.5v192h-545q-34 0 -56 21t-22 53zM293 449h383v557z" />
<glyph unicode="5" horiz-adv-x="1142" d="M115 290q11 35 45 54q34 15 67.5 4t53.5 -45q43 -69 108 -107t143 -38q161 0 241.5 76t80.5 196q0 123 -79.5 189.5t-196.5 66.5q-87 0 -157 -23.5t-175 -87.5q-16 -9 -31.5 -8.5t-26 5.5t-28.5 16q-38 25 -29 82l105 600q6 30 27 47.5t48 17.5h572q36 0 62 -26t26 -62 t-26 -62t-62 -26h-484l-84 -407q46 47 139 76.5t162 29.5q110 0 203.5 -47.5t154 -147t60.5 -233.5q0 -204 -138.5 -327t-363.5 -123q-123 0 -232.5 65t-178.5 178q-17 32 -6 67z" />
<glyph unicode="6" horiz-adv-x="1114" d="M127 596q0 758 471 758q220 0 338 -152q22 -29 17 -66.5t-35 -60.5q-31 -22 -66.5 -16t-60.5 35q-72 86 -185 86q-282 0 -297 -484q42 70 126 111t177 41q171 0 283.5 -121t112.5 -297q0 -120 -58 -223.5t-157 -164t-215 -60.5q-226 0 -338.5 161.5t-112.5 452.5z M317 434q0 -111 72.5 -187t177.5 -79q110 0 184 72t74 186q0 108 -65 181t-172 73q-126 0 -198.5 -66.5t-72.5 -179.5z" />
<glyph unicode="7" horiz-adv-x="1024" d="M96 1245q0 38 27.5 65t64.5 27h719q32 0 52 -17.5t20 -47.5q0 -24 -21 -66l-641 -1167q-19 -33 -56 -44.5t-71 7.5q-35 18 -45 56.5t9 70.5l565 1026h-531q-37 0 -64.5 26.5t-27.5 63.5z" />
<glyph unicode="8" horiz-adv-x="1146" d="M113 418q0 111 54 205.5t148 152.5q-98 95 -98 236q0 143 102 242.5t254 99.5q153 0 257 -100t104 -242q0 -69 -28 -130.5t-77 -105.5q96 -59 150.5 -153t54.5 -205q0 -183 -133 -309.5t-328 -126.5q-196 0 -328 126t-132 310zM297 428q0 -108 80 -188t196 -80t196.5 80 t80.5 188q0 110 -75 187t-202 77h-14q-121 0 -191.5 -78t-70.5 -186zM399 1001q0 -67 47.5 -118t116.5 -54h17q72 3 121 54t49 118q0 71 -48.5 125t-128.5 54q-83 0 -128.5 -53.5t-45.5 -125.5z" />
<glyph unicode="9" horiz-adv-x="1114" d="M106 905q0 120 58 223.5t157.5 164.5t215.5 61q226 0 338 -162t112 -453q0 -757 -471 -757q-221 0 -338 151q-22 29 -16.5 66.5t35.5 60.5q31 22 66.5 16.5t60.5 -34.5q72 -86 184 -86q71 0 124.5 33t84.5 82.5t51.5 119t27.5 130t9 128.5q-82 -162 -303 -162 q-171 0 -283.5 121t-112.5 297zM289 909q0 -105 67.5 -177.5t169.5 -76.5q110 0 190.5 68.5t80.5 177.5q0 111 -72.5 187t-177.5 79q-110 0 -184 -72t-74 -186z" />
<glyph unicode=":" horiz-adv-x="550" d="M141 106q0 55 39.5 92.5t95.5 37.5q55 0 94.5 -37.5t39.5 -92.5q0 -54 -39.5 -90t-94.5 -36q-56 0 -95.5 35.5t-39.5 90.5zM141 850q0 55 39.5 91t95.5 36q55 0 94.5 -36t39.5 -91t-39.5 -92t-94.5 -37q-56 0 -95.5 37t-39.5 92z" />
<glyph unicode=";" horiz-adv-x="559" d="M59 -219q0 21 13 41q98 146 112 334q3 38 31.5 64t65.5 26q44 0 73 -28.5t29 -70.5v-10q-11 -94 -43 -173t-72 -125.5t-79 -71.5t-70 -25q-23 0 -41.5 11t-18.5 28zM158 850q0 55 38.5 91t94.5 36t95.5 -36t39.5 -91t-39.5 -92t-95.5 -37t-94.5 37t-38.5 92z" />
<glyph unicode="&#x3c;" horiz-adv-x="1273" d="M82 547v8q0 37 18 65.5t54 41.5l847 325q32 12 56 12q36 1 61 -25t25 -65q0 -65 -62 -90l-729 -268l729 -268q62 -25 62 -90q0 -39 -25 -65.5t-61 -25.5q-21 0 -56 13l-847 325q-36 13 -54 41.5t-18 65.5z" />
<glyph unicode="=" horiz-adv-x="1265" d="M152 315q0 37 26.5 62.5t63.5 25.5h782q37 0 63.5 -25.5t26.5 -62.5q0 -38 -26.5 -64t-63.5 -26h-782q-37 0 -63.5 26t-26.5 64zM152 711q0 37 26.5 62.5t63.5 25.5h782q37 0 63.5 -25.5t26.5 -62.5q0 -38 -26.5 -64t-63.5 -26h-782q-37 0 -63.5 26t-26.5 64z" />
<glyph unicode="&#x3e;" horiz-adv-x="1273" d="M131 193q0 65 62 90l729 268l-729 268q-62 25 -62 90q0 39 25 65t61 25q23 0 55 -12l848 -325q36 -13 54 -41.5t18 -65.5v-8q0 -37 -18 -65.5t-54 -41.5l-848 -325q-35 -13 -55 -13q-36 -1 -61 25.5t-25 65.5z" />
<glyph unicode="?" horiz-adv-x="976" d="M86 1096q29 152 138 241.5t255 89.5q112 0 207 -47.5t154 -140t59 -211.5q0 -144 -84 -248t-211 -139q-77 -22 -109 -51.5t-36 -97.5l-2 -31q0 -37 -27 -64.5t-65 -27.5q-37 0 -64 27.5t-27 64.5v31q0 72 20 127t59 92.5t85.5 61.5t110.5 44q67 19 117.5 80t50.5 131 q0 96 -71.5 156.5t-166.5 60.5q-80 0 -143 -51.5t-80 -138.5q-8 -37 -39.5 -56.5t-66.5 -9.5q-35 7 -53.5 39t-10.5 68zM231 109q0 55 40 92t96 37t94.5 -37t38.5 -92t-38.5 -91t-94.5 -36t-96 36t-40 91z" />
<glyph unicode="@" horiz-adv-x="2035" d="M106 518q0 184 69 350.5t186.5 288t282.5 193t349 71.5q186 0 356 -65.5t296 -179.5t201 -276.5t75 -346.5q0 -76 -12.5 -153t-42 -156t-72.5 -139t-111 -98t-151 -38q-60 0 -110 14.5t-92.5 47t-66.5 92t-24 141.5v264q0 112 -78 189.5t-188 77.5t-188 -77.5t-78 -189.5 q0 -110 78.5 -186t187.5 -76q45 0 82 15q29 11 54.5 4t37.5 -31q10 -26 0 -56.5t-35 -43.5q-56 -35 -139 -35q-169 0 -290.5 120.5t-121.5 288.5q0 171 121.5 291.5t290.5 120.5q163 0 284 -115q119 -109 125 -278v-297q0 -137 150 -137q57 0 101.5 30t70 76t42 107 t22.5 116t6 111q0 154 -63 289.5t-169.5 230t-249.5 149t-299 54.5q-206 0 -377 -102t-268.5 -276t-97.5 -380t97.5 -378t268.5 -271.5t377 -99.5h17q31 0 53 -22.5t22 -53.5q0 -29 -22 -49.5t-53 -20.5h-17q-184 0 -349 70t-282.5 189.5t-186.5 285t-69 350.5z" />
<glyph unicode="A" horiz-adv-x="1271" d="M43 47q-8 18 -7.5 36.5t7.5 37.5l459 1208q40 92 131 92h10q90 0 127 -92l459 -1208q8 -19 7.5 -37.5t-7.5 -36.5q-15 -36 -53 -51q-18 -7 -35 -7q-20 0 -39 9q-36 16 -49 53l-117 307h-598l-119 -307q-13 -37 -49 -53q-19 -9 -39 -9q-17 0 -35 7q-38 15 -53 51zM403 530 h467l-233 662z" />
<glyph unicode="B" horiz-adv-x="1277" d="M186 82v1247q0 34 24 58t56 24h453q177 0 280 -98.5t103 -265.5q0 -99 -42.5 -179t-135.5 -116q113 -24 183.5 -127.5t70.5 -216.5q0 -111 -48.5 -203t-144 -148.5t-221.5 -56.5h-498q-32 0 -56 24t-24 58zM379 178h377q100 0 162.5 69t62.5 163q0 92 -65 169.5 t-166 77.5h-371v-479zM379 825h340q90 0 139 62t49 153t-56.5 143t-152.5 52h-319v-410z" />
<glyph unicode="C" horiz-adv-x="1380" d="M100 705q0 148 56 281.5t151.5 230t228 153.5t279.5 57q277 0 469 -176q28 -25 31 -63v-9q0 -33 -21 -61q-26 -30 -66 -32q-4 0 -8 -1q-35 0 -61 23q-151 135 -344 135q-145 0 -265.5 -72.5t-189.5 -196.5t-69 -272q0 -147 69 -271t189.5 -195.5t265.5 -71.5 q193 0 344 135q26 23 61 23h8q40 -2 66 -33q21 -28 21 -61v-8q-3 -38 -31 -64q-192 -176 -469 -176q-196 0 -360.5 97t-259.5 263.5t-95 364.5z" />
<glyph unicode="D" horiz-adv-x="1474" d="M186 82v1247q0 34 24 58t56 24h467q147 0 268 -54.5t200.5 -150t123 -225t43.5 -279.5t-43.5 -278t-123.5 -222.5t-200.5 -148t-267.5 -53.5h-467q-32 0 -56 24t-24 58zM377 178h356q107 0 192.5 40t140 111t83.5 166t29 207q0 151 -49 269.5t-151.5 190t-244.5 71.5 h-356v-1055z" />
<glyph unicode="E" horiz-adv-x="1138" d="M184 98v1215q0 39 29 68.5t68 29.5h659q37 0 63.5 -25.5t26.5 -62.5q0 -38 -26.5 -64t-63.5 -26h-565v-451h487q37 0 63.5 -26t26.5 -64q0 -37 -26.5 -62.5t-63.5 -25.5h-487v-426h590q37 0 63.5 -26t26.5 -64q0 -37 -26.5 -62.5t-63.5 -25.5h-684q-39 0 -68 29t-29 69z " />
<glyph unicode="F" horiz-adv-x="1079" d="M186 86v1227q0 39 29 68.5t68 29.5h647q37 0 63.5 -25.5t26.5 -62.5q0 -38 -26.5 -64t-63.5 -26h-553v-451h422q37 0 63.5 -25.5t26.5 -62.5q0 -38 -26.5 -64t-63.5 -26h-422v-518q0 -40 -27.5 -68t-68.5 -28q-40 0 -67.5 28t-27.5 68z" />
<glyph unicode="G" horiz-adv-x="1523" d="M100 702q0 198 94 364.5t258 263.5t361 97q62 0 136.5 -14t143.5 -39t115.5 -65t46.5 -86q0 -39 -25.5 -64.5t-60.5 -25.5q-39 0 -67 22q-134 90 -289 90q-145 0 -265 -73t-188.5 -197.5t-68.5 -272.5t68.5 -272t188.5 -196t265 -72q193 0 321.5 104t137.5 277h-340 q-34 0 -59 24.5t-25 59.5q0 34 25 58t59 24h457q41 0 57 -22.5t16 -72.5q0 -188 -84.5 -333t-231.5 -223t-333 -78q-148 0 -280.5 57t-227 154t-150 230.5t-55.5 280.5z" />
<glyph unicode="H" horiz-adv-x="1435" d="M186 86v1239q0 40 27.5 68t67.5 28q41 0 68.5 -28t27.5 -68v-537h682v537q0 40 27 68t67 28q41 0 68.5 -28t27.5 -68v-1239q0 -40 -27.5 -68t-68.5 -28q-40 0 -67 28t-27 68v528h-682v-528q0 -40 -27.5 -68t-68.5 -28q-40 0 -67.5 28t-27.5 68z" />
<glyph unicode="I" horiz-adv-x="563" d="M186 86v1239q0 40 27.5 68t67.5 28q41 0 68.5 -28t27.5 -68v-1239q0 -40 -27.5 -68t-68.5 -28q-40 0 -67.5 28t-27.5 68z" />
<glyph unicode="J" horiz-adv-x="563" d="M-219 -371q6 38 35 59q22 16 51 16q7 0 14 -1q29 -4 62 -4q64 0 112.5 23t76 63.5t41 89.5t13.5 107v1343q0 40 27.5 68t67.5 28q41 0 68.5 -28t27.5 -68v-1343q0 -77 -14.5 -143.5t-47.5 -125t-82 -100.5t-123 -66t-167 -24q-42 0 -86 8q-37 6 -59 35q-18 23 -18 50 q0 7 1 13z" />
<glyph unicode="K" horiz-adv-x="1114" d="M184 86v1239q0 40 27.5 68t67.5 28q41 0 68.5 -28t27.5 -68v-524l442 577q24 32 59 40q9 2 18 2q25 0 50 -15q38 -21 46 -59q2 -10 2 -19q0 -27 -19 -51l-438 -569l514 -555q28 -29 28 -66t-26 -63q-29 -32 -68 -34h-5q-36 0 -60 29l-543 584v-516q0 -40 -27.5 -68 t-68.5 -28q-40 0 -67.5 28t-27.5 68z" />
<glyph unicode="L" horiz-adv-x="993" d="M184 98v1227q0 40 27.5 68t67.5 28q41 0 68.5 -28t27.5 -68v-1147h495q37 0 64 -26t27 -62q0 -38 -27 -64t-64 -26h-589q-39 0 -68 29t-29 69z" />
<glyph unicode="M" horiz-adv-x="1931" d="M133 78v12l152 1239q5 38 30.5 65t61.5 27h20q64 0 88 -49l480 -997l479 997q9 22 33.5 35.5t56.5 13.5h20q36 0 62 -27t31 -65l151 -1239v-12q0 -37 -26.5 -62.5t-65.5 -25.5q-38 0 -63.5 24t-30.5 62l-121 985l-420 -864q-41 -84 -104 -84q-64 0 -105 84l-424 864 l-119 -985q-4 -38 -30.5 -62t-63.5 -24q-39 0 -65.5 25.5t-26.5 62.5z" />
<glyph unicode="N" horiz-adv-x="1386" d="M184 86v1241q0 38 28.5 66t66.5 28h26q65 0 96 -55l609 -1010v969q0 40 27 68t67 28q41 0 68.5 -28t27.5 -68v-1245q0 -37 -26.5 -63.5t-63.5 -26.5h-27q-61 0 -92 53l-616 1020v-977q0 -40 -27 -68t-67 -28q-41 0 -69 28t-28 68z" />
<glyph unicode="O" horiz-adv-x="1630" d="M100 702q0 198 94 364.5t258 263.5t361 97q198 0 363 -97t259.5 -263.5t94.5 -364.5q0 -147 -56 -280.5t-151 -230.5t-228.5 -154t-281.5 -57t-280.5 57t-227 154t-150 230.5t-55.5 280.5zM291 702q0 -148 68.5 -271.5t188.5 -195t265 -71.5q146 0 266.5 71.5t189 195 t68.5 271.5t-68.5 272t-189 196.5t-266.5 72.5q-145 0 -265 -72.5t-188.5 -196.5t-68.5 -272z" />
<glyph unicode="P" horiz-adv-x="1239" d="M186 86v1243q0 34 24 58t56 24h484q87 0 158 -25t119 -67t80.5 -99t47 -120t14.5 -131q0 -87 -24 -163.5t-72.5 -140t-131.5 -100.5t-191 -37h-373v-442q0 -40 -27.5 -68t-68.5 -28q-40 0 -67.5 28t-27.5 68zM379 707h358q82 0 138.5 39t80 96.5t23.5 126.5 q0 68 -22.5 126t-76.5 98t-132 40h-369v-526z" />
<glyph unicode="Q" horiz-adv-x="1630" d="M100 702q0 198 94 364.5t258 263.5t361 97q198 0 363 -97t259.5 -263.5t94.5 -364.5q0 -191 -90.5 -353.5t-245.5 -260.5l111 -174q13 -19 13 -42q0 -10 -2 -21q-8 -36 -40 -56q-21 -13 -43 -13q-11 0 -23 4q-33 9 -53 38l-121 190q-103 -34 -223 -34q-148 0 -280.5 57 t-227 154t-150 230.5t-55.5 280.5zM291 702q0 -214 138 -366t347 -164q26 -2 51 -2q59 0 107 12l-109 170q-13 20 -13 44q0 10 2 20q8 35 40 55q23 13 46 13q10 0 21 -2q34 -9 52 -38l121 -196q113 71 178 190.5t65 263.5q0 148 -68.5 272t-189 196.5t-266.5 72.5 q-145 0 -265 -72.5t-188.5 -196.5t-68.5 -272z" />
<glyph unicode="R" d="M186 86v1243q0 34 24 58t56 24h463q107 0 190 -37.5t131 -101t72.5 -140.5t24.5 -163q0 -81 -21 -153t-64 -133t-115.5 -100.5t-168.5 -47.5l277 -394q18 -27 18 -56q0 -8 -1 -16q-6 -38 -40 -61q-25 -18 -53 -18q-9 0 -17 2q-38 8 -63 41l-340 495h-182v-442 q0 -40 -27.5 -68t-68.5 -28q-40 0 -67.5 28t-27.5 68zM379 707h336q62 0 109 22t73.5 60t39.5 83.5t13 96.5q0 69 -21.5 126.5t-74.5 97.5t-131 40h-344v-526z" />
<glyph unicode="S" horiz-adv-x="1159" d="M111 1030q0 115 64 207t168 141t224 49q167 0 283.5 -80.5t155.5 -218.5q6 -21 6 -47q0 -86 -94 -86q-71 0 -89 66q-49 184 -264 184q-107 0 -185.5 -59.5t-78.5 -153.5q0 -147 201 -196l184 -45q183 -45 282 -144.5t99 -243.5q0 -86 -32 -162t-91 -134.5t-150.5 -92.5 t-201.5 -34q-180 0 -303.5 86.5t-167.5 226.5q-6 21 -6 41q0 41 27.5 64.5t66.5 23.5q30 0 53.5 -19t32.5 -49q23 -82 104.5 -139t192.5 -57q133 0 209 67.5t76 159.5q1 50 -19 90t-56 66.5t-75.5 44t-89.5 30.5l-182 46q-344 85 -344 368z" />
<glyph unicode="T" horiz-adv-x="1142" d="M33 1323q0 37 26.5 62.5t63.5 25.5h897q37 0 63.5 -25.5t26.5 -62.5q0 -38 -26.5 -64t-63.5 -26h-352v-1147q0 -40 -28 -68t-69 -28q-40 0 -67 28t-27 68v1147h-354q-37 0 -63.5 26t-26.5 64z" />
<glyph unicode="U" horiz-adv-x="1380" d="M174 485v840q0 40 27 68t67 28q41 0 69 -28t28 -68v-840q0 -142 95 -231.5t230 -89.5t230.5 89.5t95.5 231.5v840q0 40 27 68t67 28q41 0 68.5 -28t27.5 -68v-840q0 -112 -41.5 -208t-112 -160.5t-164.5 -100.5t-198 -36t-198 36t-164.5 100.5t-112 160.5t-41.5 208z" />
<glyph unicode="V" horiz-adv-x="1105" d="M63 1331q0 39 26 64.5t69 25.5q73 0 96 -80l299 -1028l297 1028q23 80 96 80q43 0 68.5 -25.5t25.5 -64.5q0 -10 -4 -26l-370 -1239q-11 -35 -37.5 -55.5t-65.5 -20.5h-18q-40 0 -67 20.5t-36 55.5l-374 1239q-5 20 -5 26z" />
<glyph unicode="W" horiz-adv-x="1837" d="M68 1294q-5 16 -5 31q1 23 11 45q18 37 55 47q14 4 28 4q23 0 45 -12q36 -19 48 -57l336 -1045l245 862q16 60 82 60h11q31 0 52.5 -16t29.5 -44l245 -862l336 1045q11 38 47 57q22 12 46 12q14 0 28 -4q38 -9 57 -47q12 -23 12 -47q0 -15 -5 -29l-414 -1224 q-12 -36 -38 -58t-60 -22h-15q-35 0 -61 21.5t-37 58.5l-229 811l-228 -811q-12 -36 -38 -58t-60 -22h-14q-35 0 -61 21.5t-38 58.5z" />
<glyph unicode="X" horiz-adv-x="1183" d="M59 69q-1 7 -1 14q0 32 20 58l399 617l-348 516q-16 25 -16 51q0 11 3 21q9 38 44 61q23 14 48 14q12 0 24 -3q38 -10 59 -44l301 -461l301 461q21 34 59 44q12 3 24 3q25 0 48 -14q35 -23 44 -61q3 -11 3 -21q0 -26 -16 -51l-348 -516l399 -617q20 -26 20 -57 q0 -7 -2 -15q-6 -40 -39 -63q-24 -16 -52 -16q-11 0 -21 2q-40 8 -62 39l-358 569l-359 -569q-23 -31 -63 -39q-10 -2 -20 -2q-29 0 -52 16q-34 23 -39 63z" />
<glyph unicode="Y" horiz-adv-x="1208" d="M50 1344q5 38 38 61q23 16 50 16q9 0 18 -1q38 -8 61 -40l383 -540l387 540q23 32 61 40q9 1 18 1q27 0 50 -16q33 -23 40 -62q2 -9 2 -18q0 -29 -17 -53l-443 -623v-563q0 -40 -28 -68t-70 -28q-41 0 -68.5 28t-27.5 68v563l-438 625q-18 26 -18 55q0 7 2 15z" />
<glyph unicode="Z" horiz-adv-x="1175" d="M59 72v8q0 44 35 96l740 1055h-635q-39 0 -66 25t-27 63q0 39 27 65.5t66 26.5h825q31 0 54.5 -21.5t23.5 -50.5v-8q0 -43 -35 -96l-741 -1055h667q39 0 65.5 -25t26.5 -63q0 -39 -26.5 -65.5t-65.5 -26.5h-856q-31 0 -54.5 21.5t-23.5 50.5z" />
<glyph unicode="[" horiz-adv-x="663" d="M176 -397v1740q0 28 20 48t48 20h268q35 0 60.5 -24.5t25.5 -59.5q0 -36 -25 -61t-61 -25h-152v-1536h152q35 0 60.5 -24.5t25.5 -59.5q0 -36 -25 -61t-61 -25h-268q-28 0 -48 20t-20 48z" />
<glyph unicode="\" horiz-adv-x="935" d="M74.5 1368q10.5 32 40.5 45q29 15 59.5 4t44.5 -39l639 -1276q15 -28 5.5 -59.5t-38.5 -44.5q-31 -15 -62 -4.5t-46 39.5l-639 1274q-14 29 -3.5 61z" />
<glyph unicode="]" horiz-adv-x="663" d="M66 -379q0 35 25.5 59.5t60.5 24.5h151v1536h-151q-36 0 -61 25t-25 61q0 35 25.5 59.5t60.5 24.5h268q28 0 47.5 -20t19.5 -48v-1740q0 -28 -19.5 -48t-47.5 -20h-268q-36 0 -61 25t-25 61z" />
<glyph unicode="_" horiz-adv-x="1421" d="M127 -139q0 34 24.5 58t59.5 24h1001q35 0 59.5 -24t24.5 -58q0 -36 -24 -60t-60 -24h-1001q-36 0 -60 24t-24 60z" />
<glyph unicode="`" horiz-adv-x="999" d="M264 1382q0 27 43 52.5t86 25.5q49 0 88 -57l144 -234q12 -15 12 -36q0 -17 -12.5 -27t-32.5 -10q-37 0 -61 9.5t-54 39.5l-178 180q-35 40 -35 57z" />
<glyph unicode="a" d="M92 479q0 148 67 263t177 175t242 60q105 0 197.5 -42.5t137.5 -121.5v59q0 38 27.5 66.5t65.5 28.5q39 0 66.5 -28t27.5 -67v-788q0 -39 -27.5 -66.5t-66.5 -27.5q-38 0 -65.5 28t-27.5 66v63q-46 -79 -138.5 -123t-196.5 -44q-202 0 -344 139t-142 360zM283 481 q0 -139 90 -229t221 -90q133 0 225 86t92 233q0 98 -48 171.5t-118.5 108t-150.5 34.5q-132 0 -221.5 -87t-89.5 -227z" />
<glyph unicode="b" horiz-adv-x="1249" d="M152 84v1309q0 38 27 66t65 28q39 0 66.5 -27.5t27.5 -66.5v-580q46 79 137 121.5t199 42.5q133 0 242 -60t175 -175t66 -263q0 -147 -67 -262.5t-177 -176t-241 -60.5q-104 0 -196 44t-138 123v-63q0 -39 -27.5 -66.5t-66.5 -27.5q-38 0 -65 28t-27 66zM340 481 q0 -147 92 -233t225 -86q131 0 220.5 90t89.5 229q0 140 -89 227t-221 87q-80 0 -150.5 -34.5t-118.5 -108t-48 -171.5z" />
<glyph unicode="c" horiz-adv-x="1011" d="M90 481q1 145 71.5 260t185 175.5t249.5 60.5q163 0 303 -96q31 -22 33 -63q0 -4 1 -7q0 -36 -24 -63q-24 -24 -61 -28q-5 0 -10 -1q-32 0 -60 20q-80 58 -182 58q-133 0 -228.5 -90.5t-95.5 -231.5q3 -138 98 -226.5t226 -88.5q103 0 182 57q31 22 65 22q3 -1 5 -1 q36 -2 61 -29q24 -26 24 -63q-1 -4 -1 -7q-2 -41 -33 -63q-132 -96 -303 -96q-136 0 -251 61t-185 177t-70 263z" />
<glyph unicode="d" horiz-adv-x="1249" d="M92 479q0 148 66 263t175 175t242 60q108 0 199 -42.5t137 -121.5v580q0 39 27.5 66.5t67.5 27.5q38 0 65 -28t27 -66v-1309q0 -38 -27 -66t-65 -28q-40 0 -67.5 28t-27.5 66v63q-46 -79 -137.5 -123t-195.5 -44q-202 0 -344 139t-142 360zM283 481q0 -139 89 -229 t220 -90q133 0 225 86t92 233q0 98 -48 171.5t-118.5 108t-150.5 34.5q-132 0 -220.5 -87t-88.5 -227z" />
<glyph unicode="e" horiz-adv-x="1128" d="M92 481q0 222 140.5 359t349.5 137q207 0 341 -136t134 -360q0 -31 -22 -52t-52 -21h-704q17 -119 102 -190t207 -71q85 0 139 23t104 78q27 30 62 37q9 2 18 2q25 0 45 -15q28 -22 33.5 -56.5t-16.5 -59.5q-67 -87 -169 -131.5t-222 -44.5q-208 0 -349 139t-141 362z M279 553h593q-17 119 -95.5 187.5t-194.5 68.5q-120 0 -203 -68.5t-100 -187.5z" />
<glyph unicode="f" horiz-adv-x="684" d="M33 879q0 32 23.5 54.5t56.5 22.5h114v107q0 198 90.5 311t276.5 113h27q37 0 63.5 -26t26.5 -64q0 -37 -26.5 -62.5t-63.5 -25.5h-27q-55 0 -93 -20.5t-56 -57.5t-25 -77q-6 -35 -6 -78v-13v-107h166q33 0 56 -23t23 -56q0 -32 -23.5 -55t-55.5 -23h-166v-715 q0 -38 -28 -66t-67 -28q-38 0 -65 28t-27 66v715h-114q-33 0 -56.5 23.5t-23.5 56.5z" />
<glyph unicode="g" horiz-adv-x="1249" d="M92 475q0 148 67 264t177 177t242 61q104 0 196.5 -45t138.5 -125v65q0 38 27.5 66.5t65.5 28.5q39 0 66.5 -28t27.5 -67v-727q-3 -622 -525 -622q-115 0 -217.5 50t-173.5 144q-14 20 -14 43q0 11 4 22q9 37 41 56q19 10 39 10q12 0 26 -4q33 -11 62 -43 q45 -50 106.5 -76t126.5 -26q340 0 340 434q0 15 -2 23q-41 -82 -136 -129t-199 -47q-132 0 -242 59.5t-177 174t-67 261.5zM283 477q0 -143 89 -229t222 -86q59 0 115 21t101.5 60t73 100t27.5 134q0 148 -91.5 233t-225.5 85q-131 0 -221 -90t-90 -228z" />
<glyph unicode="h" horiz-adv-x="1177" d="M150 84v1309q0 38 27 66t65 28q39 0 66.5 -27.5t27.5 -66.5v-580q39 79 132 121.5t183 42.5q181 0 284.5 -112t102.5 -312v-469q0 -39 -27.5 -66.5t-66.5 -27.5q-38 0 -65 28t-27 66v457q0 117 -62.5 185.5t-162.5 68.5q-52 0 -101 -15.5t-93 -46.5t-70.5 -87.5 t-26.5 -129.5v-432q0 -39 -27.5 -66.5t-66.5 -27.5q-38 0 -65 28t-27 66z" />
<glyph unicode="i" horiz-adv-x="481" d="M111 1307q0 52 38 86t91 34q55 0 92 -34t37 -86t-37.5 -86.5t-91.5 -34.5q-53 0 -91 34.5t-38 86.5zM147 84q0 -38 27.5 -66t65.5 -28q39 0 66.5 27.5t27.5 66.5v788q0 39 -27.5 67t-66.5 28q-38 0 -65.5 -28.5t-27.5 -66.5v-788z" />
<glyph unicode="j" horiz-adv-x="485" d="M-150 -383q0 36 26.5 62t62.5 26h38q56 0 93 21t53.5 58.5t22.5 73.5q4 31 4 71v14v929q0 39 27 67t65 28q39 0 66.5 -28t27.5 -67v-931q0 -410 -342 -410h-55q-36 0 -62.5 25.5t-26.5 60.5zM115 1309q0 52 38 86.5t91 34.5q54 0 91.5 -34.5t37.5 -86.5t-37.5 -86.5 t-91.5 -34.5q-53 0 -91 34.5t-38 86.5z" />
<glyph unicode="k" horiz-adv-x="956" d="M150 84v1309q0 38 27 66t65 28q39 0 66.5 -27.5t27.5 -66.5v-770l313 317q25 26 63 27h2q37 0 62 -25q27 -30 27 -67t-27 -64l-270 -270l383 -398q24 -28 24 -64q0 -39 -28 -63q-29 -27 -64 -27h-3q-37 1 -64 27l-418 451v-383q0 -39 -27.5 -66.5t-66.5 -27.5 q-38 0 -65 28t-27 66z" />
<glyph unicode="l" horiz-adv-x="485" d="M150 84v1309q0 38 27 66t65 28q39 0 66.5 -27.5t27.5 -66.5v-1309q0 -39 -27.5 -66.5t-66.5 -27.5q-38 0 -65 28t-27 66z" />
<glyph unicode="m" horiz-adv-x="1792" d="M147 84v788q0 38 27.5 66.5t65.5 28.5q39 0 66.5 -28t27.5 -67v-59q35 72 114.5 115.5t149.5 48.5q14 1 27 1q40 0 77 -7q179 -27 250 -191q102 197 332 197q179 0 274 -111t95 -313v-469q0 -39 -27.5 -66.5t-66.5 -27.5q-38 0 -65.5 28t-27.5 66v457q0 119 -58 186.5 t-161 67.5h-3q-114 1 -182 -77q-69 -78 -69 -202v-432q0 -39 -27.5 -66.5t-66.5 -27.5q-38 0 -65 28t-27 66v459q0 118 -56.5 187t-150.5 69q-52 0 -98 -16.5t-84.5 -49t-61 -88.5t-22.5 -129v-432q0 -39 -27.5 -66.5t-66.5 -27.5q-38 0 -65.5 28t-27.5 66z" />
<glyph unicode="n" horiz-adv-x="1140" d="M147 84v788q0 38 27.5 66.5t65.5 28.5q39 0 66.5 -28t27.5 -67v-59q40 80 126 122t173 42q178 0 273 -111t95 -313v-469q0 -39 -27.5 -66.5t-66.5 -27.5q-38 0 -65 28t-27 66v457q0 120 -56 187t-155 67q-53 0 -99.5 -15.5t-85.5 -47.5t-62 -87.5t-23 -128.5v-432 q0 -39 -27.5 -66.5t-66.5 -27.5q-38 0 -65.5 28t-27.5 66z" />
<glyph unicode="o" horiz-adv-x="1185" d="M92 481q0 147 68.5 261.5t181.5 174.5t250 60t250.5 -60t182.5 -174.5t69 -261.5t-69 -263t-183 -177t-250 -61t-249.5 61t-182 177t-68.5 263zM276 481q0 -143 91.5 -232t224.5 -89q132 0 223.5 89t91.5 232q0 141 -91 227.5t-224 86.5t-224.5 -86.5t-91.5 -227.5z" />
<glyph unicode="p" horiz-adv-x="1241" d="M150 -377v1249q0 39 27 67t65 28q39 0 66.5 -28t27.5 -67v-65q46 79 138.5 124.5t195.5 45.5q201 0 340 -140t139 -362q0 -147 -65.5 -261.5t-173.5 -174t-240 -59.5q-106 0 -197.5 41.5t-136.5 121.5v-520q0 -39 -27.5 -66.5t-66.5 -27.5q-38 0 -65 28t-27 66zM338 473 q0 -145 94 -228t219 -83q132 0 221 86t89 225q0 141 -89.5 231.5t-220.5 90.5t-222 -87.5t-91 -234.5z" />
<glyph unicode="q" horiz-adv-x="1241" d="M92 475q0 222 139 362t340 140q103 0 196.5 -45.5t137.5 -124.5v65q0 39 27 67t65 28q39 0 67 -28t28 -67v-1249q0 -39 -28 -66.5t-67 -27.5q-38 0 -65 28t-27 66v520q-44 -79 -136 -121t-198 -42q-132 0 -240 59.5t-173.5 174t-65.5 261.5zM283 473q0 -140 87.5 -225.5 t219.5 -85.5q80 0 150 34t117.5 106.5t47.5 170.5q0 147 -91 234.5t-224 87.5q-131 0 -219 -90.5t-88 -231.5z" />
<glyph unicode="r" horiz-adv-x="788" d="M147 84v788q0 38 27.5 66.5t65.5 28.5q39 0 66.5 -28t27.5 -67v-131q69 236 266 236q31 0 58.5 -4.5t57.5 -15.5t44 -35q10 -17 10 -40q0 -9 -2 -20q-11 -66 -101 -66q-13 0 -28 1q-14 2 -43 2q-89 0 -149 -61t-86.5 -160t-26.5 -230v-264q0 -39 -27.5 -66.5t-66.5 -27.5 q-38 0 -65.5 28t-27.5 66z" />
<glyph unicode="s" horiz-adv-x="886" d="M88 238q0 34 27 53.5t63 19.5q60 0 80 -53t73.5 -84t125.5 -31q73 0 120.5 35.5t47.5 91.5q0 93 -127 121l-131 31q-127 34 -192.5 99t-65.5 175q0 119 94.5 200t238.5 81q100 0 181 -38.5t120 -117.5q11 -19 11 -43q0 -41 -29.5 -62.5t-58.5 -21.5q-38 0 -68 41 q-60 80 -152 80q-67 0 -108 -35t-41 -90q0 -42 35 -70t86 -40l141 -35q248 -61 248 -279q0 -129 -108 -207.5t-263 -78.5q-116 0 -214 61.5t-130 167.5q-4 20 -4 29z" />
<glyph unicode="t" horiz-adv-x="649" d="M37 879q0 32 23.5 54.5t56.5 22.5h102v277q0 38 27 66t65 28q39 0 67 -27.5t28 -66.5v-277h135q33 0 56.5 -23t23.5 -56q0 -32 -24 -55t-56 -23h-135v-715q0 -38 -28 -66t-67 -28q-38 0 -65 28t-27 66v715h-102q-33 0 -56.5 23.5t-23.5 56.5z" />
<glyph unicode="u" horiz-adv-x="1140" d="M139 403v469q0 39 27.5 67t66.5 28q38 0 65.5 -28.5t27.5 -66.5v-456q0 -120 56 -187t155 -67q53 0 99.5 15.5t85.5 47t62 87t23 128.5v432q0 39 27.5 67t66.5 28q38 0 65 -28t27 -67v-788q0 -38 -27 -66t-65 -28q-39 0 -66.5 27.5t-27.5 66.5v59q-40 -80 -125.5 -121.5 t-173.5 -41.5q-178 0 -273.5 110.5t-95.5 312.5z" />
<glyph unicode="v" horiz-adv-x="1003" d="M61 846q-5 14 -5 29q0 21 10 43q18 36 55 45q14 4 27 4q22 0 42 -11q32 -17 46 -55l268 -682l266 682q14 38 46 55q20 11 42 11q13 0 27 -4q37 -9 53 -45q9 -20 10 -41q0 -16 -6 -31l-317 -768q-37 -88 -115 -88h-10q-79 0 -119 88z" />
<glyph unicode="w" horiz-adv-x="1585" d="M63 846q-5 14 -5 28q0 22 12 44q18 36 55 45q14 4 28 4q21 -1 41 -11q32 -18 46 -55l221 -625l213 605q30 86 112 86h11q80 0 110 -86l213 -605l219 625q13 37 47 55q21 11 42 11q14 0 28 -4q38 -9 56 -45q11 -22 11 -44q0 -14 -5 -28l-289 -776q-30 -80 -99 -80h-4 q-33 0 -60 20.5t-40 59.5l-235 663l-228 -663q-27 -80 -98 -80h-4q-33 0 -60.5 20.5t-40.5 59.5z" />
<glyph unicode="x" horiz-adv-x="933" d="M59 65q-1 7 -1 14q0 30 18 54l280 391l-215 299q-16 23 -16 52q0 8 1 16q6 38 36 59q25 17 52 17q8 1 16 -1q36 -6 57 -38l180 -269l180 269q21 32 57 38q8 1 16 1q27 0 52 -17q30 -21 36 -59q1 -8 1 -16q0 -28 -16 -52l-218 -299l283 -391q18 -24 18 -54q0 -7 -1 -14 q-5 -38 -35 -59q-24 -17 -50 -17q-8 0 -17 2q-36 7 -58 38l-248 364l-248 -364q-22 -31 -58 -38q-9 -2 -17 -2q-26 0 -50 17q-30 21 -35 59z" />
<glyph unicode="y" horiz-adv-x="1005" d="M66 842q-5 16 -5 32q0 20 9 42q15 37 51 47q16 4 30 4q22 0 41 -9q33 -17 48 -55l264 -639l266 645q13 35 50 51q19 8 37 8q17 0 34 -7q36 -13 51 -49q6 -18 6 -35q0 -19 -8 -37l-524 -1254q-13 -35 -48 -50q-19 -8 -38 -8q-17 0 -35 7q-33 15 -46 51q-6 17 -6 34 q0 18 7 36l151 373z" />
<glyph unicode="z" horiz-adv-x="1019" d="M72 88v4q0 50 45 101l534 585h-456q-37 0 -64 26t-27 62q0 38 27 64t64 26h634q44 0 74.5 -25.5t30.5 -62.5v-4q0 -49 -45 -100l-545 -586h500q37 0 63.5 -26t26.5 -64q0 -37 -26.5 -62.5t-63.5 -25.5h-668q-44 0 -74 25.5t-30 62.5z" />
<glyph unicode="{" horiz-adv-x="792" d="M63 481q0 79 84 82q48 0 73.5 31t25.5 74v360q-1 180 115.5 289.5t287.5 109.5h10q31 0 53.5 -21.5t22.5 -53.5t-22.5 -54t-53.5 -22h-16q-90 0 -155.5 -74t-65.5 -174v-360q0 -62 -44.5 -118.5t-129.5 -70.5q85 -16 129.5 -71t44.5 -115v-356q0 -100 65.5 -175 t155.5 -75h6h10q31 0 53.5 -22t22.5 -54t-22.5 -54t-53.5 -22h-10q-170 0 -286.5 111t-116.5 291v356q0 43 -25.5 73.5t-73.5 30.5q-84 6 -84 84z" />
<glyph unicode="|" horiz-adv-x="491" d="M176 -190v1765q0 26 21.5 44.5t48.5 18.5t48 -18.5t21 -44.5v-1765q0 -26 -21 -45t-48 -19t-48.5 19t-21.5 45z" />
<glyph unicode="}" horiz-adv-x="792" d="M57 -389q0 32 22.5 54t53.5 22h10h7q90 0 155.5 75t65.5 175v356q0 60 44.5 115t129.5 71q-85 14 -129.5 70.5t-44.5 118.5v360q0 100 -65.5 174t-155.5 74h-17q-31 0 -53.5 22t-22.5 54t22.5 53.5t53.5 21.5h10q171 0 288 -110t116 -289v-360q0 -44 25 -74.5t73 -30.5 q84 -3 84 -82q0 -78 -84 -84q-48 0 -73 -30.5t-25 -73.5v-356q0 -180 -117 -291t-287 -111h-10q-31 0 -53.5 22t-22.5 54z" />
<glyph unicode="&#xa1;" horiz-adv-x="493" d="M111 850q0 55 39 91t94 36q56 0 95.5 -36t39.5 -91t-39.5 -92t-95.5 -37q-55 0 -94 37t-39 92zM154 -375l20 883q0 31 20.5 52.5t51.5 21.5q32 0 52.5 -21.5t20.5 -52.5l21 -883q0 -40 -26.5 -68t-67.5 -28q-39 0 -65.5 28t-26.5 68z" />
<glyph unicode="&#xa2;" horiz-adv-x="1048" d="M90 481q1 191 117.5 322.5t292.5 163.5v166q0 26 21 44.5t48 18.5t48.5 -18.5t21.5 -44.5v-158q137 -11 260 -94q31 -22 33.5 -63t-23.5 -70q-24 -25 -61 -28.5t-70 19.5q-80 58 -182 58q-133 0 -228.5 -90.5t-95.5 -231.5q3 -138 98 -226.5t226 -88.5q103 0 182 57 q33 23 69.5 21.5t61.5 -29.5q26 -29 23.5 -70t-33.5 -63q-114 -82 -260 -94v-168q0 -26 -21.5 -45t-48.5 -19t-48 19t-21 45v174q-178 32 -294 165t-116 328z" />
<glyph unicode="&#xa3;" horiz-adv-x="1275" d="M84 92q0 38 28 65t66 27h105v394h-99q-28 0 -47.5 19.5t-19.5 47.5t19.5 48t47.5 20h99v315q0 118 59.5 210.5t154.5 140.5t205 48q145 0 254.5 -88t137.5 -229q11 -54 -12.5 -86t-65.5 -35q-81 -6 -101 82q-15 62 -53 104t-88 56q-49 14 -92 8q-87 -3 -152 -62.5 t-65 -148.5v-315h256q28 0 47.5 -20t19.5 -48t-19.5 -47.5t-47.5 -19.5h-256v-394h500q15 0 24.5 12.5t9.5 32.5v35q0 37 27.5 64.5t65.5 27.5t65 -27.5t27 -64.5v-18q0 -108 -50.5 -177t-146.5 -69h-809q-39 0 -66.5 26.5t-27.5 65.5z" />
<glyph unicode="&#xa4;" horiz-adv-x="1236" d="M150 311q0 32 22 54l113 110q-66 97 -66 219q0 121 68 221l-113 111q-22 22 -22 53q0 32 24.5 57t56.5 25t54 -22l112 -111q96 68 219 68q124 0 220 -68l112 111q22 22 54 22t56.5 -25t24.5 -57q0 -31 -22 -53l-113 -111q68 -100 68 -221q0 -122 -66 -219l113 -110 q22 -22 22 -54t-24.5 -57t-56.5 -25q-31 0 -54 23l-112 110q-98 -67 -222 -67q-123 0 -221 67l-112 -110q-23 -23 -54 -23q-32 0 -56.5 25t-24.5 57zM393 694q0 -94 65.5 -159.5t159.5 -65.5t160 65.5t66 159.5t-66 161t-160 67q-93 0 -159 -67t-66 -161z" />
<glyph unicode="&#xa5;" horiz-adv-x="1288" d="M88 1344q6 38 39 61q31 22 68.5 14.5t60.5 -39.5l383 -540l387 540q23 32 60.5 39.5t68.5 -14.5q33 -23 40 -62t-15 -71l-443 -623h320q28 0 47.5 -19.5t19.5 -47.5t-19.5 -48t-47.5 -20h-320v-156h320q28 0 47.5 -19.5t19.5 -47.5t-19.5 -48t-47.5 -20h-320v-137 q0 -40 -28 -68t-70 -28q-41 0 -68.5 28t-27.5 68v137h-314q-28 0 -47.5 20t-19.5 48t19.5 47.5t47.5 19.5h314v156h-314q-28 0 -47.5 20t-19.5 48t19.5 47.5t47.5 19.5h314l-439 625q-22 32 -16 70z" />
<glyph unicode="&#xa6;" horiz-adv-x="483" d="M172 -190v688q0 26 21.5 44.5t48.5 18.5t48 -18.5t21 -44.5v-688q0 -26 -21 -45t-48 -19t-48.5 19t-21.5 45zM172 883v692q0 26 21.5 44.5t48.5 18.5t48 -18.5t21 -44.5v-692q0 -26 -21 -45t-48 -19t-48.5 19t-21.5 45z" />
<glyph unicode="&#xa7;" horiz-adv-x="1048" d="M129 678v328q0 178 117 288.5t286 110.5q106 0 198 -51.5t149 -143.5q17 -29 7.5 -64t-40.5 -52q-34 -18 -67 -8.5t-54 40.5q-70 103 -193 103q-95 0 -161 -61.5t-66 -161.5v-328q0 -100 66 -160.5t161 -60.5h31q42 0 65.5 -27.5t23 -60.5t-24 -60.5t-64.5 -27.5h-31 q-169 0 -286 109.5t-117 287.5zM162.5 19.5q9.5 35.5 40.5 52.5q34 18 67 8.5t54 -41.5q70 -102 192 -102q95 0 161 61.5t66 161.5v327q0 100 -66 161t-161 61h-31q-37 0 -63.5 25t-26.5 61q0 38 26.5 64t63.5 26h31q169 0 286.5 -110t117.5 -288v-327q0 -178 -117.5 -289 t-286.5 -111q-106 0 -197.5 51.5t-148.5 143.5q-17 29 -7.5 64.5z" />
<glyph unicode="&#xa8;" horiz-adv-x="1150" d="M246 1235q0 52 37 86.5t90 34.5q52 0 88.5 -34.5t36.5 -86.5t-36.5 -86.5t-88.5 -34.5q-53 0 -90 34.5t-37 86.5zM651 1235q0 52 37 86.5t90 34.5t90 -34.5t37 -86.5t-37 -86.5t-90 -34.5t-90 34.5t-37 86.5z" />
<glyph unicode="&#xa9;" horiz-adv-x="1656" d="M113 702q0 197 94.5 363.5t259 264t360.5 97.5q147 0 280 -57.5t228.5 -155t152 -231.5t56.5 -281q0 -196 -95.5 -362.5t-260.5 -263t-361 -96.5q-147 0 -279.5 57t-227.5 154t-151 230.5t-56 280.5zM238 702q0 -163 78 -300t213.5 -216.5t297.5 -79.5q122 0 231.5 47 t188 127t124.5 190t46 232t-46 232.5t-124.5 190.5t-188.5 127.5t-231 47.5q-162 0 -297.5 -80t-213.5 -217.5t-78 -300.5zM465 692q0 154 107 261.5t262 107.5q123 0 235 -92q24 -18 28 -46t-14 -53q-15 -23 -44.5 -27t-49.5 13q-81 68 -155 68q-96 0 -163 -68t-67 -164 q0 -97 67 -165t163 -68q77 0 157 67q20 17 49.5 13t44.5 -27q18 -25 14 -52.5t-28 -45.5q-112 -92 -235 -92q-155 0 -263 108t-108 262z" />
<glyph unicode="&#xaa;" horiz-adv-x="993" d="M127 1001q0 156 99 252.5t241 96.5q73 0 137.5 -30t95.5 -85v47q0 26 19 45t45 19t45.5 -19t19.5 -45v-563q0 -26 -19.5 -45t-45.5 -19t-45 19t-19 45v49q-31 -55 -96 -86t-137 -31q-142 0 -241 97t-99 253zM176 492q0 -22 14.5 -37t36.5 -15h543q22 0 36.5 15t14.5 37 t-14.5 36.5t-36.5 14.5h-543q-22 0 -36.5 -14.5t-14.5 -36.5zM260 1004q0 -99 62.5 -162.5t154.5 -63.5q93 0 158 61.5t65 164.5q0 101 -67 160t-156 59q-93 0 -155 -60.5t-62 -158.5z" />
<glyph unicode="&#xab;" horiz-adv-x="989" d="M98 477q0 31 35 82l219 324q15 28 48.5 35.5t62.5 -9.5q28 -15 38 -48t-7 -64l-224 -320l228 -325q14 -28 3.5 -58.5t-38.5 -48.5q-29 -17 -62.5 -8.5t-50.5 37.5l-217 323q-35 44 -35 80zM463 477q0 31 35 82l219 324q15 28 48 35.5t62 -9.5q28 -15 38 -48t-7 -64 l-223 -320l227 -325q14 -28 3.5 -58.5t-38.5 -48.5q-29 -17 -62 -8.5t-50 37.5l-217 323q-35 44 -35 80z" />
<glyph unicode="&#xac;" horiz-adv-x="1310" d="M141 649q0 36 25 61t61 25h840q36 0 61 -25t25 -61v-332q0 -36 -25 -61t-61 -25t-61 25t-25 61v246h-754q-36 0 -61 25t-25 61z" />
<glyph unicode="&#xad;" horiz-adv-x="1015" d="M141 479q0 37 26.5 62.5t63.5 25.5h553q37 0 63.5 -25.5t26.5 -62.5q0 -38 -26.5 -64t-63.5 -26h-553q-37 0 -63.5 26t-26.5 64z" />
<glyph unicode="&#xae;" horiz-adv-x="1656" d="M113 702q0 197 94.5 363.5t259 264t360.5 97.5q147 0 280 -57.5t228.5 -155t152 -231.5t56.5 -281q0 -196 -95.5 -362.5t-260.5 -263t-361 -96.5q-147 0 -279.5 57t-227.5 154t-151 230.5t-56 280.5zM238 702q0 -163 78 -300t213.5 -216.5t297.5 -79.5q122 0 231.5 47 t188 127t124.5 190t46 232t-46 232.5t-124.5 190.5t-188.5 127.5t-231 47.5q-162 0 -297.5 -80t-213.5 -217.5t-78 -300.5zM582 399q0 -29 20 -50t49 -21q31 0 51.5 21t20.5 50v205h47l164 -244q19 -26 46 -32t52 12q26 17 31 45.5t-14 54.5l-111 158q79 21 118.5 83.5 t39.5 141.5q0 97 -61 167.5t-173 70.5h-227q-22 0 -37.5 -16t-15.5 -39v-607zM723 717v205h139q42 0 68 -31t26 -72q0 -40 -26.5 -71t-71.5 -31h-135z" />
<glyph unicode="&#xaf;" horiz-adv-x="1028" d="M246 1243q0 34 24 58t58 24h372q34 0 58 -24t24 -58t-24 -58t-58 -24h-372q-34 0 -58 24t-24 58z" />
<glyph unicode="&#xb0;" horiz-adv-x="745" d="M104 1159q0 110 79.5 189t189.5 79t189 -79t79 -189t-79 -189t-189 -79t-189.5 79t-79.5 189zM246 1159q0 -53 37 -90t90 -37t90 37t37 90t-37 90t-90 37t-90 -37t-37 -90z" />
<glyph unicode="&#xb1;" horiz-adv-x="1118" d="M129 696q0 37 26 60.5t64 23.5h258v238q0 38 23 64t59 26q37 0 60.5 -26t23.5 -64v-238h258q38 0 64 -23.5t26 -60.5q0 -36 -26 -59t-64 -23h-258v-239q0 -38 -23.5 -64t-60.5 -26q-36 0 -59 26t-23 64v239h-258q-38 0 -64 23t-26 59zM133 84q0 35 25 59.5t59 24.5h680 q35 0 60.5 -24.5t25.5 -59.5t-25.5 -59.5t-60.5 -24.5h-680q-34 0 -59 24.5t-25 59.5z" />
<glyph unicode="&#xb2;" horiz-adv-x="657" d="M68 899q0 16 22 43l305 373q58 68 58 125q0 54 -38.5 86.5t-95.5 32.5q-42 0 -75.5 -21t-48.5 -57q-19 -49 -66 -49q-29 0 -48.5 25.5t-10.5 55.5q29 81 95.5 127t153.5 46q110 0 185.5 -69t75.5 -177q0 -102 -93 -213l-202 -242h237q25 0 44.5 -19t19.5 -46 q0 -25 -19.5 -43.5t-44.5 -18.5h-407q-21 0 -34 11.5t-13 29.5z" />
<glyph unicode="&#xb3;" horiz-adv-x="661" d="M55.5 1030q5.5 24 28.5 37q23 12 46 5.5t38 -28.5q55 -69 133 -69q71 2 115 33.5t45 93.5q0 66 -42.5 102.5t-105.5 36.5h-45q-25 0 -41 16t-16 41q0 26 16 43t41 17h45q37 0 66 26t37 62q8 50 -13 76q-25 40 -86 43q-75 6 -116 -35q-39 -39 -86 -2q-18 18 -16.5 42.5 t20.5 45.5q38 39 92.5 59.5t114.5 16.5q101 -4 166.5 -72t62.5 -158q0 -27 -6 -51q-27 -79 -84 -108q59 -23 94 -84t29 -132q-9 -106 -98 -174t-205 -59q-66 4 -124.5 39t-97.5 92q-13 21 -7.5 45z" />
<glyph unicode="&#xb4;" horiz-adv-x="999" d="M264 1133q0 21 12 36l144 234q39 57 88 57q43 0 86 -25.5t43 -52.5q0 -17 -35 -57l-178 -180q-30 -30 -54 -39.5t-61 -9.5q-20 0 -32.5 10t-12.5 27z" />
<glyph unicode="&#xb5;" horiz-adv-x="1189" d="M168 -229v1101q0 39 27.5 67t66.5 28q38 0 65 -28t27 -67v-469q3 -115 58.5 -178t152.5 -63q53 0 99.5 15.5t86 47t62.5 87t23 128.5v432q0 39 27.5 67t66.5 28q38 0 65 -28t27 -67v-788q0 -38 -27 -66t-65 -28q-39 0 -66.5 27.5t-27.5 66.5v59q-40 -80 -125.5 -121.5 t-173.5 -41.5q-105 0 -183 38v-247q0 -39 -27.5 -67t-66.5 -28q-38 0 -65 28t-27 67z" />
<glyph unicode="&#xb6;" horiz-adv-x="1335" d="M80 967q0 185 129 314.5t315 129.5h105q20 0 33.5 -13.5t13.5 -33.5v-1372q0 -37 -24.5 -62.5t-61.5 -25.5t-61.5 25.5t-24.5 62.5v530q-176 11 -300 139.5t-124 305.5zM502 -303q0 34 23 56t57 22h100q43 0 77 35t34 88v1466q0 20 13.5 33.5t33.5 13.5h143 q115 0 198 -82.5t83 -198.5v-77q0 -35 -24.5 -60.5t-59.5 -25.5t-59.5 25.5t-24.5 60.5v77q0 43 -26 76t-66 33h-41v-1339q0 -115 -74 -198t-207 -83h-100q-34 0 -57 22t-23 56z" />
<glyph unicode="&#xb7;" horiz-adv-x="550" d="M141 514q0 55 39 92t94 37q56 0 96 -37t40 -92t-40 -91t-96 -36q-55 0 -94 36t-39 91z" />
<glyph unicode="&#xb8;" horiz-adv-x="1069" d="M330 -252q-5 28 10.5 50t44.5 26q22 4 37 -3.5t19.5 -14t11 -26t6.5 -20.5q17 -45 67 -45q37 0 59.5 21.5t22.5 50.5q0 13 -4 29l-74 252h99l96 -195q20 -41 20 -88q0 -84 -56.5 -143.5t-162.5 -59.5q-65 0 -120.5 46t-75.5 120z" />
<glyph unicode="&#xb9;" horiz-adv-x="421" d="M43 1546q0 18 11.5 35t29.5 23q164 59 190 59q17 0 29 -12t12 -29v-709q0 -25 -19.5 -43t-45.5 -18q-25 0 -43.5 18t-18.5 43v603l-69 -23q-8 -2 -17 -2q-22 0 -40.5 15t-18.5 40z" />
<glyph unicode="&#xba;" horiz-adv-x="976" d="M135 1004q0 154 101.5 250t248.5 96t250 -96t103 -250q0 -156 -103 -254.5t-250 -98.5q-146 0 -248 98.5t-102 254.5zM160 492q0 22 14.5 36.5t36.5 14.5h559q22 0 36.5 -14.5t14.5 -36.5t-14.5 -37t-36.5 -15h-559q-22 0 -36.5 15t-14.5 37zM264 1004q0 -100 64 -163 t157 -63t157.5 63t64.5 163q0 97 -64.5 158t-157.5 61t-157 -61t-64 -158z" />
<glyph unicode="&#xbb;" horiz-adv-x="989" d="M123.5 93.5q-10.5 30.5 3.5 58.5l227 325l-223 320q-17 31 -7 64t38 48q29 17 62 9.5t48 -35.5l220 -324q34 -49 34 -82q0 -37 -34 -80l-218 -323q-17 -29 -50 -37.5t-62 8.5q-28 18 -38.5 48.5zM487.5 93.5q-10.5 30.5 4.5 58.5l227 325l-223 320q-17 31 -7.5 64 t37.5 48q29 17 62.5 9.5t48.5 -35.5l219 -324q35 -51 35 -82q0 -36 -35 -80l-217 -323q-17 -29 -50.5 -37.5t-62.5 8.5q-28 18 -38.5 48.5z" />
<glyph unicode="&#xbc;" horiz-adv-x="1527" d="M80 1231q0 18 11.5 34.5t29.5 22.5q166 60 190 60q17 0 29 -12t12 -29v-709q0 -25 -19.5 -43t-45.5 -18q-25 0 -43.5 18t-18.5 43v602l-69 -22q-8 -2 -17 -2q-22 0 -40.5 15t-18.5 40zM336 55l602 1331q11 25 31 34.5t43 0.5q25 -8 35.5 -28t1.5 -43l-600 -1325 q-25 -43 -72 -35q-26 5 -38 23.5t-3 41.5zM819 211q0 25 21 53l368 524q24 35 54 35q23 0 40 -16.5t17 -38.5v-485h74q25 0 43 -18t18 -44q0 -25 -18 -42t-43 -17h-74v-109q0 -25 -19.5 -44t-46.5 -19q-23 0 -41 19t-18 44v109h-320q-24 0 -39.5 13t-15.5 36zM985 283h209 v301z" />
<glyph unicode="&#xbd;" horiz-adv-x="1538" d="M76 1231q0 18 11.5 34.5t29.5 22.5q166 60 190 60q17 0 29 -12t12 -29v-709q0 -25 -19.5 -43t-45.5 -18q-25 0 -43.5 18t-18.5 43v602l-69 -22q-8 -2 -17 -2q-22 0 -40.5 15t-18.5 40zM324 55l602 1331q11 25 30.5 34.5t42.5 0.5q25 -8 35.5 -28t1.5 -43l-600 -1325 q-25 -43 -71 -35q-26 5 -38 23.5t-3 41.5zM924 41q0 16 22 43l305 373q58 68 58 125q0 54 -38 86t-95 32q-42 0 -76 -20.5t-49 -56.5q-19 -50 -66 -50q-29 0 -48.5 26t-10.5 56q29 81 96 126.5t154 45.5q110 0 185 -68.5t75 -176.5q0 -102 -93 -213l-202 -242h237 q25 0 44.5 -19.5t19.5 -46.5q0 -24 -19.5 -42.5t-44.5 -18.5h-407q-21 0 -34 11.5t-13 29.5z" />
<glyph unicode="&#xbe;" horiz-adv-x="1742" d="M96.5 690q5.5 24 28.5 37q23 12 46 6t38 -28q27 -34 57 -52t76 -18q71 2 115 33.5t45 93.5q0 66 -42.5 102.5t-105.5 36.5h-45q-25 0 -41 16t-16 41q0 26 16 43t41 17h45q37 0 66 26t37 62q8 50 -13 76q-25 40 -86 43q-75 6 -116 -35q-39 -39 -86 -2q-18 18 -16.5 42.5 t20.5 45.5q38 39 92.5 59.5t114.5 16.5q101 -4 166.5 -72t62.5 -158q0 -27 -6 -51q-27 -79 -84 -108q59 -23 94 -83.5t29 -131.5q-9 -106 -98 -174.5t-205 -59.5q-66 4 -124.5 39t-97.5 92q-13 21 -7.5 45zM553 55l602 1331q11 25 31 34.5t43 0.5q25 -8 35.5 -28t1.5 -43 l-600 -1325q-25 -43 -72 -35q-26 5 -38 23.5t-3 41.5zM1036 211q0 25 21 53l368 524q25 35 54 35q23 0 40 -16.5t17 -38.5v-485h74q25 0 43 -18t18 -44q0 -25 -18 -42t-43 -17h-74v-109q0 -25 -19.5 -44t-46.5 -19q-23 0 -41 19t-18 44v109h-319q-24 0 -40 13t-16 36z M1202 283h209v301z" />
<glyph unicode="&#xbf;" horiz-adv-x="956" d="M70 -78q0 144 84 248t211 139q76 22 108.5 52t36.5 98l2 30q0 37 27 65t65 28q36 0 63 -28t27 -65v-30q0 -58 -13.5 -105.5t-37 -81t-59.5 -60.5t-74.5 -45t-89.5 -34q-67 -19 -117.5 -80t-50.5 -131q0 -96 71 -156.5t166 -60.5q80 0 143.5 52t80.5 139q7 37 39 56.5 t67 8.5q35 -7 53.5 -38.5t10.5 -67.5q-29 -152 -138.5 -242t-255.5 -90q-172 0 -295.5 110.5t-123.5 288.5zM469 850q0 55 38.5 91t94.5 36t95.5 -36t39.5 -91t-39.5 -92t-95.5 -37t-94.5 37t-38.5 92z" />
<glyph unicode="&#xc0;" horiz-adv-x="1271" d="M43 47q15 -36 53 -51q38 -14 74 2t49 53l119 307h598l117 -307q13 -37 49 -53t74 -2q38 15 53 51t0 74l-459 1208q-37 92 -127 92h-10q-91 0 -131 -92l-459 -1208q-15 -38 0 -74zM342 1774q0 28 40 52.5t83 24.5q49 0 88 -57l127 -213q12 -19 8 -37q-2 -14 -18 -25.5 t-35 -11.5q-35 0 -53.5 9t-49.5 40l-155 160q-35 40 -35 58zM403 530l234 662l233 -662h-467z" />
<glyph unicode="&#xc1;" horiz-adv-x="1271" d="M43 47q-15 36 0 74l459 1208q40 92 131 92h10q90 0 127 -92l459 -1208q15 -38 0 -74t-53 -51q-38 -14 -74 2t-49 53l-117 307h-598l-119 -307q-13 -37 -49 -53t-74 -2q-38 15 -53 51zM403 530h467l-233 662zM569 1544q-3 17 9 37l127 213q39 57 88 57q43 0 82.5 -24.5 t39.5 -52.5q0 -19 -34 -58l-156 -160q-31 -31 -49 -40t-53 -9q-19 0 -35.5 11.5t-18.5 25.5z" />
<glyph unicode="&#xc2;" horiz-adv-x="1271" d="M43 47q15 -36 53 -51q38 -14 74 2t49 53l119 307h598l117 -307q13 -37 49 -53t74 -2q38 15 53 51t0 74l-459 1208q-37 92 -127 92h-10q-91 0 -131 -92l-459 -1208q-15 -38 0 -74zM332 1542q0 14 18 43l162 217q23 28 45 42t55 14h45q55 0 101 -56l162 -217q18 -29 18 -43 q0 -15 -13.5 -25t-33.5 -10q-39 0 -66.5 9.5t-58.5 37.5l-133 144l-135 -144q-31 -28 -56.5 -37.5t-64.5 -9.5q-20 0 -32.5 10t-12.5 25zM403 530l234 662l233 -662h-467z" />
<glyph unicode="&#xc3;" horiz-adv-x="1271" d="M43 47q-15 36 0 74l459 1208q40 92 131 92h10q90 0 127 -92l459 -1208q15 -38 0 -74t-53 -51q-38 -14 -74 2t-49 53l-117 307h-598l-119 -307q-13 -37 -49 -53t-74 -2q-38 15 -53 51zM369 1567q17 94 66 136t110 42q53 0 117 -51q45 -35 63 -35q16 0 32 12.5t21 38.5 q0 1 1.5 7l2 8t2 7.5t3.5 8t5 7t7 7t9.5 5.5t12.5 5q22 6 45.5 -4.5t32.5 -31.5q6 -16 2 -41q-12 -65 -41.5 -106.5t-63 -57t-71.5 -15.5q-25 0 -49 9.5t-35.5 17.5t-32.5 25q-43 34 -63 34q-16 0 -32 -12.5t-21 -38.5q0 -1 -1.5 -7l-2 -8t-2 -7.5t-3.5 -8t-5 -7t-7 -7 t-9.5 -5.5t-12.5 -5q-22 -6 -45.5 5t-32.5 32q-6 16 -2 41zM403 530h467l-233 662z" />
<glyph unicode="&#xc4;" horiz-adv-x="1271" d="M43 47q15 -36 53 -51q38 -14 74 2t49 53l119 307h598l117 -307q13 -37 49 -53t74 -2q38 15 53 51t0 74l-459 1208q-37 92 -127 92h-10q-91 0 -131 -92l-459 -1208q-15 -38 0 -74zM305 1628q0 52 37 86.5t90 34.5q52 0 88.5 -34.5t36.5 -86.5t-36.5 -86.5t-88.5 -34.5 q-53 0 -90 34.5t-37 86.5zM403 530l234 662l233 -662h-467zM711 1628q0 52 37 86.5t90 34.5t90 -34.5t37 -86.5t-37 -86.5t-90 -34.5t-90 34.5t-37 86.5z" />
<glyph unicode="&#xc5;" horiz-adv-x="1271" d="M43 47q15 -36 53 -51q38 -14 74 2t49 53l119 307h598l117 -307q13 -37 49 -53t74 -2q38 15 53 51t0 74l-459 1208q-37 92 -127 92h-10q-91 0 -131 -92l-459 -1208q-15 -38 0 -74zM403 530l234 662l233 -662h-467zM420 1700q0 92 61.5 154.5t151.5 62.5q92 0 155.5 -62.5 t63.5 -154.5q0 -89 -63.5 -151t-155.5 -62q-89 0 -151 62t-62 151zM528 1700q0 -43 31 -74t74 -31q46 0 78 31t32 74q0 46 -32 77t-78 31q-43 0 -74 -31.5t-31 -76.5z" />
<glyph unicode="&#xc6;" horiz-adv-x="1839" d="M2 71q-4 38 21 70l741 1178q30 48 58 70t75 22h743q37 0 64 -26t27 -62q0 -38 -27 -64t-64 -26h-565v-451h488q37 0 63.5 -26t26.5 -64q0 -37 -26.5 -62.5t-63.5 -25.5h-488v-426h590q37 0 63.5 -26t26.5 -64q0 -37 -26.5 -62.5t-63.5 -25.5h-684q-38 0 -67 29t-29 69 v256h-502l-215 -329q-21 -30 -60.5 -35.5t-72.5 20.5q-29 23 -33 61zM496 537h389v610z" />
<glyph unicode="&#xc7;" horiz-adv-x="1380" d="M100 705q0 148 56 281.5t151.5 230t228 153.5t279.5 57q277 0 469 -176q28 -25 31 -63.5t-21 -69.5q-27 -30 -66.5 -32.5t-68.5 22.5q-151 135 -344 135q-145 0 -265.5 -72.5t-189.5 -196.5t-69 -272q0 -147 69 -271t189.5 -195.5t265.5 -71.5q193 0 344 135 q29 25 68.5 22.5t66.5 -32.5q24 -31 21 -69.5t-31 -63.5q-166 -154 -405 -172l55 -111q20 -41 20 -88q0 -84 -56.5 -143.5t-162.5 -59.5q-65 0 -120.5 46t-75.5 120q-5 28 10.5 50t44.5 26q22 4 37 -3.5t19.5 -14t11 -26t6.5 -20.5q17 -45 67 -45q37 0 59.5 21.5t22.5 50.5 q0 61 -49 195q-186 12 -339 111t-241 260.5t-88 351.5z" />
<glyph unicode="&#xc8;" horiz-adv-x="1138" d="M184 98q0 -40 29 -69t68 -29h684q37 0 63.5 25.5t26.5 62.5q0 38 -26.5 64t-63.5 26h-590v426h487q37 0 63.5 25.5t26.5 62.5q0 38 -26.5 64t-63.5 26h-487v451h565q37 0 63.5 26t26.5 64q0 37 -26.5 62.5t-63.5 25.5h-659q-39 0 -68 -29.5t-29 -68.5v-1215zM322 1774 q0 28 39.5 52.5t82.5 24.5q49 0 88 -57l127 -213q12 -21 9 -37q-2 -14 -18.5 -25.5t-35.5 -11.5q-35 0 -53 9t-49 40l-156 160q-34 39 -34 58z" />
<glyph unicode="&#xc9;" horiz-adv-x="1138" d="M184 98v1215q0 39 29 68.5t68 29.5h659q37 0 63.5 -25.5t26.5 -62.5q0 -38 -26.5 -64t-63.5 -26h-565v-451h487q37 0 63.5 -26t26.5 -64q0 -37 -26.5 -62.5t-63.5 -25.5h-487v-426h590q37 0 63.5 -26t26.5 -64q0 -37 -26.5 -62.5t-63.5 -25.5h-684q-39 0 -68 29t-29 69z M508 1544q-4 18 8 37l127 213q39 57 88 57q43 0 83 -24.5t40 -52.5q0 -18 -35 -58l-155 -160q-31 -31 -49.5 -40t-53.5 -9q-19 0 -35 11.5t-18 25.5z" />
<glyph unicode="&#xca;" horiz-adv-x="1138" d="M184 98q0 -40 29 -69t68 -29h684q37 0 63.5 25.5t26.5 62.5q0 38 -26.5 64t-63.5 26h-590v426h487q37 0 63.5 25.5t26.5 62.5q0 38 -26.5 64t-63.5 26h-487v451h565q37 0 63.5 26t26.5 64q0 37 -26.5 62.5t-63.5 25.5h-659q-39 0 -68 -29.5t-29 -68.5v-1215zM289 1542 q0 14 18 43l162 217q23 28 45 42t55 14h45q55 0 101 -56l162 -217q18 -29 18 -43q0 -15 -13.5 -25t-33.5 -10q-39 0 -66.5 9.5t-58.5 37.5l-133 144l-135 -144q-31 -28 -56.5 -37.5t-64.5 -9.5q-20 0 -32.5 10t-12.5 25z" />
<glyph unicode="&#xcb;" horiz-adv-x="1138" d="M184 98q0 -40 29 -69t68 -29h684q37 0 63.5 25.5t26.5 62.5q0 38 -26.5 64t-63.5 26h-590v426h487q37 0 63.5 25.5t26.5 62.5q0 38 -26.5 64t-63.5 26h-487v451h565q37 0 63.5 26t26.5 64q0 37 -26.5 62.5t-63.5 25.5h-659q-39 0 -68 -29.5t-29 -68.5v-1215zM248 1628 q0 52 37 86.5t90 34.5q52 0 88.5 -34.5t36.5 -86.5t-36.5 -86.5t-88.5 -34.5q-53 0 -90 34.5t-37 86.5zM653 1628q0 52 37 86.5t90 34.5t90 -34.5t37 -86.5t-37 -86.5t-90 -34.5t-90 34.5t-37 86.5z" />
<glyph unicode="&#xcc;" horiz-adv-x="563" d="M20 1774q0 28 40 52.5t83 24.5q49 0 88 -57l127 -213q12 -21 9 -37q-2 -14 -18.5 -25.5t-35.5 -11.5q-35 0 -53 9t-49 40l-156 160q-35 40 -35 58zM186 86q0 -40 27.5 -68t67.5 -28q41 0 68.5 28t27.5 68v1239q0 40 -27.5 68t-68.5 28q-40 0 -67.5 -28t-27.5 -68v-1239z " />
<glyph unicode="&#xcd;" horiz-adv-x="563" d="M186 86v1239q0 40 27.5 68t67.5 28q41 0 68.5 -28t27.5 -68v-1239q0 -40 -27.5 -68t-68.5 -28q-40 0 -67.5 28t-27.5 68zM197 1544q-4 18 8 37l127 213q39 57 88 57q43 0 83 -24.5t40 -52.5q0 -18 -35 -58l-156 -160q-31 -31 -49 -40t-53 -9q-19 0 -35 11.5t-18 25.5z " />
<glyph unicode="&#xce;" horiz-adv-x="563" d="M-18 1542q0 14 18 43l162 217q23 28 45 42t55 14h45q55 0 101 -56l161 -217q19 -30 19 -43q0 -15 -13.5 -25t-33.5 -10q-39 0 -66.5 9.5t-58.5 37.5l-133 144l-136 -144q-31 -28 -56.5 -37.5t-63.5 -9.5q-20 0 -32.5 10t-12.5 25zM186 86q0 -40 27.5 -68t67.5 -28 q41 0 68.5 28t27.5 68v1239q0 40 -27.5 68t-68.5 28q-40 0 -67.5 -28t-27.5 -68v-1239z" />
<glyph unicode="&#xcf;" horiz-adv-x="563" d="M-47 1628q0 52 37 86.5t90 34.5q52 0 88.5 -34.5t36.5 -86.5t-36.5 -86.5t-88.5 -34.5q-53 0 -90 34.5t-37 86.5zM186 86q0 -40 27.5 -68t67.5 -28q41 0 68.5 28t27.5 68v1239q0 40 -27.5 68t-68.5 28q-40 0 -67.5 -28t-27.5 -68v-1239zM358 1628q0 52 37 86.5t90 34.5 t90 -34.5t37 -86.5t-37 -86.5t-90 -34.5t-90 34.5t-37 86.5z" />
<glyph unicode="&#xd0;" horiz-adv-x="1490" d="M2 709q0 28 20.5 47.5t49.5 19.5h131v553q0 34 24 58t56 24h467q147 0 267.5 -54.5t200.5 -150t123 -224.5t43 -280q0 -201 -74 -359t-219 -250.5t-341 -92.5h-467q-32 0 -56 24t-24 58v555h-131q-30 0 -50 20t-20 52zM393 178h357q107 0 192.5 40t140 111t83 166 t28.5 207q0 151 -49 269.5t-151 190t-244 71.5h-357v-457h279q29 0 49 -19.5t20 -47.5q0 -32 -19.5 -52t-49.5 -20h-279v-459z" />
<glyph unicode="&#xd1;" horiz-adv-x="1386" d="M184 86v1241q0 38 28.5 66t66.5 28h26q65 0 96 -55l609 -1010v969q0 40 27 68t67 28q41 0 68.5 -28t27.5 -68v-1245q0 -37 -26.5 -63.5t-63.5 -26.5h-27q-61 0 -92 53l-616 1020v-977q0 -40 -27 -68t-67 -28q-41 0 -69 28t-28 68zM442 1567q17 94 66 136t110 42 q53 0 117 -51q45 -35 64 -35q16 0 32 12.5t21 38.5q0 1 1.5 7l2 8t2 7.5t3.5 8t5 7t7 7t9.5 5.5t12.5 5q22 6 45.5 -4.5t32.5 -31.5q6 -16 2 -41q-12 -65 -41.5 -106.5t-63 -57t-71.5 -15.5q-25 0 -49 9.5t-35.5 17.5t-32.5 25q-43 34 -64 34q-16 0 -32 -12.5t-21 -38.5 q0 -1 -1.5 -7l-2 -8t-2 -7.5t-3.5 -8t-5 -7t-7 -7t-9.5 -5.5t-12.5 -5q-22 -6 -45.5 5t-32.5 32q-6 16 -2 41z" />
<glyph unicode="&#xd2;" horiz-adv-x="1630" d="M100 702q0 -147 55.5 -280.5t150 -230.5t227 -154t280.5 -57t281.5 57t228.5 154t151 230.5t56 280.5q0 198 -94.5 364.5t-259.5 263.5t-363 97q-197 0 -361 -97t-258 -263.5t-94 -364.5zM291 702q0 148 68.5 272t188.5 196.5t265 72.5q146 0 266.5 -72.5t189 -196.5 t68.5 -272t-68.5 -271.5t-189 -195t-266.5 -71.5q-145 0 -265 71.5t-188.5 195t-68.5 271.5zM522 1774q0 28 40 52.5t83 24.5q49 0 88 -57l127 -213q12 -19 8 -37q-2 -14 -18 -25.5t-35 -11.5q-35 0 -53 9t-49 40l-156 160q-35 40 -35 58z" />
<glyph unicode="&#xd3;" horiz-adv-x="1630" d="M100 702q0 198 94 364.5t258 263.5t361 97q198 0 363 -97t259.5 -263.5t94.5 -364.5q0 -147 -56 -280.5t-151 -230.5t-228.5 -154t-281.5 -57t-280.5 57t-227 154t-150 230.5t-55.5 280.5zM291 702q0 -148 68.5 -271.5t188.5 -195t265 -71.5q146 0 266.5 71.5t189 195 t68.5 271.5t-68.5 272t-189 196.5t-266.5 72.5q-145 0 -265 -72.5t-188.5 -196.5t-68.5 -272zM735 1544q-4 18 8 37l127 213q39 57 88 57q43 0 83 -24.5t40 -52.5q0 -19 -34 -58l-156 -160q-31 -31 -49.5 -40t-53.5 -9q-19 0 -35 11.5t-18 25.5z" />
<glyph unicode="&#xd4;" horiz-adv-x="1630" d="M100 702q0 -147 55.5 -280.5t150 -230.5t227 -154t280.5 -57t281.5 57t228.5 154t151 230.5t56 280.5q0 198 -94.5 364.5t-259.5 263.5t-363 97q-197 0 -361 -97t-258 -263.5t-94 -364.5zM291 702q0 148 68.5 272t188.5 196.5t265 72.5q146 0 266.5 -72.5t189 -196.5 t68.5 -272t-68.5 -271.5t-189 -195t-266.5 -71.5q-145 0 -265 71.5t-188.5 195t-68.5 271.5zM512 1542q0 14 18 43l162 217q46 56 101 56h45q33 0 55 -14t45 -42l162 -217q18 -29 18 -43q0 -15 -13.5 -25t-33.5 -10q-39 0 -66.5 9.5t-58.5 37.5l-133 144l-135 -144 q-31 -28 -56.5 -37.5t-64.5 -9.5q-20 0 -32.5 10t-12.5 25z" />
<glyph unicode="&#xd5;" horiz-adv-x="1630" d="M100 702q0 198 94 364.5t258 263.5t361 97q198 0 363 -97t259.5 -263.5t94.5 -364.5q0 -147 -56 -280.5t-151 -230.5t-228.5 -154t-281.5 -57t-280.5 57t-227 154t-150 230.5t-55.5 280.5zM291 702q0 -148 68.5 -271.5t188.5 -195t265 -71.5q146 0 266.5 71.5t189 195 t68.5 271.5t-68.5 272t-189 196.5t-266.5 72.5q-145 0 -265 -72.5t-188.5 -196.5t-68.5 -272zM547 1567q17 94 66 136t110 42q53 0 117 -51q45 -35 63 -35q16 0 32 12.5t21 38.5q0 1 1.5 7l2 8t2 7.5t3.5 8t5 7t7 7t9.5 5.5t12.5 5q22 6 45.5 -4.5t32.5 -31.5q6 -16 2 -41 q-12 -65 -41.5 -106.5t-63 -57t-71.5 -15.5q-25 0 -49 9.5t-35.5 17.5t-32.5 25q-43 34 -63 34q-16 0 -32 -12.5t-21 -38.5q0 -1 -1.5 -7l-2 -8t-2 -7.5t-3.5 -8t-5 -7t-7 -7t-9.5 -5.5t-12.5 -5q-22 -6 -45.5 5t-32.5 32q-6 16 -2 41z" />
<glyph unicode="&#xd6;" horiz-adv-x="1630" d="M100 702q0 -147 55.5 -280.5t150 -230.5t227 -154t280.5 -57t281.5 57t228.5 154t151 230.5t56 280.5q0 198 -94.5 364.5t-259.5 263.5t-363 97q-197 0 -361 -97t-258 -263.5t-94 -364.5zM291 702q0 148 68.5 272t188.5 196.5t265 72.5q146 0 266.5 -72.5t189 -196.5 t68.5 -272t-68.5 -271.5t-189 -195t-266.5 -71.5q-145 0 -265 71.5t-188.5 195t-68.5 271.5zM485 1628q0 52 37 86.5t90 34.5q52 0 88.5 -34.5t36.5 -86.5t-36.5 -86.5t-88.5 -34.5q-53 0 -90 34.5t-37 86.5zM891 1628q0 52 37 86.5t90 34.5t90 -34.5t37 -86.5t-37 -86.5 t-90 -34.5t-90 34.5t-37 86.5z" />
<glyph unicode="&#xd7;" horiz-adv-x="989" d="M144.5 825.5q-2.5 34.5 23.5 61.5q28 26 62 24.5t61 -28.5l205 -205l204 205q27 27 61 28.5t62 -24.5q26 -27 23.5 -61.5t-29.5 -61.5l-205 -203l207 -207q27 -27 28.5 -61t-24.5 -62q-27 -25 -61.5 -22.5t-61.5 29.5l-204 204l-205 -202q-27 -27 -61 -28.5t-58 24.5 q-28 27 -26.5 60t30.5 62l203 203l-205 203q-27 27 -29.5 61.5z" />
<glyph unicode="&#xd8;" horiz-adv-x="1632" d="M102 702q0 198 94 364.5t258 263.5t361 97q260 0 459 -165l117 118q46 52 94 13q25 -17 28.5 -42.5t-16.5 -50.5l-129 -135q164 -204 164 -463q0 -147 -56 -280.5t-151 -230.5t-228.5 -154t-281.5 -57q-255 0 -446 155l-119 -121q-45 -52 -94 -12q-25 18 -29 42.5 t16 49.5l129 137q-170 204 -170 471zM293 702q0 -190 110 -335l740 759q-143 117 -328 117q-145 0 -265 -72.5t-188.5 -196.5t-68.5 -272zM500 270q134 -106 315 -106q146 0 266.5 71.5t189 195t68.5 271.5q0 184 -104 326z" />
<glyph unicode="&#xd9;" horiz-adv-x="1380" d="M174 485v840q0 40 27 68t67 28q41 0 69 -28t28 -68v-840q0 -142 95 -231.5t230 -89.5t230.5 89.5t95.5 231.5v840q0 40 27 68t67 28q41 0 68.5 -28t27.5 -68v-840q0 -112 -41.5 -208t-112 -160.5t-164.5 -100.5t-198 -36t-198 36t-164.5 100.5t-112 160.5t-41.5 208z M434 1774q0 28 40 52.5t83 24.5q49 0 88 -57l127 -213q12 -19 8 -37q-2 -14 -18 -25.5t-35 -11.5q-35 0 -53 9t-49 40l-156 160q-35 40 -35 58z" />
<glyph unicode="&#xda;" horiz-adv-x="1380" d="M174 485v840q0 40 27 68t67 28q41 0 69 -28t28 -68v-840q0 -142 95 -231.5t230 -89.5t230.5 89.5t95.5 231.5v840q0 40 27 68t67 28q41 0 68.5 -28t27.5 -68v-840q0 -112 -41.5 -208t-112 -160.5t-164.5 -100.5t-198 -36t-198 36t-164.5 100.5t-112 160.5t-41.5 208z M596 1544q-4 18 8 37l127 213q39 57 88 57q43 0 83 -24.5t40 -52.5q0 -18 -35 -58l-155 -160q-31 -31 -49.5 -40t-53.5 -9q-19 0 -35 11.5t-18 25.5z" />
<glyph unicode="&#xdb;" horiz-adv-x="1380" d="M174 485v840q0 40 27 68t67 28q41 0 69 -28t28 -68v-840q0 -142 95 -231.5t230 -89.5t230.5 89.5t95.5 231.5v840q0 40 27 68t67 28q41 0 68.5 -28t27.5 -68v-840q0 -112 -41.5 -208t-112 -160.5t-164.5 -100.5t-198 -36t-198 36t-164.5 100.5t-112 160.5t-41.5 208z M389 1542q0 13 19 43l161 217q46 56 101 56h45q33 0 55 -14t45 -42l162 -217q18 -29 18 -43q0 -15 -13.5 -25t-33.5 -10q-39 0 -66.5 9.5t-58.5 37.5l-133 144l-135 -144q-31 -28 -56.5 -37.5t-64.5 -9.5q-20 0 -32.5 10t-12.5 25z" />
<glyph unicode="&#xdc;" horiz-adv-x="1380" d="M174 485v840q0 40 27 68t67 28q41 0 69 -28t28 -68v-840q0 -142 95 -231.5t230 -89.5t230.5 89.5t95.5 231.5v840q0 40 27 68t67 28q41 0 68.5 -28t27.5 -68v-840q0 -112 -41.5 -208t-112 -160.5t-164.5 -100.5t-198 -36t-198 36t-164.5 100.5t-112 160.5t-41.5 208z M360 1628q0 52 37 86.5t90 34.5q52 0 88.5 -34.5t36.5 -86.5t-36.5 -86.5t-88.5 -34.5q-53 0 -90 34.5t-37 86.5zM766 1628q0 52 37 86.5t90 34.5t90 -34.5t37 -86.5t-37 -86.5t-90 -34.5t-90 34.5t-37 86.5z" />
<glyph unicode="&#xdd;" horiz-adv-x="1208" d="M49.5 1344q5.5 38 38.5 61q31 22 68.5 14.5t60.5 -39.5l383 -540l387 540q23 32 60.5 39.5t68.5 -14.5q33 -23 40 -62t-15 -71l-443 -623v-563q0 -40 -28 -68t-70 -28q-41 0 -68.5 28t-27.5 68v563l-438 625q-22 32 -16.5 70zM496 1544q-4 18 8 37l127 213q39 57 88 57 q43 0 83 -24.5t40 -52.5q0 -18 -35 -58l-156 -160q-31 -31 -49 -40t-53 -9q-19 0 -35 11.5t-18 25.5z" />
<glyph unicode="&#xde;" horiz-adv-x="1163" d="M186 84v1243q0 38 28.5 66t66.5 28q40 0 68 -28t28 -66v-168h287q185 0 308.5 -120t123.5 -314q0 -197 -123.5 -319.5t-308.5 -122.5h-287v-199q0 -38 -28 -66t-68 -28q-38 0 -66.5 28t-28.5 66zM377 467h287q103 0 173 72t70 186q0 115 -74 181.5t-186 72.5h-270v-512z " />
<glyph unicode="&#xdf;" horiz-adv-x="1155" d="M152 78v926q0 198 112 310.5t293 112.5q169 0 283 -103t114 -251q0 -194 -145 -258q113 -33 184.5 -139t71.5 -230q0 -217 -132.5 -341.5t-340.5 -124.5q-59 0 -113 12q-34 8 -55 31.5t-21 54.5q0 34 26 58t58 24q18 0 52 -5t49 -5q132 0 216.5 75.5t84.5 204.5 q0 144 -84 219.5t-215 75.5q-92 0 -92 70q0 69 88 69q83 0 138.5 57.5t55.5 151.5q0 85 -57.5 134.5t-165.5 49.5q-99 0 -164 -68t-65 -185v-926q0 -35 -26.5 -61.5t-63.5 -26.5q-35 0 -60.5 26.5t-25.5 61.5z" />
<glyph unicode="&#xe0;" d="M92 479q0 -221 142 -360t344 -139q104 0 196.5 44t138.5 123v-63q0 -38 27.5 -66t65.5 -28q39 0 66.5 27.5t27.5 66.5v788q0 39 -27.5 67t-66.5 28q-38 0 -65.5 -28.5t-27.5 -66.5v-59q-45 79 -137.5 121.5t-197.5 42.5q-132 0 -242 -60t-177 -175t-67 -263zM281 1382 q0 27 43 52.5t86 25.5q49 0 88 -57l143 -234q12 -15 12 -36q0 -17 -12.5 -27t-32.5 -10q-37 0 -60.5 9.5t-53.5 39.5l-179 180q-34 39 -34 57zM283 481q0 140 89.5 227t221.5 87q80 0 150.5 -34.5t118.5 -108t48 -171.5q0 -147 -92 -233t-225 -86q-131 0 -221 90t-90 229z " />
<glyph unicode="&#xe1;" d="M92 479q0 148 67 263t177 175t242 60q105 0 197.5 -42.5t137.5 -121.5v59q0 38 27.5 66.5t65.5 28.5q39 0 66.5 -28t27.5 -67v-788q0 -39 -27.5 -66.5t-66.5 -27.5q-38 0 -65.5 28t-27.5 66v63q-46 -79 -138.5 -123t-196.5 -44q-202 0 -344 139t-142 360zM283 481 q0 -139 90 -229t221 -90q133 0 225 86t92 233q0 98 -48 171.5t-118.5 108t-150.5 34.5q-132 0 -221.5 -87t-89.5 -227zM481 1133q0 20 13 36l143 234q39 57 88 57q43 0 86 -25.5t43 -52.5q0 -17 -35 -57l-178 -180q-30 -30 -54 -39.5t-61 -9.5q-20 0 -32.5 10t-12.5 27z" />
<glyph unicode="&#xe2;" d="M92 479q0 -221 142 -360t344 -139q104 0 196.5 44t138.5 123v-63q0 -38 27.5 -66t65.5 -28q39 0 66.5 27.5t27.5 66.5v788q0 39 -27.5 67t-66.5 28q-38 0 -65.5 -28.5t-27.5 -66.5v-59q-45 79 -137.5 121.5t-197.5 42.5q-132 0 -242 -60t-177 -175t-67 -263zM283 481 q0 140 89.5 227t221.5 87q80 0 150.5 -34.5t118.5 -108t48 -171.5q0 -147 -92 -233t-225 -86q-131 0 -221 90t-90 229zM324 1133q0 14 18 43l162 217q23 28 45 41.5t55 13.5h45q56 0 101 -55l161 -217q19 -30 19 -43q0 -15 -13.5 -25t-33.5 -10q-39 0 -66.5 9.5t-58.5 37.5 l-133 143l-136 -143q-31 -28 -56.5 -37.5t-63.5 -9.5q-20 0 -32.5 10t-12.5 25z" />
<glyph unicode="&#xe3;" d="M92 479q0 148 67 263t177 175t242 60q105 0 197.5 -42.5t137.5 -121.5v59q0 38 27.5 66.5t65.5 28.5q39 0 66.5 -28t27.5 -67v-788q0 -39 -27.5 -66.5t-66.5 -27.5q-38 0 -65.5 28t-27.5 66v63q-46 -79 -138.5 -123t-196.5 -44q-202 0 -344 139t-142 360zM283 481 q0 -139 90 -229t221 -90q133 0 225 86t92 233q0 98 -48 171.5t-118.5 108t-150.5 34.5q-132 0 -221.5 -87t-89.5 -227zM360 1194q17 94 66.5 136t110.5 42q25 0 48.5 -9t35 -17t32.5 -25q45 -35 64 -35q16 0 32 12.5t21 38.5q0 1 1.5 7l2 8t2 7.5t3.5 8.5l5 7.5t7 7t9.5 5.5 t12.5 5q22 6 45.5 -5t32.5 -32q6 -16 2 -41q-17 -94 -66 -136t-110 -42q-53 0 -117 51q-45 35 -63 35q-16 0 -32.5 -12.5t-21.5 -39.5q0 -1 -1.5 -7l-2 -8t-2 -7.5t-3.5 -8t-5 -7t-7 -7t-9.5 -5.5t-12.5 -5q-22 -6 -45.5 5t-32.5 32q-6 16 -2 41z" />
<glyph unicode="&#xe4;" d="M92 479q0 -221 142 -360t344 -139q104 0 196.5 44t138.5 123v-63q0 -38 27.5 -66t65.5 -28q39 0 66.5 27.5t27.5 66.5v788q0 39 -27.5 67t-66.5 28q-38 0 -65.5 -28.5t-27.5 -66.5v-59q-45 79 -137.5 121.5t-197.5 42.5q-132 0 -242 -60t-177 -175t-67 -263zM283 481 q0 140 89.5 227t221.5 87q80 0 150.5 -34.5t118.5 -108t48 -171.5q0 -147 -92 -233t-225 -86q-131 0 -221 90t-90 229zM297 1235q0 52 37 86.5t90 34.5q52 0 88.5 -34.5t36.5 -86.5t-36.5 -86.5t-88.5 -34.5q-53 0 -90 34.5t-37 86.5zM702 1235q0 52 37 86.5t90 34.5 t90 -34.5t37 -86.5t-37 -86.5t-90 -34.5t-90 34.5t-37 86.5z" />
<glyph unicode="&#xe5;" d="M92 479q0 -221 142 -360t344 -139q104 0 196.5 44t138.5 123v-63q0 -38 27.5 -66t65.5 -28q39 0 66.5 27.5t27.5 66.5v788q0 39 -27.5 67t-66.5 28q-38 0 -65.5 -28.5t-27.5 -66.5v-59q-45 79 -137.5 121.5t-197.5 42.5q-132 0 -242 -60t-177 -175t-67 -263zM283 481 q0 140 89.5 227t221.5 87q80 0 150.5 -34.5t118.5 -108t48 -171.5q0 -147 -92 -233t-225 -86q-131 0 -221 90t-90 229zM410 1309q0 92 61.5 154.5t151.5 62.5q92 0 155.5 -62.5t63.5 -154.5q0 -89 -63.5 -151t-155.5 -62q-89 0 -151 62t-62 151zM518 1309q0 -43 31 -74 t74 -31q46 0 78 31t32 74q0 46 -32 77t-78 31q-43 0 -74 -31.5t-31 -76.5z" />
<glyph unicode="&#xe6;" horiz-adv-x="1693" d="M80 279q0 134 92 217.5t287 83.5q114 0 266 -52v45q0 106 -66 171t-182 65q-53 0 -108 -22.5t-99 -63.5q-29 -21 -62 -17t-50 33q-18 29 -13 62.5t31 58.5q127 117 316 117q241 0 333 -164q120 164 338 164q200 0 328.5 -137t128.5 -363q0 -32 -21 -53t-51 -21h-655 q15 -121 87 -187t189 -66q82 0 134 22.5t100 77.5q27 30 60.5 37t60.5 -13q26 -22 31 -56.5t-15 -59.5q-66 -89 -163.5 -133.5t-213.5 -44.5q-121 0 -213.5 51t-148.5 147q-68 -100 -179 -149t-208 -49q-152 0 -243 79.5t-91 219.5zM244 279q0 -59 44 -96.5t130 -37.5 q78 0 170 43t135 121v70q-64 24 -139.5 36.5t-124.5 12.5q-65 0 -110 -14t-66.5 -37.5t-30 -47t-8.5 -50.5zM893 549h549q-15 120 -91 189t-188 69q-114 0 -184.5 -68t-85.5 -190z" />
<glyph unicode="&#xe7;" horiz-adv-x="1011" d="M90 481q1 145 71.5 260t185 175.5t249.5 60.5q163 0 303 -96q31 -22 33.5 -63t-23.5 -70q-24 -25 -61 -28.5t-70 19.5q-80 58 -182 58q-133 0 -228.5 -90.5t-95.5 -231.5q3 -138 98 -226.5t226 -88.5q103 0 182 57q33 23 69.5 21.5t61.5 -29.5q26 -29 23.5 -70t-33.5 -63 q-102 -77 -240 -92l56 -111q16 -33 16 -86q0 -84 -55 -144.5t-160 -60.5q-66 0 -121.5 46t-75.5 120q-5 28 11 50t45 26q22 4 37 -3.5t19.5 -14t11 -26t6.5 -20.5q17 -45 67 -45q37 0 59.5 21.5t22.5 50.5q0 13 -4 29l-49 166q-94 9 -176.5 48t-144.5 102.5t-98 154 t-36 194.5z" />
<glyph unicode="&#xe8;" horiz-adv-x="1128" d="M92 481q0 -223 141 -362t349 -139q120 0 222 44.5t169 131.5q22 25 16.5 59.5t-33.5 56.5q-28 20 -63 13t-62 -37q-50 -55 -104 -78t-139 -23q-122 0 -207 71t-102 190h704q30 0 52 21t22 52q0 224 -134 360t-341 136q-209 0 -349.5 -137t-140.5 -359zM270 1382 q0 27 43 52.5t86 25.5q49 0 88 -57l144 -234q12 -15 12 -36q0 -17 -12.5 -27t-32.5 -10q-37 0 -61 9.5t-54 39.5l-178 180q-35 40 -35 57zM279 553q17 119 100 187.5t203 68.5q116 0 194.5 -68.5t95.5 -187.5h-593z" />
<glyph unicode="&#xe9;" horiz-adv-x="1128" d="M92 481q0 222 140.5 359t349.5 137q207 0 341 -136t134 -360q0 -31 -22 -52t-52 -21h-704q17 -119 102 -190t207 -71q85 0 139 23t104 78q27 30 62 37t63 -13q28 -22 33.5 -56.5t-16.5 -59.5q-67 -87 -169 -131.5t-222 -44.5q-208 0 -349 139t-141 362zM279 553h593 q-17 119 -95.5 187.5t-194.5 68.5q-120 0 -203 -68.5t-100 -187.5zM489 1133q0 20 13 36l143 234q39 57 88 57q43 0 86 -25.5t43 -52.5q0 -17 -35 -57l-178 -180q-30 -30 -53.5 -39.5t-60.5 -9.5q-21 0 -33.5 10t-12.5 27z" />
<glyph unicode="&#xea;" horiz-adv-x="1128" d="M92 481q0 -223 141 -362t349 -139q120 0 222 44.5t169 131.5q22 25 16.5 59.5t-33.5 56.5q-28 20 -63 13t-62 -37q-50 -55 -104 -78t-139 -23q-122 0 -207 71t-102 190h704q30 0 52 21t22 52q0 224 -134 360t-341 136q-209 0 -349.5 -137t-140.5 -359zM266 1133 q0 13 19 43l161 217q45 55 101 55h45q33 0 55 -13.5t45 -41.5l162 -217q18 -29 18 -43q0 -15 -13.5 -25t-33.5 -10q-39 0 -66.5 9.5t-58.5 37.5l-133 143l-135 -143q-31 -28 -56.5 -37.5t-64.5 -9.5q-20 0 -32.5 10t-12.5 25zM279 553q17 119 100 187.5t203 68.5 q116 0 194.5 -68.5t95.5 -187.5h-593z" />
<glyph unicode="&#xeb;" horiz-adv-x="1128" d="M92 481q0 -223 141 -362t349 -139q120 0 222 44.5t169 131.5q22 25 16.5 59.5t-33.5 56.5q-28 20 -63 13t-62 -37q-50 -55 -104 -78t-139 -23q-122 0 -207 71t-102 190h704q30 0 52 21t22 52q0 224 -134 360t-341 136q-209 0 -349.5 -137t-140.5 -359zM240 1235 q0 52 37 86.5t90 34.5q52 0 88.5 -34.5t36.5 -86.5t-36.5 -86.5t-88.5 -34.5q-53 0 -90 34.5t-37 86.5zM279 553q17 119 100 187.5t203 68.5q116 0 194.5 -68.5t95.5 -187.5h-593zM645 1235q0 52 37 86.5t90 34.5t90 -34.5t37 -86.5t-37 -86.5t-90 -34.5t-90 34.5t-37 86.5z " />
<glyph unicode="&#xec;" horiz-adv-x="481" d="M-41 1382q0 27 43 52.5t86 25.5q49 0 88 -57l143 -234q13 -16 13 -36q0 -17 -12.5 -27t-32.5 -10q-37 0 -61 9.5t-54 39.5l-178 180q-35 40 -35 57zM147 84q0 -38 27.5 -66t65.5 -28q39 0 66.5 27.5t27.5 66.5v788q0 39 -27.5 67t-66.5 28q-38 0 -65.5 -28.5t-27.5 -66.5 v-788z" />
<glyph unicode="&#xed;" horiz-adv-x="481" d="M147 84v788q0 38 27.5 66.5t65.5 28.5q39 0 66.5 -28t27.5 -67v-788q0 -39 -27.5 -66.5t-66.5 -27.5q-38 0 -65.5 28t-27.5 66zM147 1133q0 20 13 36l143 234q39 57 88 57q43 0 86 -25.5t43 -52.5q0 -17 -35 -57l-178 -180q-30 -30 -53.5 -39.5t-60.5 -9.5 q-21 0 -33.5 10t-12.5 27z" />
<glyph unicode="&#xee;" horiz-adv-x="481" d="M-63 1133q0 14 18 43l162 217q23 28 45 41.5t55 13.5h45q33 0 55 -13.5t45 -41.5l162 -217q19 -30 19 -43q0 -15 -13.5 -25t-33.5 -10q-39 0 -66.5 9.5t-58.5 37.5l-133 143l-136 -143q-31 -28 -56.5 -37.5t-63.5 -9.5q-20 0 -32.5 10t-12.5 25zM147 84q0 -38 27.5 -66 t65.5 -28q39 0 66.5 27.5t27.5 66.5v788q0 39 -27.5 67t-66.5 28q-38 0 -65.5 -28.5t-27.5 -66.5v-788z" />
<glyph unicode="&#xef;" horiz-adv-x="481" d="M-90 1235q0 52 37 86.5t90 34.5q52 0 88.5 -34.5t36.5 -86.5t-36.5 -86.5t-88.5 -34.5q-53 0 -90 34.5t-37 86.5zM147 84q0 -38 27.5 -66t65.5 -28q39 0 66.5 27.5t27.5 66.5v788q0 39 -27.5 67t-66.5 28q-38 0 -65.5 -28.5t-27.5 -66.5v-788zM315 1235q0 52 37 86.5 t90 34.5t90 -34.5t37 -86.5t-37 -86.5t-90 -34.5t-90 34.5t-37 86.5z" />
<glyph unicode="&#xf0;" horiz-adv-x="1181" d="M92 481q0 110 40 204t106.5 157.5t154 99t182.5 35.5q37 0 66 -10l-143 159l-152 -96q-21 -12 -44.5 -5t-35.5 26t-7.5 43t24.5 36l139 89l-105 131q-22 28 -17.5 63t32.5 55q30 23 64 17.5t55 -33.5l114 -141l109 67q20 12 44 5.5t36 -25.5q12 -18 7.5 -43t-24.5 -37 l-94 -59l352 -439q95 -126 95 -299q0 -147 -68 -262.5t-181 -177t-249 -61.5t-249.5 61.5t-182 177t-68.5 262.5zM268 481q0 -144 94 -234.5t230 -90.5q134 0 228.5 90.5t94.5 234.5t-94 232t-229 88q-136 0 -230 -88t-94 -232z" />
<glyph unicode="&#xf1;" horiz-adv-x="1140" d="M147 84v788q0 38 27.5 66.5t65.5 28.5q39 0 66.5 -28t27.5 -67v-59q40 80 126 122t173 42q178 0 273 -111t95 -313v-469q0 -39 -27.5 -66.5t-66.5 -27.5q-38 0 -65 28t-27 66v457q0 120 -56 187t-155 67q-53 0 -99.5 -15.5t-85.5 -47.5t-62 -87.5t-23 -128.5v-432 q0 -39 -27.5 -66.5t-66.5 -27.5q-38 0 -65.5 28t-27.5 66zM301 1194q17 94 66 136t110 42q53 0 117 -51q45 -35 63 -35q17 0 33 12.5t21 38.5q0 1 1.5 7l2 8t2 7.5t3.5 8.5l5 7.5t7 7t9.5 5.5t12.5 5q22 6 45 -5t32 -32q7 -17 3 -41q-17 -94 -66.5 -136t-110.5 -42 q-25 0 -48.5 9t-35 17t-32.5 25q-45 35 -64 35q-16 0 -32 -12.5t-21 -39.5q0 -1 -1.5 -7l-2 -8t-2 -7.5t-3.5 -8t-5 -7t-7 -7t-9.5 -5.5t-12.5 -5q-22 -6 -45.5 5t-32.5 32q-6 16 -2 41z" />
<glyph unicode="&#xf2;" horiz-adv-x="1185" d="M92 481q0 -147 68.5 -263t182 -177t249.5 -61t250 61t183 177t69 263t-69 261.5t-182.5 174.5t-250.5 60t-250 -60t-181.5 -174.5t-68.5 -261.5zM276 481q0 141 91.5 227.5t224.5 86.5t224 -86.5t91 -227.5q0 -143 -91.5 -232t-223.5 -89q-133 0 -224.5 89t-91.5 232z M301 1382q0 27 43 52.5t86 25.5q49 0 88 -57l144 -234q12 -15 12 -36q0 -17 -12.5 -27t-32.5 -10q-37 0 -61 9.5t-54 39.5l-178 180q-35 40 -35 57z" />
<glyph unicode="&#xf3;" horiz-adv-x="1185" d="M92 481q0 147 68.5 261.5t181.5 174.5t250 60t250.5 -60t182.5 -174.5t69 -261.5t-69 -263t-183 -177t-250 -61t-249.5 61t-182 177t-68.5 263zM276 481q0 -143 91.5 -232t224.5 -89q132 0 223.5 89t91.5 232q0 141 -91 227.5t-224 86.5t-224.5 -86.5t-91.5 -227.5z M514 1133q0 21 12 36l144 234q39 57 88 57q43 0 86 -25.5t43 -52.5q0 -17 -35 -57l-178 -180q-30 -30 -54 -39.5t-61 -9.5q-20 0 -32.5 10t-12.5 27z" />
<glyph unicode="&#xf4;" horiz-adv-x="1185" d="M92 481q0 -147 68.5 -263t182 -177t249.5 -61t250 61t183 177t69 263t-69 261.5t-182.5 174.5t-250.5 60t-250 -60t-181.5 -174.5t-68.5 -261.5zM276 481q0 141 91.5 227.5t224.5 86.5t224 -86.5t91 -227.5q0 -143 -91.5 -232t-223.5 -89q-133 0 -224.5 89t-91.5 232z M289 1133q0 14 18 43l162 217q23 28 45 41.5t55 13.5h45q56 0 101 -55l162 -217q18 -29 18 -43q0 -15 -13.5 -25t-33.5 -10q-39 0 -66.5 9.5t-58.5 37.5l-133 143l-135 -143q-31 -28 -56.5 -37.5t-64.5 -9.5q-20 0 -32.5 10t-12.5 25z" />
<glyph unicode="&#xf5;" horiz-adv-x="1185" d="M92 481q0 147 68.5 261.5t181.5 174.5t250 60t250.5 -60t182.5 -174.5t69 -261.5t-69 -263t-183 -177t-250 -61t-249.5 61t-182 177t-68.5 263zM276 481q0 -143 91.5 -232t224.5 -89q132 0 223.5 89t91.5 232q0 141 -91 227.5t-224 86.5t-224.5 -86.5t-91.5 -227.5z M326 1194q17 94 66 136t110 42q25 0 48.5 -9t35 -17t32.5 -25q45 -35 64 -35q16 0 32 12.5t21 38.5q0 1 1.5 7l2 8t2 7.5t3.5 8.5l5 7.5t7 7t9.5 5.5t12.5 5q22 6 45.5 -5t32.5 -32q6 -16 2 -41q-17 -94 -66 -136t-110 -42q-53 0 -117 51q-45 35 -63 35q-16 0 -32 -12.5 t-21 -39.5q0 -1 -1.5 -7l-2 -8t-2 -7.5t-3.5 -8t-5 -7t-7 -7t-9.5 -5.5t-12.5 -5q-22 -6 -45.5 5t-32.5 32q-6 16 -2 41z" />
<glyph unicode="&#xf6;" horiz-adv-x="1185" d="M92 481q0 -147 68.5 -263t182 -177t249.5 -61t250 61t183 177t69 263t-69 261.5t-182.5 174.5t-250.5 60t-250 -60t-181.5 -174.5t-68.5 -261.5zM262 1235q0 52 37 86.5t90 34.5q52 0 88.5 -34.5t36.5 -86.5t-36.5 -86.5t-88.5 -34.5q-53 0 -90 34.5t-37 86.5zM276 481 q0 141 91.5 227.5t224.5 86.5t224 -86.5t91 -227.5q0 -143 -91.5 -232t-223.5 -89q-133 0 -224.5 89t-91.5 232zM668 1235q0 52 37 86.5t90 34.5t90 -34.5t37 -86.5t-37 -86.5t-90 -34.5t-90 34.5t-37 86.5z" />
<glyph unicode="&#xf7;" horiz-adv-x="1075" d="M106 524q0 -36 24 -60t60 -24h695q36 0 60 24t24 60q0 34 -24.5 58t-59.5 24h-695q-35 0 -59.5 -24t-24.5 -58zM403 184q0 56 39.5 92.5t94.5 36.5q56 0 95.5 -36.5t39.5 -92.5q0 -55 -39.5 -91t-95.5 -36q-55 0 -94.5 36t-39.5 91zM403 868q0 55 39.5 91t94.5 36 q56 0 95.5 -36t39.5 -91t-39.5 -92t-95.5 -37q-55 0 -94.5 37t-39.5 92z" />
<glyph unicode="&#xf8;" horiz-adv-x="1183" d="M90 481q0 147 68.5 261.5t181.5 174.5t250 60q172 0 307 -96l70 71q20 20 48 21t48 -19q22 -22 22 -49t-20 -47l-72 -72q99 -133 99 -305q0 -147 -69 -263t-183 -177t-250 -61q-168 0 -295 88l-72 -72q-20 -20 -48 -21t-48 19q-22 22 -22 49t20 47l72 72 q-107 132 -107 319zM274 481q0 -107 52 -184l440 448q-77 50 -176 50q-133 0 -224.5 -86.5t-91.5 -227.5zM426 203q70 -43 164 -43q132 0 223.5 89t91.5 232q0 90 -45 168z" />
<glyph unicode="&#xf9;" horiz-adv-x="1140" d="M139 403v469q0 39 27.5 67t66.5 28q38 0 65.5 -28.5t27.5 -66.5v-456q0 -120 56 -187t155 -67q53 0 99.5 15.5t85.5 47t62 87t23 128.5v432q0 39 27.5 67t66.5 28q38 0 65 -28t27 -67v-788q0 -38 -27 -66t-65 -28q-39 0 -66.5 27.5t-27.5 66.5v59q-40 -80 -125.5 -121.5 t-173.5 -41.5q-178 0 -273.5 110.5t-95.5 312.5zM315 1382q0 27 43 52.5t86 25.5q49 0 88 -57l144 -234q12 -15 12 -36q0 -17 -12.5 -27t-32.5 -10q-37 0 -61 9.5t-54 39.5l-178 180q-35 40 -35 57z" />
<glyph unicode="&#xfa;" horiz-adv-x="1140" d="M139 403v469q0 39 27.5 67t66.5 28q38 0 65.5 -28.5t27.5 -66.5v-456q0 -120 56 -187t155 -67q53 0 99.5 15.5t85.5 47t62 87t23 128.5v432q0 39 27.5 67t66.5 28q38 0 65 -28t27 -67v-788q0 -38 -27 -66t-65 -28q-39 0 -66.5 27.5t-27.5 66.5v59q-40 -80 -125.5 -121.5 t-173.5 -41.5q-178 0 -273.5 110.5t-95.5 312.5zM444 1133q0 20 13 36l143 234q39 57 88 57q43 0 86 -25.5t43 -52.5q0 -17 -35 -57l-178 -180q-30 -30 -54 -39.5t-61 -9.5q-20 0 -32.5 10t-12.5 27z" />
<glyph unicode="&#xfb;" horiz-adv-x="1140" d="M139 403v469q0 39 27.5 67t66.5 28q38 0 65.5 -28.5t27.5 -66.5v-456q0 -120 56 -187t155 -67q53 0 99.5 15.5t85.5 47t62 87t23 128.5v432q0 39 27.5 67t66.5 28q38 0 65 -28t27 -67v-788q0 -38 -27 -66t-65 -28q-39 0 -66.5 27.5t-27.5 66.5v59q-40 -80 -125.5 -121.5 t-173.5 -41.5q-178 0 -273.5 110.5t-95.5 312.5zM270 1133q0 13 19 43l162 217q23 28 45 41.5t55 13.5h45q33 0 55 -13.5t45 -41.5l162 -217q19 -30 19 -43q0 -15 -14 -25t-34 -10q-39 0 -66 9.5t-58 37.5l-134 143l-135 -143q-31 -28 -56.5 -37.5t-64.5 -9.5 q-20 0 -32.5 10t-12.5 25z" />
<glyph unicode="&#xfc;" horiz-adv-x="1140" d="M139 403v469q0 39 27.5 67t66.5 28q38 0 65.5 -28.5t27.5 -66.5v-456q0 -120 56 -187t155 -67q53 0 99.5 15.5t85.5 47t62 87t23 128.5v432q0 39 27.5 67t66.5 28q38 0 65 -28t27 -67v-788q0 -38 -27 -66t-65 -28q-39 0 -66.5 27.5t-27.5 66.5v59q-40 -80 -125.5 -121.5 t-173.5 -41.5q-178 0 -273.5 110.5t-95.5 312.5zM244 1235q0 52 37 86.5t90 34.5q52 0 88.5 -34.5t36.5 -86.5t-36.5 -86.5t-88.5 -34.5q-53 0 -90 34.5t-37 86.5zM649 1235q0 52 37 86.5t90 34.5t90 -34.5t37 -86.5t-37 -86.5t-90 -34.5t-90 34.5t-37 86.5z" />
<glyph unicode="&#xfd;" horiz-adv-x="1005" d="M66 842q-12 36 3.5 73.5t51.5 47.5q39 11 71.5 -5.5t47.5 -54.5l264 -639l266 645q13 35 49.5 50.5t71.5 1.5q36 -13 50.5 -49.5t-1.5 -71.5l-524 -1254q-13 -35 -48.5 -50t-72.5 -1q-33 15 -46 50.5t1 70.5l151 373zM395 1133q0 20 13 36l143 234q39 57 88 57 q43 0 86 -25.5t43 -52.5q0 -17 -35 -57l-178 -180q-30 -30 -54 -39.5t-61 -9.5q-20 0 -32.5 10t-12.5 27z" />
<glyph unicode="&#xfe;" horiz-adv-x="1249" d="M152 -354v1747q0 38 27 66t65 28q39 0 66.5 -27.5t27.5 -66.5v-580q46 79 137 121.5t199 42.5q132 0 241 -59.5t175 -173.5t67 -261q-1 -111 -39.5 -204.5t-104.5 -156t-153.5 -97.5t-185.5 -35q-108 0 -199 42.5t-137 121.5v-508q0 -39 -27.5 -67t-66.5 -28 q-38 0 -65 28t-27 67zM340 481v4q0 -98 48 -171t118.5 -107.5t150.5 -34.5q132 0 221 86t89 223q0 140 -89 227t-221 87q-80 0 -150.5 -34.5t-118.5 -108t-48 -171.5z" />
<glyph unicode="&#xff;" horiz-adv-x="1005" d="M66 842l335 -813l-151 -373q-14 -35 -1 -70.5t46 -50.5q37 -14 72.5 1t48.5 50l524 1254q16 35 1.5 71.5t-50.5 49.5q-35 14 -71.5 -1.5t-49.5 -50.5l-266 -645l-264 639q-15 38 -47.5 54.5t-71.5 5.5q-36 -10 -51.5 -47.5t-3.5 -73.5zM174 1235q0 52 37 86.5t90 34.5 q52 0 88.5 -34.5t36.5 -86.5t-36.5 -86.5t-88.5 -34.5q-53 0 -90 34.5t-37 86.5zM580 1235q0 52 37 86.5t90 34.5t90 -34.5t37 -86.5t-37 -86.5t-90 -34.5t-90 34.5t-37 86.5z" />
<glyph unicode="&#x152;" horiz-adv-x="2283" d="M100 702q0 148 55 282t149.5 231t226 154.5t278.5 57.5q155 0 290 -65t230 -178v129q0 40 29 69t67 29h660q37 0 63.5 -25.5t26.5 -62.5q0 -38 -26.5 -64t-63.5 -26h-565v-451h487q37 0 63.5 -26t26.5 -64q0 -37 -26.5 -62.5t-63.5 -25.5h-487v-426h589q37 0 64 -26 t27 -64q0 -36 -27 -62t-64 -26h-684q-38 0 -67 29t-29 69v123q-94 -113 -229.5 -177t-290.5 -64q-147 0 -278.5 57t-226 154t-149.5 230.5t-55 280.5zM291 702q0 -146 67.5 -268t186.5 -193t264 -71q213 0 362 148t158 362v45q-9 214 -158 363t-362 149q-145 0 -264 -72 t-186.5 -194.5t-67.5 -268.5z" />
<glyph unicode="&#x153;" horiz-adv-x="1951" d="M92 481q0 147 68.5 261.5t181.5 174.5t250 60q124 0 232 -52.5t177 -146.5q66 94 171.5 146.5t230.5 52.5q207 0 341 -136t134 -360q0 -31 -22 -52t-52 -21h-704q17 -119 102 -190t207 -71q85 0 139.5 23t104.5 78q27 30 62 37t63 -13q28 -22 33 -56.5t-17 -59.5 q-67 -87 -169 -131.5t-222 -44.5q-126 0 -231 52.5t-171 149.5q-69 -96 -176.5 -149t-232.5 -53q-136 0 -249.5 61t-182 177t-68.5 263zM276 481q0 -143 91.5 -232t224.5 -89q132 0 223.5 89t91.5 232q0 141 -91 227.5t-224 86.5t-224.5 -86.5t-91.5 -227.5zM1100 553h594 q-17 119 -96 187.5t-195 68.5q-120 0 -203 -68.5t-100 -187.5z" />
<glyph unicode="&#x178;" horiz-adv-x="1208" d="M49.5 1344q5.5 38 38.5 61q31 22 68.5 14.5t60.5 -39.5l383 -540l387 540q23 32 60.5 39.5t68.5 -14.5q33 -23 40 -62t-15 -71l-443 -623v-563q0 -40 -28 -68t-70 -28q-41 0 -68.5 28t-27.5 68v563l-438 625q-22 32 -16.5 70zM270 1628q0 52 37 86.5t90 34.5 q52 0 88.5 -34.5t36.5 -86.5t-36.5 -86.5t-88.5 -34.5q-53 0 -90 34.5t-37 86.5zM676 1628q0 52 37 86.5t90 34.5t90 -34.5t37 -86.5t-37 -86.5t-90 -34.5t-90 34.5t-37 86.5z" />
<glyph unicode="&#x2c6;" horiz-adv-x="1036" d="M215 1133q0 14 18 43l162 217q45 55 101 55h45q33 0 55 -13.5t45 -41.5l162 -217q18 -29 18 -43q0 -15 -13.5 -25t-33.5 -10q-39 0 -66.5 9.5t-58.5 37.5l-133 143l-135 -143q-31 -28 -56.5 -37.5t-64.5 -9.5q-20 0 -32.5 10t-12.5 25z" />
<glyph unicode="&#x2dc;" horiz-adv-x="868" d="M166 1194q17 94 66 136t110 42q53 0 117 -51q45 -35 63 -35q16 0 32 12.5t21 38.5q0 1 1.5 7l2 8t2 7.5t3.5 8.5l5 7.5t7 7t9.5 5.5t12.5 5q22 6 45.5 -5t32.5 -32q6 -16 2 -41q-17 -94 -66 -136t-110 -42q-25 0 -48.5 9t-35 17t-32.5 25q-45 35 -64 35q-16 0 -32 -12.5 t-21 -39.5q0 -1 -1.5 -7l-2 -8t-2 -7.5t-3.5 -8t-5 -7t-7 -7t-9.5 -5.5t-12.5 -5q-22 -6 -45.5 5t-32.5 32q-6 16 -2 41z" />
<glyph unicode="&#x2000;" horiz-adv-x="958" />
<glyph unicode="&#x2001;" horiz-adv-x="1917" />
<glyph unicode="&#x2002;" horiz-adv-x="958" />
<glyph unicode="&#x2003;" horiz-adv-x="1917" />
<glyph unicode="&#x2004;" horiz-adv-x="639" />
<glyph unicode="&#x2005;" horiz-adv-x="479" />
<glyph unicode="&#x2006;" horiz-adv-x="319" />
<glyph unicode="&#x2007;" horiz-adv-x="319" />
<glyph unicode="&#x2008;" horiz-adv-x="239" />
<glyph unicode="&#x2009;" horiz-adv-x="383" />
<glyph unicode="&#x200a;" horiz-adv-x="106" />
<glyph unicode="&#x2010;" horiz-adv-x="1015" d="M141 479q0 37 26.5 62.5t63.5 25.5h553q37 0 63.5 -25.5t26.5 -62.5q0 -38 -26.5 -64t-63.5 -26h-553q-37 0 -63.5 26t-26.5 64z" />
<glyph unicode="&#x2011;" horiz-adv-x="1015" d="M141 479q0 37 26.5 62.5t63.5 25.5h553q37 0 63.5 -25.5t26.5 -62.5q0 -38 -26.5 -64t-63.5 -26h-553q-37 0 -63.5 26t-26.5 64z" />
<glyph unicode="&#x2012;" horiz-adv-x="1015" d="M141 479q0 37 26.5 62.5t63.5 25.5h553q37 0 63.5 -25.5t26.5 -62.5q0 -38 -26.5 -64t-63.5 -26h-553q-37 0 -63.5 26t-26.5 64z" />
<glyph unicode="&#x2013;" horiz-adv-x="1232" d="M141 479q0 37 26.5 62.5t63.5 25.5h770q37 0 64 -26t27 -62q0 -38 -27 -64t-64 -26h-770q-37 0 -63.5 26t-26.5 64z" />
<glyph unicode="&#x2014;" horiz-adv-x="1646" d="M135 479q0 37 26.5 62.5t63.5 25.5h1196q37 0 63.5 -25.5t26.5 -62.5q0 -38 -26.5 -64t-63.5 -26h-1196q-37 0 -63.5 26t-26.5 64z" />
<glyph unicode="&#x2018;" horiz-adv-x="487" d="M119 1010q24 176 95.5 293.5t150.5 117.5q38 0 38 -39q0 -17 -8 -30q-87 -135 -104 -301q0 -2 -1 -13.5t-1.5 -14t-2 -12t-2.5 -12t-3.5 -9.5t-5.5 -10.5t-7.5 -8t-9.5 -8.5q-31 -24 -75.5 -28.5t-59.5 15.5q-7 13 -4 60z" />
<glyph unicode="&#x2019;" horiz-adv-x="491" d="M109 965q0 17 8 30q87 135 104 301q0 2 1 13.5t1.5 14t2 12t2.5 12t3.5 9.5t5.5 10.5t7.5 8t9.5 8.5q31 24 75.5 28.5t59.5 -15.5q7 -13 4 -60q-24 -176 -95.5 -293.5t-150.5 -117.5q-38 0 -38 39z" />
<glyph unicode="&#x201a;" horiz-adv-x="495" d="M66 -106q0 17 8 30q87 135 104 301q0 2 1 13.5t1.5 14t2 12t2.5 12t3.5 9.5t5.5 10.5t7.5 8t9.5 8.5q31 24 75.5 28.5t59.5 -15.5q7 -13 4 -60q-24 -176 -95.5 -293.5t-150.5 -117.5q-38 0 -38 39z" />
<glyph unicode="&#x201c;" horiz-adv-x="796" d="M121 1001q24 177 95.5 294.5t150.5 117.5q18 0 28.5 -10.5t10.5 -28.5q0 -16 -9 -31q-87 -135 -104 -301q0 -2 -1 -13.5t-1.5 -14t-2 -12t-2.5 -12t-3.5 -9.5t-5.5 -10.5t-7.5 -8t-9.5 -8.5q-31 -24 -75.5 -28t-59.5 16q-7 13 -4 59zM426 1001q24 177 95.5 294.5 t150.5 117.5q18 0 28.5 -10.5t10.5 -28.5q0 -16 -9 -31q-87 -135 -104 -301q0 -2 -1 -13.5t-1.5 -14t-2 -12t-2.5 -12t-3.5 -9.5t-5.5 -10.5t-7.5 -8t-9.5 -8.5q-31 -24 -75.5 -28t-59.5 16q-7 13 -4 59z" />
<glyph unicode="&#x201d;" horiz-adv-x="796" d="M109 965q0 17 8 30q87 135 104 301q0 2 1 13.5t1.5 14t2 12t2.5 12t3.5 9.5t5.5 10.5t7.5 8t9.5 8.5q31 24 75.5 28.5t59.5 -15.5q7 -13 4 -60q-24 -176 -95.5 -293.5t-150.5 -117.5q-38 0 -38 39zM414 965q0 17 8 30q87 135 104 301q0 2 1 13.5t1.5 14t2 12t2.5 12 t3.5 9.5t5.5 10.5t7.5 8t9.5 8.5q31 24 75.5 28.5t59.5 -15.5q7 -13 4 -60q-24 -177 -95 -294t-150 -117q-18 0 -28.5 10.5t-10.5 28.5z" />
<glyph unicode="&#x201e;" horiz-adv-x="802" d="M72 -90q0 18 8 31q87 135 104 301q0 2 1 13.5t1.5 14t2 12t2.5 12t3.5 9.5t5.5 10.5t7.5 8t9.5 8.5q31 24 75.5 28t59.5 -16q7 -13 4 -59q-25 -177 -95.5 -294.5t-149.5 -117.5q-18 0 -28.5 10.5t-10.5 28.5zM377 -90q0 18 8 31q87 135 104 301q0 2 1 13.5t1.5 14t2 12 t2.5 12t3.5 9.5t5.5 10.5t7.5 8t9.5 8.5q31 24 75.5 28t59.5 -16q8 -15 5 -59q-24 -177 -95.5 -294.5t-150.5 -117.5q-18 0 -28.5 10.5t-10.5 28.5z" />
<glyph unicode="&#x2022;" horiz-adv-x="940" d="M164 489q0 124 89.5 207.5t217.5 83.5q126 0 215.5 -83.5t89.5 -207.5q0 -126 -89 -209t-216 -83q-128 0 -217.5 83t-89.5 209z" />
<glyph unicode="&#x2026;" horiz-adv-x="1447" d="M127 106q0 55 39 92.5t94 37.5q56 0 95.5 -37.5t39.5 -92.5t-39.5 -90.5t-95.5 -35.5q-55 0 -94 35.5t-39 90.5zM590 106q0 55 38.5 92.5t94.5 37.5t95.5 -37.5t39.5 -92.5t-39.5 -90.5t-95.5 -35.5t-94.5 35.5t-38.5 90.5zM1053 106q0 55 38.5 92.5t94.5 37.5 t95.5 -37.5t39.5 -92.5t-39.5 -90.5t-95.5 -35.5t-94.5 35.5t-38.5 90.5z" />
<glyph unicode="&#x202f;" horiz-adv-x="383" />
<glyph unicode="&#x2039;" horiz-adv-x="624" d="M98 477q0 31 35 82l219 324q15 28 48.5 35.5t62.5 -9.5q28 -15 38 -48t-7 -64l-224 -320l228 -325q14 -28 3.5 -58.5t-38.5 -48.5q-29 -17 -62.5 -8.5t-50.5 37.5l-217 323q-35 44 -35 80z" />
<glyph unicode="&#x203a;" horiz-adv-x="624" d="M123.5 93.5q-10.5 30.5 3.5 58.5l227 325l-223 320q-17 31 -7 64t38 48q29 17 62 9.5t48 -35.5l220 -324q34 -49 34 -82q0 -37 -34 -80l-218 -323q-17 -29 -50 -37.5t-62 8.5q-28 18 -38.5 48.5z" />
<glyph unicode="&#x205f;" horiz-adv-x="479" />
<glyph unicode="&#x20ac;" horiz-adv-x="1574" d="M92 578q0 23 17.5 39t42.5 16h858q25 0 42 -16t17 -39q0 -26 -17 -43t-42 -17h-504q47 -156 170.5 -255t288.5 -99q175 0 327 123q28 21 66 19t65 -30q23 -31 20 -68t-30 -61q-201 -165 -448 -165q-123 0 -232.5 41t-193 113t-142.5 170t-86 212h-159q-25 0 -42.5 17 t-17.5 43zM92 803q0 26 17.5 42.5t42.5 16.5h159q56 235 233 386t421 151q245 0 448 -166q27 -24 30 -61t-20 -68q-27 -28 -65 -29.5t-66 19.5q-152 123 -327 123q-165 0 -288.5 -99.5t-170.5 -255.5h504q25 0 42 -16.5t17 -42.5q0 -23 -17 -39t-42 -16h-858q-25 0 -42.5 16 t-17.5 39z" />
<glyph unicode="&#x2122;" horiz-adv-x="1710" d="M119 1333q0 26 17.5 44t41.5 18h645q17 0 31 -11t20 -22.5t17 -34.5l221 -471l227 481q31 68 68 68h12q25 0 44 -10t22 -27l86 -702q0 -29 -18.5 -47.5t-49.5 -18.5q-27 0 -44.5 17t-20.5 47l-60 495l-182 -401q-31 -68 -84 -68q-51 0 -82 68l-186 401l-58 -495 q-3 -29 -21 -46.5t-46 -17.5q-31 0 -49.5 18.5t-18.5 47.5q0 1 1 12q19 150 71 596h-217v-604q0 -28 -19.5 -49t-48.5 -21q-30 0 -50.5 21t-20.5 49v604h-189q-24 0 -41.5 17.5t-17.5 41.5z" />
<glyph unicode="&#x25fc;" horiz-adv-x="962" d="M0 0v963h963v-963h-963z" />
</font>
</defs>
</svg>
